{
.appVersion = "3133";
.formatVersion = 3;
axes = (
{
name = Weight;
tag = wght;
}
);
classes = (
{
code = "zero one two three four five six seven eight nine";
name = figures;
},
{
code = "tabularzero tabularone tabulartwo tabularthree tabularfour tabularfive tabularsix tabularseven tabulareight tabularnine";
name = figures_tabular;
},
{
code = "zero.dnom one.dnom two.dnom three.dnom four.dnom five.dnom six.dnom seven.dnom eight.dnom nine.dnom";
name = figures_denominator;
},
{
code = "zero.numr one.numr two.numr three.numr four.numr five.numr six.numr seven.numr eight.numr nine.numr";
name = figures_numerator;
},
{
code = "parenleft parenright zero one two three four five six seven eight nine";
name = for_subscript_superscript;
},
{
code = "parenleft.inferior parenright.inferior zero.inferior one.inferior two.inferior three.inferior four.inferior five.inferior six.inferior seven.inferior eight.inferior nine.inferior";
name = figures_subscript;
},
{
code = "parenleft.superior parenright.superior zero.superior onesuperior twosuperior threesuperior foursuperior five.superior six.superior seven.superior eight.superior nine.superior";
name = figures_superscript;
},
{
code = "alefabove.ar alefbelow.ar damma.ar dammainverted.ar dammatan.ar dotabove.ar dotbelow.ar fatha.ar fathatan.ar gafsarkashabove.ar hamzaabove.ar kasra.ar kasratan.ar madda.ar shadda.ar sukun.ar tahabove.ar threedotsdownbelow.ar threedotsupabove.ar twodotshorizontalabove.ar twodotshorizontalbelow.ar";
name = COMBINING_MARKS;
}
);
customParameters = (
{
name = glyphOrder;
value = (
.notdef,
NULL,
CR,
space,
exclam,
quotedbl,
numbersign,
dollar,
percent,
ampersand,
quotesingle,
parenleft,
parenright,
asterisk,
plus,
comma,
hyphen,
period,
slash,
zero,
one,
two,
three,
four,
five,
six,
seven,
eight,
nine,
colon,
semicolon,
less,
equal,
greater,
question,
at,
A,
B,
C,
D,
E,
F,
G,
H,
I,
J,
K,
L,
M,
N,
O,
P,
Q,
R,
S,
T,
U,
V,
W,
X,
Y,
Z,
bracketleft,
backslash,
bracketright,
asciicircum,
underscore,
grave,

glyphs = (
{
glyphname = .notdef;
layers = (
{
layerId = UUID0;
shapes = (
{
closed = 1;
nodes = (
(486,0,ls),
(524,0,o),
(546,23,o),
(546,60,cs),
(546,589,ls),
(546,626,o),
(524,649,o),
(486,649,cs),
(158,649,ls),
(121,649,o),
(99,626,o),
(99,589,cs),
(99,60,l),
(99,23,o),
(122,0,o),
(159,0,cs)
);
},
{
closed = 1;
nodes = (
(180,581,l),
(466,581,l),
(466,68,l),
(180,68,l)
);
}
);
width = 645;
},
{
layerId = UUID1;
shapes = (
{
closed = 1;
nodes = (
(525,0,ls),
(574,0,o),
(604,31,o),
(604,79,cs),
(604,570,ls),
(604,618,o),
(574,649,o),
(525,649,cs),
(159,649,ls),
(110,649,o),
(80,618,o),
(80,570,cs),
(80,79,l),
(80,31,o),
(110,0,o),
(159,0,cs)
);
},
{
closed = 1;
nodes = (
(229,517,l),
(455,517,l),
(455,132,l),
(229,132,l)
);
}
);
width = 684;
}
);
},
{
glyphname = exclam;
layers = (
{
layerId = UUID0;
shapes = (
{
closed = 1;
nodes = (
(164,611,o),
(149,625,o),
(124,625,cs),
(108,625,o),
(92,620,o),
(79,612,c),
(79,500,o),
(82,279,o),
(88,202,cs),
(89,185,o),
(102,177,o),
(121,177,cs),
(134,177,o),
(146,181,o),
(154,187,c),
(160,305,o),
(164,501,o),
(164,582,cs),
(164,582,l)
);
},
{
closed = 1;
nodes = (
(66,13,o),
(87,-11,o),
(122,-11,cs),
(157,-11,o),
(178,13,o),
(178,45,cs),
(178,77,o),
(157,101,o),
(122,101,cs),
(87,101,o),
(66,77,o),
(66,45,cs),
(66,45,l)
);
}
);
width = 250;
},
{
layerId = UUID1;
shapes = (
{
closed = 1;
nodes = (
(237,610,o),
(205,635,o),
(151,635,cs),
(118,635,o),
(82,626,o),
(55,611,c),
(55,510,o),
(64,322,o),
(76,260,cs),
(83,226,o),
(111,216,o),
(149,216,cs),
(167,216,o),
(201,222,o),
(212,231,c),
(231,329,o),
(237,497,o),
(237,558,cs),
(237,558,l)
);
},
{
closed = 1;
nodes = (
(53,21,o),
(90,-18,o),
(149,-18,cs),
(208,-18,o),
(245,21,o),
(245,76,cs),
(245,131,o),
(208,170,o),
(149,170,cs),
(90,170,o),
(53,131,o),
(53,76,cs),
(53,76,l)
);
}
);
width = 298;
}
);
unicode = 33;
},
{
glyphname = quotedbl;
kernLeft = quotesingle;
kernRight = quotesingle;
layers = (
{
layerId = UUID0;
shapes = (
{
closed = 1;
nodes = (
(103,465,o),
(107,552,o),
(107,586,cs),
(107,613,o),
(94,625,o),
(70,625,cs),
(55,625,o),
(42,621,o),
(31,615,c),
(37,441,ls),
(38,421,o),
(50,412,o),
(70,412,cs),
(82,412,o),
(92,414,o),
(101,418,c),
(101,418,l)
);
},
{
closed = 1;
nodes = (
(236,465,o),
(239,552,o),
(239,585,cs),
(239,613,o),
(227,625,o),
(203,625,cs),
(187,625,o),
(175,621,o),
(163,615,c),
(170,441,ls),
(171,421,o),
(181,412,o),
(202,412,cs),
(213,412,o),
(224,414,o),
(234,418,c),
(234,418,l)
);
}
);
width = 270;
},
{
layerId = UUID1;
shapes = (
{
closed = 1;
nodes = (
(169,431,o),
(181,538,o),
(181,575,cs),
(181,618,o),
(155,635,o),
(105,635,cs),
(71,635,o),
(44,626,o),
(25,611,c),
(38,412,ls),
(40,379,o),
(67,368,o),
(100,368,cs),
(125,368,o),
(143,370,o),
(158,378,c),
(158,378,l)
);
},
{
closed = 1;
nodes = (
(370,431,o),
(382,538,o),
(382,575,cs),
(382,618,o),
(356,635,o),
(306,635,cs),
(272,635,o),
(245,626,o),
(226,611,c),
(239,412,ls),
(241,379,o),
(268,368,o),
(301,368,cs),
(326,368,o),
(344,370,o),
(359,378,c),
(359,378,l)
);
}
);
width = 410;
}
);
unicode = 34;
},
{
glyphname = numbersign;
layers = (
{
layerId = UUID0;
shapes = (
{
closed = 1;
nodes = (
(588,162,o),
(600,173,o),
(600,194,cs),
(600,206,o),
(597,216,o),
(594,224,c),
(76,224,ls),
(55,224,o),
(43,213,o),
(43,191,cs),
(43,180,o),
(46,170,o),
(49,162,c),
(566,162,l)
);
},
{
closed = 1;
nodes = (
(618,396,o),
(630,407,o),
(630,428,cs),
(630,440,o),
(627,450,o),
(624,458,c),
(106,458,ls),
(85,458,o),
(72,447,o),
(72,425,cs),
(72,413,o),
(76,404,o),
(79,396,c),
(596,396,l)
);
},
{
closed = 1;
nodes = (
(310,547,o),
(316,568,o),
(316,581,cs),
(316,603,o),
(302,613,o),
(281,613,cs),
(273,613,o),
(263,612,o),
(256,611,c),
(144,76,ls),
(140,63,o),
(135,40,o),
(135,27,cs),
(135,5,o),
(149,-5,o),
(170,-5,cs),
(179,-5,o),
(188,-4,o),
(195,-3,c),
(307,532,l)
);
},
{
closed = 1;
nodes = (
(526,547,o),
(532,568,o),
(532,581,cs),
(532,603,o),
(518,613,o),
(497,613,cs),
(489,613,o),
(479,612,o),
(472,611,c),
(359,76,ls),
(356,63,o),
(351,40,o),
(351,27,cs),
(351,5,o),
(365,-5,o),
(386,-5,cs),
(395,-5,o),
(404,-4,o),
(411,-3,c),
(523,532,l)
);
}
);
width = 667;
},
{
layerId = UUID1;
shapes = (
{
closed = 1;
nodes = (
(634,129,o),
(657,148,o),
(657,194,cs),
(657,219,o),
(647,243,o),
(639,256,c),
(87,256,ls),
(53,256,o),
(30,237,o),
(30,191,cs),
(30,166,o),
(39,142,o),
(48,129,c),
(600,129,l)
);
},
{
closed = 1;
nodes = (
(661,357,o),
(684,376,o),
(684,422,cs),
(684,447,o),
(674,471,o),
(666,484,c),
(114,484,ls),
(80,484,o),
(57,465,o),
(57,419,cs),
(57,394,o),
(66,370,o),
(75,357,c),
(627,357,l)
);
},
{
closed = 1;
nodes = (
(350,479,o),
(361,517,o),
(361,550,cs),
(361,603,o),
(327,617,o),
(278,617,cs),
(265,617,o),
(248,617,o),
(229,615,c),
(131,167,ls),
(125,140,o),
(114,98,o),
(114,65,cs),
(114,12,o),
(146,-4,o),
(196,-4,cs),
(210,-4,o),
(226,-4,o),
(244,-1,c),
(343,447,l)
);
},
{
closed = 1;
nodes = (
(590,479,o),
(601,517,o),
(601,550,cs),
(601,603,o),
(567,617,o),
(518,617,cs),
(505,617,o),
(488,617,o),
(469,615,c),
(371,167,ls),
(365,140,o),
(354,98,o),
(354,65,cs),
(354,12,o),
(386,-4,o),
(436,-4,cs),
(450,-4,o),
(466,-4,o),
(484,-1,c),
(583,447,l)
);
}
);
width = 714;
}
);
unicode = 35;
},
{
glyphname = dollar;
layers = (
{
layerId = UUID0;
shapes = (
{
closed = 1;
nodes = (
(221,-61,ls),
(221,-82,o),
(236,-94,o),
(262,-94,cs),
(276,-94,o),
(288,-91,o),
(294,-89,c),
(294,25,l),
(221,25,l)
);
},
{
closed = 1;
nodes = (
(294,669,ls),
(294,690,o),
(280,702,o),
(254,702,cs),
(240,702,o),
(227,699,o),
(221,697,c),
(221,568,l),
(294,568,l)
);
},
{
ref = S;
}
);
width = 522;
},
{
layerId = UUID1;
shapes = (
{
closed = 1;
nodes = (
(206,-23,ls),
(206,-78,o),
(231,-94,o),
(289,-94,cs),
(317,-94,o),
(343,-90,o),
(356,-86,c),
(356,69,l),
(206,69,l)
);
},
{
closed = 1;
nodes = (
(356,632,ls),
(356,687,o),
(331,703,o),
(273,703,cs),
(245,703,o),
(219,699,o),
(206,695,c),
(206,517,l),
(356,517,l)
);
},
{
pos = (4,0);
ref = S;
}
);
width = 565;
}
);
unicode = 36;
},
{
glyphname = percent;
kernLeft = percent;
kernRight = percent;
layers = (
{
layerId = UUID0;
shapes = (
{
closed = 1;
nodes = (
(335,561,o),
(272,616,o),
(194,616,cs),
(115,616,o),
(53,561,o),
(53,474,cs),
(53,387,o),
(115,332,o),
(194,332,cs),
(272,332,o),
(335,387,o),
(335,474,cs),
(335,474,l)
);
},
{
closed = 1;
nodes = (
(124,526,o),
(153,556,o),
(194,556,cs),
(235,556,o),
(264,526,o),
(264,474,cs),
(264,422,o),
(235,392,o),
(194,392,cs),
(153,392,o),
(124,422,o),
(124,474,cs),
(124,474,l)
);
},
{
closed = 1;
nodes = (
(176,50,o),
(171,39,o),
(171,28,cs),
(171,10,o),
(192,-4,o),
(221,-7,c),
(588,542,ls),
(598,557,o),
(604,569,o),
(604,582,cs),
(604,601,o),
(584,612,o),
(554,616,c),
(186,65,l)
);
},
{
closed = 1;
nodes = (
(719,221,o),
(657,276,o),
(578,276,cs),
(500,276,o),
(437,221,o),
(437,135,cs),
(437,47,o),
(500,-8,o),
(578,-8,cs),
(657,-8,o),
(719,47,o),
(719,135,cs),
(719,135,l)
);
},
{
closed = 1;
nodes = (
(508,186,o),
(537,216,o),
(578,216,cs),
(619,216,o),
(648,186,o),
(648,135,cs),
(648,82,o),
(619,52,o),
(578,52,cs),
(537,52,o),
(508,82,o),
(508,135,cs),
(508,135,l)
);
}
);
width = 772;
},
{
layerId = UUID1;
shapes = (
{
closed = 1;
nodes = (
(351,556,o),
(284,616,o),
(190,616,cs),
(95,616,o),
(29,556,o),
(29,458,cs),
(29,359,o),
(95,299,o),
(190,299,cs),
(284,299,o),
(351,359,o),
(351,458,cs),
(351,458,l)
);
},
{
closed = 1;
nodes = (
(150,497,o),
(167,515,o),
(190,515,cs),
(213,515,o),
(230,497,o),
(230,458,cs),
(230,418,o),
(213,399,o),
(190,399,cs),
(167,399,o),
(150,418,o),
(150,458,cs),
(150,458,l)
);
},
{
closed = 1;
nodes = (
(179,91,o),
(167,69,o),
(167,48,cs),
(167,17,o),
(205,-3,o),
(256,-7,c),
(602,494,ls),
(619,518,o),
(631,541,o),
(631,562,cs),
(631,593,o),
(587,610,o),
(542,617,c),
(196,115,l)
);
},
{
closed = 1;
nodes = (
(770,249,o),
(703,309,o),
(609,309,cs),
(514,309,o),
(448,249,o),
(448,151,cs),
(448,52,o),
(514,-8,o),
(609,-8,cs),
(703,-8,o),
(770,52,o),
(770,151,cs),
(770,151,l)
);
},
{
closed = 1;
nodes = (
(569,190,o),
(586,208,o),
(609,208,cs),
(632,208,o),
(649,190,o),
(649,151,cs),
(649,111,o),
(632,92,o),
(609,92,cs),
(586,92,o),
(569,111,o),
(569,151,cs),
(569,151,l)
);
}
);
width = 799;
}
);
unicode = 37;
},
{
glyphname = ampersand;
layers = (
{
layerId = UUID0;
shapes = (
{
closed = 1;
nodes = (
(548,157,o),
(571,242,o),
(571,317,cs),
(571,346,o),
(557,362,o),
(531,362,cs),
(519,362,o),
(506,358,o),
(494,353,c),
(494,267,o),
(479,200,o),
(455,156,c),
(433,124,l),
(388,72,o),
(331,53,o),
(280,53,cs),
(187,53,o),
(131,106,o),
(131,186,cs),
(131,263,o),
(185,307,o),
(239,319,c),
(204,378,l),
(117,355,o),
(50,289,o),
(50,187,cs),
(50,64,o),
(141,-15,o),
(279,-15,cs),
(371,-15,o),
(435,18,o),
(480,68,c),
(509,102,l)
);
},
{
closed = 1;
nodes = (
(590,-14,o),
(605,2,o),
(609,29,c),
(277,374,l),
(237,415,o),
(215,443,o),
(215,484,cs),
(215,526,o),
(246,553,o),
(297,553,cs),
(328,553,o),
(358,544,o),
(379,532,c),
(390,539,o),
(400,552,o),
(400,568,cs),
(400,598,o),
(362,621,o),
(292,621,cs),
(191,621,o),
(133,567,o),
(133,485,cs),
(133,438,o),
(153,400,o),
(194,357,c),
(219,329,l),
(525,9,ls),
(538,-6,o),
(550,-14,o),
(565,-14,cs),
(565,-14,l)
);
}
);
width = 637;
},
{
layerId = UUID1;
shapes = (
{
closed = 1;
nodes = (
(597,179,o),
(613,245,o),
(613,300,cs),
(613,354,o),
(599,393,o),
(536,393,cs),
(514,393,o),
(492,389,o),
(467,378,c),
(467,339,o),
(465,281,o),
(451,237,c),
(399,158,l),
(359,119,o),
(310,114,o),
(289,114,cs),
(228,114,o),
(196,150,o),
(196,196,cs),
(196,231,o),
(221,260,o),
(255,271,c),
(176,371,l),
(103,344,o),
(36,284,o),
(36,185,cs),
(36,71,o),
(123,-16,o),
(279,-16,cs),
(348,-16,o),
(433,4,o),
(489,60,c),
(554,116,l)
);
},
{
closed = 1;
nodes = (
(610,-14,o),
(646,22,o),
(649,72,c),
(329,381,l),
(298,410,o),
(284,426,o),
(284,446,cs),
(284,477,o),
(309,492,o),
(344,492,cs),
(365,492,o),
(385,487,o),
(400,481,c),
(417,498,o),
(426,522,o),
(426,543,cs),
(426,589,o),
(395,623,o),
(311,623,cs),
(191,623,o),
(124,554,o),
(124,470,cs),
(124,439,o),
(129,404,o),
(180,348,c),
(207,305,l),
(488,24,ls),
(514,-2,o),
(538,-14,o),
(566,-14,cs),
(566,-14,l)
);
}
);
width = 673;
}
);
unicode = 38;
},
{
glyphname = quotesingle;
kernLeft = quotesingle;
kernRight = quotesingle;
layers = (
{
layerId = UUID0;
shapes = (
{
closed = 1;
nodes = (
(106,465,o),
(109,551,o),
(109,585,cs),
(109,613,o),
(96,625,o),
(71,625,cs),
(54,625,o),
(42,621,o),
(31,615,c),
(37,441,ls),
(38,422,o),
(50,412,o),
(70,412,cs),
(82,412,o),
(94,415,o),
(103,418,c),
(103,418,l)
);
}
);
width = 139;
},
{
layerId = UUID1;
shapes = (
{
closed = 1;
nodes = (
(179,435,o),
(191,534,o),
(191,571,cs),
(191,616,o),
(160,635,o),
(110,635,cs),
(74,635,o),
(44,622,o),
(25,607,c),
(38,416,ls),
(40,383,o),
(69,368,o),
(105,368,cs),
(131,368,o),
(154,374,o),
(168,382,c),
(168,382,l)
);
}
);
width = 219;
}
);
unicode = 39;
},
{
glyphname = parenleft;
kernRight = parenleft;
layers = (
{
layerId = UUID0;
shapes = (
{
closed = 1;
nodes = (
(223,-116,o),
(237,-103,o),
(244,-87,c),
(164,22,o),
(131,131,o),
(131,274,cs),
(131,416,o),
(172,537,o),
(244,629,c),
(237,645,o),
(223,657,o),
(204,657,cs),
(183,657,o),
(165,642,o),
(148,615,cs),
(99,541,o),
(55,422,o),
(55,274,cs),
(55,125,o),
(88,12,o),
(148,-73,cs),
(166,-100,o),
(183,-116,o),
(204,-116,cs),
(204,-116,l)
);
}
);
width = 254;
},
{
layerId = UUID1;
shapes = (
{
closed = 1;
nodes = (
(259,-136,o),
(288,-112,o),
(303,-89,c),
(239,8,o),
(204,111,o),
(204,266,cs),
(204,421,o),
(239,524,o),
(303,621,c),
(288,644,o),
(259,668,o),
(223,668,cs),
(169,668,o),
(133,630,o),
(108,583,cs),
(70,512,o),
(42,405,o),
(42,266,cs),
(42,127,o),
(70,20,o),
(108,-51,cs),
(133,-98,o),
(169,-136,o),
(223,-136,cs),
(223,-136,l)
);
}
);
width = 305;
}
);
unicode = 40;
},
{
glyphname = asterisk;
layers = (
{
layerId = UUID0;
shapes = (
{
closed = 1;
nodes = (
(71,573,ls),
(63,576,o),
(57,579,o),
(50,579,cs),
(32,579,o),
(20,566,o),
(20,547,cs),
(20,541,o),
(21,533,o),
(23,526,c),
(168,478,l),
(146,535,l)
);
},
{
closed = 1;
nodes = (
(113,504,l),
(61,446,ls),
(54,439,o),
(49,429,o),
(49,419,cs),
(49,403,o),
(61,390,o),
(87,390,cs),
(91,390,o),
(95,390,o),
(100,391,c),
(181,510,l)
);
},
{
closed = 1;
nodes = (
(187,416,ls),
(196,404,o),
(208,390,o),
(223,390,cs),
(239,390,o),
(255,404,o),
(258,421,c),
(162,536,l),
(135,490,l)
);
},
{
closed = 1;
nodes = (
(170,484,l),
(254,524,ls),
(268,531,o),
(279,537,o),
(279,553,cs),
(279,569,o),
(266,583,o),
(254,588,c),
(124,515,l)
);
},
{
closed = 1;
nodes = (
(176,540,o),
(182,611,o),
(182,623,cs),
(182,641,o),
(169,649,o),
(152,649,cs),
(139,649,o),
(127,644,o),
(121,640,c),
(126,492,l),
(176,520,l)
);
}
);
width = 299;
},
{
layerId = UUID1;
shapes = (
{
closed = 1;
nodes = (
(108,563,ls),
(96,567,o),
(84,570,o),
(75,570,cs),
(40,570,o),
(20,550,o),
(20,517,cs),
(20,506,o),
(22,492,o),
(26,480,c),
(188,435,l),
(153,548,l)
);
},
{
closed = 1;
nodes = (
(104,486,l),
(72,444,ls),
(58,426,o),
(50,412,o),
(50,396,cs),
(50,366,o),
(73,347,o),
(117,347,cs),
(124,347,o),
(132,348,o),
(140,350,c),
(239,496,l)
);
},
{
closed = 1;
nodes = (
(186,393,ls),
(201,368,o),
(213,347,o),
(245,347,cs),
(276,347,o),
(298,368,o),
(307,397,c),
(208,539,l),
(146,461,l)
);
},
{
closed = 1;
nodes = (
(217,446,l),
(279,471,ls),
(308,483,o),
(326,490,o),
(326,522,cs),
(326,550,o),
(307,571,o),
(285,581,c),
(140,520,l)
);
},
{
closed = 1;
nodes = (
(225,530,o),
(228,591,o),
(228,601,cs),
(228,633,o),
(207,649,o),
(177,649,cs),
(153,649,o),
(134,637,o),
(123,630,c),
(123,464,l),
(224,513,l)
);
}
);
width = 351;
}
);
unicode = 42;
},
{
glyphname = plus;
kernLeft = hyphen;
kernRight = hyphen;
layers = (
{
layerId = UUID0;
shapes = (
{
closed = 1;
nodes = (
(484,266,o),
(497,279,o),
(497,301,cs),
(497,313,o),
(493,324,o),
(490,332,c),
(86,332,ls),
(64,332,o),
(51,320,o),
(51,298,cs),
(51,285,o),
(54,275,o),
(58,266,c),
(462,266,l)
);
},
{
closed = 1;
nodes = (
(312,517,o),
(301,528,o),
(276,528,cs),
(260,528,o),
(250,525,o),
(239,521,c),
(239,106,ls),
(239,77,o),
(251,66,o),
(278,66,cs),
(292,66,o),
(302,69,o),
(312,73,c),
(312,488,l)
);
}
);
width = 548;
},
{
layerId = UUID1;
shapes = (
{
closed = 1;
nodes = (
(490,222,o),
(515,240,o),
(515,289,cs),
(515,316,o),
(506,342,o),
(498,356,c),
(91,356,ls),
(55,356,o),
(30,335,o),
(30,286,cs),
(30,259,o),
(38,236,o),
(47,222,c),
(454,222,l)
);
},
{
closed = 1;
nodes = (
(351,521,o),
(320,534,o),
(267,534,cs),
(242,534,o),
(210,528,o),
(197,525,c),
(197,112,ls),
(197,53,o),
(226,41,o),
(280,41,cs),
(305,41,o),
(338,46,o),
(351,49,c),
(351,462,l)
);
}
);
width = 545;
}
);
unicode = 43;
},
{
glyphname = comma;
kernLeft = period;
kernRight = period;
layers = (
{
layerId = UUID0;
shapes = (
{
closed = 1;
nodes = (
(86,-66,o),
(126,21,o),
(126,66,cs),
(126,93,o),
(112,103,o),
(88,103,cs),
(73,103,o),
(61,99,o),
(50,94,c),
(40,39,o),
(11,-53,o),
(-7,-104,c),
(1,-114,o),
(15,-121,o),
(29,-121,cs),
(46,-121,o),
(57,-112,o),
(68,-94,cs),
(68,-94,l)
);
}
);
width = 145;
},
{
layerId = UUID1;
shapes = (
{
closed = 1;
nodes = (
(183,-29,o),
(219,59,o),
(219,114,cs),
(219,162,o),
(182,178,o),
(141,178,cs),
(109,178,o),
(75,168,o),
(52,156,c),
(39,86,o),
(19,-8,o),
(-10,-90,c),
(11,-107,o),
(36,-115,o),
(65,-115,cs),
(102,-115,o),
(127,-102,o),
(149,-73,cs),
(149,-73,l)
);
}
);
width = 243;
}
);
unicode = 44;
},
{
glyphname = hyphen;
kernLeft = hyphen;
kernRight = hyphen;
layers = (
{
layerId = UUID0;
shapes = (
{
closed = 1;
nodes = (
(322,228,o),
(335,241,o),
(335,263,cs),
(335,275,o),
(331,286,o),
(328,294,c),
(89,294,ls),
(67,294,o),
(54,282,o),
(54,260,cs),
(54,247,o),
(57,237,o),
(61,228,c),
(300,228,l)
);
}
);
width = 389;
},
{
layerId = UUID1;
shapes = (
{
closed = 1;
nodes = (
(299,186,o),
(324,207,o),
(324,256,cs),
(324,283,o),
(313,309,o),
(305,323,c),
(91,323,ls),
(55,323,o),
(30,302,o),
(30,253,cs),
(30,226,o),
(40,200,o),
(49,186,c),
(263,186,l)
);
}
);
width = 354;
}
);
unicode = 45;
},
{
glyphname = period;
kernLeft = period;
kernRight = period;
layers = (
{
layerId = UUID0;
shapes = (
{
closed = 1;
nodes = (
(16,11,o),
(36,-13,o),
(71,-13,cs),
(106,-13,o),
(125,11,o),
(125,42,cs),
(125,74,o),
(106,98,o),
(71,98,cs),
(36,98,o),
(16,74,o),
(16,42,cs),
(16,42,l)
);
}
);
width = 141;
},
{
layerId = UUID1;
shapes = (
{
closed = 1;
nodes = (
(22,26,o),
(60,-17,o),
(119,-17,cs),
(178,-17,o),
(216,26,o),
(216,81,cs),
(216,136,o),
(178,179,o),
(119,179,cs),
(60,179,o),
(22,136,o),
(22,81,cs),
(22,81,l)
);
}
);
width = 238;
}
);
unicode = 46;
},
{
glyphname = slash;
layers = (
{
layerId = UUID0;
shapes = (
{
closed = 1;
nodes = (
(278,637,o),
(283,656,o),
(283,671,cs),
(283,696,o),
(267,707,o),
(244,707,cs),
(235,707,o),
(227,706,o),
(218,705,c),
(34,-21,ls),
(31,-33,o),
(24,-56,o),
(24,-71,cs),
(24,-94,o),
(38,-107,o),
(63,-107,cs),
(73,-107,o),
(81,-106,o),
(89,-105,c),
(274,621,l)
);
}
);
width = 305;
},
{
layerId = UUID1;
shapes = (
{
closed = 1;
nodes = (
(326,563,o),
(340,598,o),
(340,636,cs),
(340,687,o),
(306,708,o),
(253,708,cs),
(239,708,o),
(221,708,o),
(201,705,c),
(25,70,ls),
(17,42,o),
(3,3,o),
(3,-33,cs),
(3,-86,o),
(35,-109,o),
(90,-109,cs),
(105,-109,o),
(122,-109,o),
(141,-106,c),
(317,529,l)
);
}
);
width = 343;
}
);
unicode = 47;
},
{
glyphname = zero;
layers = (
{
layerId = UUID0;
shapes = (
{
closed = 1;
nodes = (
(447,144,o),
(390,55,o),
(291,55,cs),
(193,55,o),
(136,144,o),
(136,304,cs),
(136,478,o),
(206,552,o),
(291,552,cs),
(376,552,o),
(447,482,o),
(447,304,cs),
(447,304,l)
);
},
{
closed = 1;
nodes = (
(433,-13,o),
(529,91,o),
(529,304,cs),
(529,530,o),
(415,620,o),
(291,620,cs),
(169,620,o),
(54,533,o),
(54,304,cs),
(54,90,o),
(150,-13,o),
(291,-13,cs),
(291,-13,l)
);
}
);
width = 583;
},
{
layerId = UUID1;
shapes = (
{
closed = 1;
nodes = (
(400,179,o),
(364,119,o),
(302,119,cs),
(240,119,o),
(206,179,o),
(206,304,cs),
(206,421,o),
(240,488,o),
(302,488,cs),
(364,488,o),
(400,421,o),
(400,304,cs),
(400,304,l)
);
},
{
closed = 1;
nodes = (
(459,-16,o),
(571,92,o),
(571,304,cs),
(571,510,o),
(459,623,o),
(303,623,cs),
(145,623,o),
(35,510,o),
(35,304,cs),
(35,92,o),
(145,-16,o),
(303,-16,cs),
(303,-16,l)
);
}
);
width = 606;
}
);
unicode = 48;
},
{
glyphname = one;
layers = (
{
layerId = UUID0;
shapes = (
{
closed = 1;
nodes = (
(254,571,ls),
(254,597,o),
(237,615,o),
(210,615,cs),
(191,615,l),
(51,554,ls),
(25,543,o),
(15,531,o),
(15,510,cs),
(15,490,o),
(28,476,o),
(45,470,c),
(173,530,l),
(173,224,l),
(254,224,l)
);
},
{
closed = 1;
nodes = (
(173,29,ls),
(173,3,o),
(188,-8,o),
(216,-8,cs),
(232,-8,o),
(246,-4,o),
(254,-1,c),
(254,264,l),
(173,264,l)
);
}
);
width = 357;
},
{
layerId = UUID1;
shapes = (
{
closed = 1;
nodes = (
(325,522,ls),
(325,579,o),
(289,615,o),
(232,615,cs),
(195,615,l),
(83,577,ls),
(35,561,o),
(10,533,o),
(10,493,cs),
(10,450,o),
(35,428,o),
(55,415,c),
(155,446,l),
(155,131,l),
(325,131,l)
);
},
{
closed = 1;
nodes = (
(155,72,ls),
(155,10,o),
(183,-8,o),
(249,-8,cs),
(281,-8,o),
(310,-3,o),
(325,1,c),
(325,264,l),
(155,264,l)
);
}
);
width = 393;
}
);
unicode = 49;
},
{
glyphname = two;
layers = (
{
layerId = UUID0;
shapes = (
{
closed = 1;
nodes = (
(57,525,o),
(70,511,o),
(85,505,c),
(115,528,o),
(162,552,o),
(221,552,cs),
(307,552,o),
(350,508,o),
(350,445,cs),
(350,388,o),
(324,342,o),
(242,265,cs),
(62,92,ls),
(46,77,o),
(38,61,o),
(38,40,cs),
(38,24,o),
(45,9,o),
(58,0,c),
(411,0,ls),
(430,0,o),
(442,13,o),
(442,34,cs),
(442,48,o),
(437,60,o),
(432,66,c),
(135,66,l),
(298,217,ls),
(397,308,o),
(433,373,o),
(433,446,cs),
(433,552,o),
(355,620,o),
(227,620,cs),
(134,620,o),
(57,581,o),
(57,545,cs),
(57,545,l)
);
}
);
width = 508;
},
{
layerId = UUID1;
shapes = (
{
closed = 1;
nodes = (
(60,488,o),
(77,464,o),
(99,448,c),
(127,467,o),
(170,487,o),
(223,487,cs),
(276,487,o),
(308,464,o),
(308,427,cs),
(308,397,o),
(287,366,o),
(218,307,cs),
(80,189,ls),
(58,170,o),
(35,139,o),
(35,94,cs),
(35,52,o),
(53,20,o),
(82,0,c),
(429,0,ls),
(464,0,o),
(487,19,o),
(487,67,cs),
(487,93,o),
(478,118,o),
(470,132,c),
(230,132,l),
(361,237,ls),
(441,301,o),
(480,366,o),
(480,437,cs),
(480,542,o),
(399,623,o),
(241,623,cs),
(131,623,o),
(60,589,o),
(60,520,cs),
(60,520,l)
);
}
);
width = 522;
}
);
unicode = 50;
},
{
glyphname = three;
layers = (
{
layerId = UUID0;
shapes = (
{
closed = 1;
nodes = (
(120,621,o),
(45,583,o),
(45,547,cs),
(45,529,o),
(58,514,o),
(71,507,c),
(103,529,o),
(152,553,o),
(216,553,cs),
(299,553,o),
(350,518,o),
(350,453,cs),
(350,393,o),
(311,353,o),
(213,353,cs),
(137,353,l),
(132,346,o),
(127,333,o),
(127,319,cs),
(127,306,o),
(132,292,o),
(137,285,c),
(220,285,ls),
(316,285,o),
(368,240,o),
(368,172,cs),
(368,95,o),
(308,57,o),
(220,57,cs),
(140,57,o),
(93,82,o),
(59,109,c),
(43,100,o),
(32,87,o),
(32,68,cs),
(32,28,o),
(110,-11,o),
(220,-11,cs),
(354,-11,o),
(447,50,o),
(447,170,cs),
(447,256,o),
(386,304,o),
(333,321,c),
(369,330,o),
(429,374,o),
(429,455,cs),
(429,565,o),
(343,621,o),
(217,621,cs),
(217,621,l)
);
}
);
width = 506;
},
{
layerId = UUID1;
shapes = (
{
closed = 1;
nodes = (
(117,623,o),
(42,593,o),
(42,526,cs),
(42,494,o),
(59,471,o),
(81,455,c),
(108,473,o),
(150,488,o),
(204,488,cs),
(265,488,o),
(296,464,o),
(296,430,cs),
(296,394,o),
(273,375,o),
(224,375,cs),
(130,375,l),
(120,361,o),
(113,339,o),
(113,308,cs),
(113,279,o),
(121,257,o),
(130,243,c),
(224,243,ls),
(288,243,o),
(311,222,o),
(311,184,cs),
(311,146,o),
(278,119,o),
(211,119,cs),
(139,119,o),
(96,146,o),
(70,164,c),
(45,150,o),
(25,123,o),
(25,87,cs),
(25,27,o),
(97,-16,o),
(235,-16,cs),
(380,-16,o),
(483,54,o),
(483,168,cs),
(483,253,o),
(437,296,o),
(382,316,c),
(429,338,o),
(468,384,o),
(468,448,cs),
(468,554,o),
(385,623,o),
(233,623,cs),
(233,623,l)
);
}
);
width = 518;
}
);
unicode = 51;
},
{
glyphname = four;
layers = (
{
layerId = UUID0;
shapes = (
{
closed = 1;
nodes = (
(29,215,o),
(27,207,o),
(27,195,cs),
(27,173,o),
(39,154,o),
(52,148,c),
(341,148,l),
(341,27,ls),
(341,4,o),
(356,-8,o),
(384,-8,cs),
(399,-8,o),
(412,-4,o),
(419,-2,c),
(419,148,l),
(497,148,ls),
(517,148,o),
(528,161,o),
(528,182,cs),
(528,196,o),
(523,208,o),
(519,215,c),
(419,215,l),
(419,565,ls),
(419,604,o),
(392,614,o),
(364,614,cs),
(352,614,o),
(335,612,o),
(323,609,c),
(32,223,l)
);
},
{
closed = 1;
nodes = (
(120,215,l),
(342,530,l),
(344,530,l),
(342,215,l)
);
}
);
width = 548;
},
{
layerId = UUID1;
shapes = (
{
closed = 1;
nodes = (
(36,272,o),
(31,237,o),
(31,212,cs),
(31,167,o),
(56,135,o),
(87,119,c),
(324,119,l),
(324,63,ls),
(324,-1,o),
(357,-8,o),
(415,-8,cs),
(442,-8,o),
(476,-2,o),
(490,1,c),
(490,119,l),
(527,119,ls),
(562,119,o),
(587,139,o),
(587,189,cs),
(587,216,o),
(577,242,o),
(569,256,c),
(490,256,l),
(490,522,ls),
(490,595,o),
(431,615,o),
(370,615,cs),
(344,615,o),
(307,609,o),
(282,601,c),
(53,294,l)
);
},
{
closed = 1;
nodes = (
(206,256,l),
(330,444,l),
(333,444,l),
(333,256,l)
);
}
);
width = 602;
}
);
unicode = 52;
},
{
glyphname = five;
layers = (
{
layerId = UUID0;
shapes = (
{
closed = 1;
nodes = (
(148,608,ls),
(120,608,o),
(105,590,o),
(103,562,cs),
(86,371,ls),
(85,359,o),
(84,345,o),
(84,337,cs),
(84,306,o),
(108,285,o),
(144,283,c),
(177,302,o),
(215,319,o),
(262,319,cs),
(346,319,o),
(403,271,o),
(403,190,cs),
(403,111,o),
(350,54,o),
(258,54,cs),
(182,54,o),
(128,87,o),
(99,113,c),
(84,107,o),
(67,90,o),
(67,69,cs),
(67,32,o),
(143,-13,o),
(258,-13,cs),
(403,-13,o),
(485,74,o),
(485,190,cs),
(485,317,o),
(391,386,o),
(272,386,cs),
(226,386,o),
(182,372,o),
(160,360,c),
(177,549,l),
(204,608,l)
);
},
{
closed = 1;
nodes = (
(432,540,ls),
(452,540,o),
(463,554,o),
(463,576,cs),
(463,589,o),
(458,602,o),
(454,608,c),
(162,608,l),
(162,540,l)
);
}
);
width = 538;
},
{
layerId = UUID1;
shapes = (
{
closed = 1;
nodes = (
(162,608,ls),
(105,608,o),
(72,572,o),
(68,515,cs),
(56,363,ls),
(55,344,o),
(55,341,o),
(55,337,cs),
(55,270,o),
(96,238,o),
(161,235,c),
(191,249,o),
(211,258,o),
(247,258,cs),
(304,258,o),
(328,230,o),
(328,191,cs),
(328,151,o),
(300,119,o),
(238,119,cs),
(173,119,o),
(134,143,o),
(97,171,c),
(71,157,o),
(45,131,o),
(45,94,cs),
(45,22,o),
(128,-16,o),
(250,-16,cs),
(425,-16,o),
(500,82,o),
(500,192,cs),
(500,302,o),
(436,390,o),
(297,390,cs),
(257,390,o),
(234,384,o),
(209,377,c),
(219,508,l),
(244,608,l)
);
},
{
closed = 1;
nodes = (
(408,471,ls),
(445,471,o),
(468,493,o),
(468,542,cs),
(468,570,o),
(459,593,o),
(450,608,c),
(174,608,l),
(174,471,l)
);
}
);
width = 522;
}
);
unicode = 53;
},
{
glyphname = six;
layers = (
{
layerId = UUID0;
shapes = (
{
closed = 1;
nodes = (
(455,599,o),
(390,620,o),
(321,620,cs),
(187,620,o),
(54,536,o),
(54,285,cs),
(54,73,o),
(154,-13,o),
(288,-13,cs),
(417,-13,o),
(501,63,o),
(501,187,cs),
(501,317,o),
(416,385,o),
(299,385,cs),
(218,385,o),
(161,346,o),
(135,320,c),
(139,478,o),
(219,551,o),
(323,551,cs),
(365,551,o),
(403,538,o),
(432,523,c),
(445,530,o),
(455,545,o),
(455,561,cs),
(455,561,l)
);
},
{
closed = 1;
nodes = (
(191,54,o),
(135,130,o),
(135,244,c),
(132,237,l),
(162,281,o),
(217,317,o),
(290,317,cs),
(363,317,o),
(420,275,o),
(420,189,cs),
(420,103,o),
(365,54,o),
(288,54,cs),
(288,54,l)
);
}
);
width = 550;
},
{
layerId = UUID1;
shapes = (
{
closed = 1;
nodes = (
(483,593,o),
(424,623,o),
(318,623,cs),
(151,623,o),
(35,510,o),
(35,288,cs),
(35,94,o),
(131,-16,o),
(288,-16,cs),
(445,-16,o),
(526,84,o),
(526,199,cs),
(526,330,o),
(447,404,o),
(325,404,cs),
(278,404,o),
(231,386,o),
(204,367,c),
(218,445,o),
(261,489,o),
(340,489,cs),
(373,489,o),
(415,480,o),
(451,464,c),
(468,477,o),
(483,506,o),
(483,534,cs),
(483,534,l)
);
},
{
closed = 1;
nodes = (
(246,119,o),
(212,148,o),
(212,219,c),
(212,244,l),
(229,263,o),
(262,274,o),
(287,274,cs),
(331,274,o),
(355,245,o),
(355,198,cs),
(355,151,o),
(333,119,o),
(289,119,cs),
(289,119,l)
);
}
);
width = 558;
}
);
unicode = 54;
},
{
glyphname = seven;
layers = (
{
layerId = UUID0;
shapes = (
{
closed = 1;
nodes = (
(35,608,o),
(24,594,o),
(24,572,cs),
(24,558,o),
(29,546,o),
(33,540,c),
(349,540,l),
(123,81,ls),
(114,61,o),
(106,47,o),
(106,31,cs),
(106,8,o),
(127,-5,o),
(153,-5,cs),
(161,-5,o),
(168,-5,o),
(176,-4,c),
(427,526,l),
(435,542,o),
(438,555,o),
(438,568,cs),
(438,585,o),
(429,600,o),
(415,608,c),
(55,608,l)
);
}
);
width = 458;
},
{
layerId = UUID1;
shapes = (
{
closed = 1;
nodes = (
(45,608,o),
(20,588,o),
(20,538,cs),
(20,511,o),
(30,485,o),
(38,471,c),
(283,471,l),
(137,172,ls),
(115,127,o),
(100,96,o),
(100,68,cs),
(100,13,o),
(141,-8,o),
(201,-8,cs),
(216,-8,o),
(232,-8,o),
(251,-7,c),
(459,464,l),
(468,485,o),
(472,508,o),
(472,529,cs),
(472,567,o),
(450,593,o),
(428,608,c),
(80,608,l)
);
}
);
width = 482;
}
);
unicode = 55;
},
{
glyphname = eight;
layers = (
{
layerId = UUID0;
shapes = (
{
closed = 1;
nodes = (
(136,313,o),
(59,259,o),
(59,161,cs),
(59,51,o),
(148,-13,o),
(285,-13,cs),
(418,-13,o),
(510,52,o),
(510,160,cs),
(510,261,o),
(431,312,o),
(349,328,c),
(305,343,l),
(222,350,o),
(154,378,o),
(154,454,cs),
(154,514,o),
(206,553,o),
(285,553,cs),
(366,553,o),
(416,516,o),
(416,453,cs),
(416,391,o),
(368,356,o),
(272,338,c),
(212,328,l)
);
},
{
closed = 1;
nodes = (
(431,321,o),
(496,369,o),
(496,453,cs),
(496,557,o),
(415,620,o),
(285,620,cs),
(159,620,o),
(74,556,o),
(74,455,cs),
(74,377,o),
(123,330,o),
(201,309,c),
(252,294,l),
(360,287,o),
(430,240,o),
(430,163,cs),
(430,92,o),
(372,54,o),
(285,54,cs),
(194,54,o),
(139,94,o),
(139,162,cs),
(139,234,o),
(196,279,o),
(282,293,c),
(350,307,l)
);
}
);
width = 569;
},
{
layerId = UUID1;
shapes = (
{
closed = 1;
nodes = (
(115,327,o),
(31,272,o),
(31,168,cs),
(31,52,o),
(133,-18,o),
(281,-18,cs),
(434,-18,o),
(535,52,o),
(535,166,cs),
(535,267,o),
(465,308,o),
(402,330,c),
(301,369,l),
(250,376,o),
(214,398,o),
(214,440,cs),
(214,475,o),
(240,498,o),
(281,498,cs),
(326,498,o),
(352,477,o),
(352,441,cs),
(352,400,o),
(318,377,o),
(262,364,c),
(196,342,l)
);
},
{
closed = 1;
nodes = (
(471,330,o),
(519,373,o),
(519,450,cs),
(519,558,o),
(429,625,o),
(281,625,cs),
(142,625,o),
(47,558,o),
(47,449,cs),
(47,371,o),
(100,320,o),
(184,299,c),
(226,265,l),
(314,260,o),
(365,226,o),
(365,178,cs),
(365,133,o),
(331,110,o),
(281,110,cs),
(233,110,o),
(201,135,o),
(201,178,cs),
(201,220,o),
(235,259,o),
(316,270,c),
(409,307,l)
);
}
);
width = 560;
}
);
unicode = 56;
},
{
glyphname = nine;
layers = (
{
layerId = UUID0;
shapes = (
{
closed = 1;
nodes = (
(82,9,o),
(148,-13,o),
(228,-13,cs),
(389,-13,o),
(498,78,o),
(498,323,cs),
(498,528,o),
(399,620,o),
(262,620,cs),
(144,620,o),
(51,544,o),
(51,418,cs),
(51,278,o),
(151,223,o),
(264,223,cs),
(346,223,o),
(399,263,o),
(417,284,c),
(417,117,o),
(331,56,o),
(227,56,cs),
(171,56,o),
(130,73,o),
(105,88,c),
(92,81,o),
(82,65,o),
(82,49,cs),
(82,49,l)
);
},
{
closed = 1;
nodes = (
(196,290,o),
(132,328,o),
(132,420,cs),
(132,503,o),
(188,553,o),
(262,553,cs),
(360,553,o),
(417,479,o),
(417,361,c),
(418,372,l),
(400,331,o),
(343,290,o),
(275,290,cs),
(275,290,l)
);
}
);
width = 552;
},
{
layerId = UUID1;
shapes = (
{
closed = 1;
nodes = (
(69,14,o),
(134,-16,o),
(240,-16,cs),
(407,-16,o),
(523,97,o),
(523,319,cs),
(523,513,o),
(427,623,o),
(270,623,cs),
(113,623,o),
(32,523,o),
(32,408,cs),
(32,277,o),
(117,209,o),
(237,209,cs),
(284,209,o),
(326,222,o),
(353,243,c),
(354,168,o),
(299,118,o),
(212,118,cs),
(179,118,o),
(137,127,o),
(101,143,c),
(84,130,o),
(69,101,o),
(69,73,cs),
(69,73,l)
);
},
{
closed = 1;
nodes = (
(233,337,o),
(201,365,o),
(201,412,cs),
(201,458,o),
(225,488,o),
(269,488,cs),
(321,488,o),
(347,451,o),
(347,380,c),
(347,367,l),
(330,348,o),
(301,337,o),
(276,337,cs),
(276,337,l)
);
}
);
width = 558;
}
);
unicode = 57;
},
{
glyphname = colon;
kernLeft = colon;
kernRight = colon;
layers = (
{
layerId = UUID0;
shapes = (
{
closed = 1;
nodes = (
(40,360,o),
(60,337,o),
(94,337,cs),
(129,337,o),
(149,360,o),
(149,392,cs),
(149,424,o),
(129,448,o),
(94,448,cs),
(60,448,o),
(40,424,o),
(40,392,cs),
(40,392,l)
);
},
{
closed = 1;
nodes = (
(40,11,o),
(59,-13,o),
(94,-13,cs),
(129,-13,o),
(149,11,o),
(149,42,cs),
(149,74,o),
(129,98,o),
(94,98,cs),
(59,98,o),
(40,74,o),
(40,42,cs),
(40,42,l)
);
}
);
width = 189;
},
{
layerId = UUID1;
shapes = (
{
closed = 1;
nodes = (
(38,340,o),
(76,297,o),
(135,297,cs),
(194,297,o),
(232,340,o),
(232,395,cs),
(232,450,o),
(194,493,o),
(135,493,cs),
(76,493,o),
(38,450,o),
(38,395,cs),
(38,395,l)
);
},
{
closed = 1;
nodes = (
(32,26,o),
(70,-17,o),
(129,-17,cs),
(188,-17,o),
(226,26,o),
(226,81,cs),
(226,136,o),
(188,179,o),
(129,179,cs),
(70,179,o),
(32,136,o),
(32,81,cs),
(32,81,l)
);
}
);
width = 258;
}
);
unicode = 58;
},
{
glyphname = semicolon;
kernLeft = colon;
kernRight = colon;
layers = (
{
layerId = UUID0;
shapes = (
{
closed = 1;
nodes = (
(46,360,o),
(65,337,o),
(100,337,cs),
(135,337,o),
(155,360,o),
(155,392,cs),
(155,424,o),
(135,448,o),
(100,448,cs),
(65,448,o),
(46,424,o),
(46,392,cs),
(46,392,l)
);
},
{
pos = (21,0);
ref = comma;
}
);
width = 202;
},
{
layerId = UUID1;
shapes = (
{
closed = 1;
nodes = (
(38,340,o),
(76,297,o),
(135,297,cs),
(194,297,o),
(232,340,o),
(232,395,cs),
(232,450,o),
(194,493,o),
(135,493,cs),
(76,493,o),
(38,450,o),
(38,395,cs),
(38,395,l)
);
},
{
pos = (13,0);
ref = comma;
}
);
width = 266;
}
);
unicode = 59;
},
{
glyphname = less;
kernLeft = less;
kernRight = less;
layers = (
{
layerId = UUID0;
shapes = (
{
closed = 1;
nodes = (
(402,425,l),
(423,438,o),
(438,449,o),
(438,471,cs),
(438,487,o),
(427,501,o),
(405,509,c),
(71,338,ls),
(61,332,o),
(54,320,o),
(54,300,cs),
(54,287,o),
(58,276,o),
(64,267,c),
(369,101,l),
(382,93,o),
(394,88,o),
(404,88,cs),
(427,88,o),
(441,103,o),
(441,123,cs),
(441,130,o),
(441,134,o),
(440,141,c),
(132,301,l)
);
}
);
width = 473;
},
{
layerId = UUID1;
shapes = (
{
closed = 1;
nodes = (
(391,354,l),
(436,377,o),
(460,398,o),
(460,445,cs),
(460,480,o),
(441,512,o),
(376,529,c),
(77,379,ls),
(47,362,o),
(30,334,o),
(30,278,cs),
(30,242,o),
(39,210,o),
(56,188,c),
(291,69,l),
(332,48,o),
(355,36,o),
(383,36,cs),
(441,36,o),
(460,78,o),
(460,125,cs),
(460,134,o),
(459,146,o),
(457,154,c),
(191,275,l)
);
}
);
width = 490;
}
);
unicode = 60;
},
{
glyphname = equal;
kernLeft = hyphen;
kernRight = hyphen;
layers = (
{
layerId = UUID0;
shapes = (
{
closed = 1;
nodes = (
(454,363,o),
(466,375,o),
(466,397,cs),
(466,410,o),
(463,420,o),
(460,428,c),
(86,428,ls),
(64,428,o),
(51,416,o),
(51,394,cs),
(51,382,o),
(54,371,o),
(58,363,c),
(431,363,l)
);
},
{
closed = 1;
nodes = (
(454,161,o),
(466,173,o),
(466,195,cs),
(466,207,o),
(463,218,o),
(460,226,c),
(86,226,ls),
(64,226,o),
(51,214,o),
(51,192,cs),
(51,179,o),
(54,169,o),
(58,161,c),
(431,161,l)
);
}
);
width = 518;
},
{
layerId = UUID1;
shapes = (
{
closed = 1;
nodes = (
(452,333,o),
(477,351,o),
(477,400,cs),
(477,427,o),
(468,453,o),
(460,467,c),
(93,467,ls),
(57,467,o),
(32,446,o),
(32,397,cs),
(32,370,o),
(40,347,o),
(49,333,c),
(416,333,l)
);
},
{
closed = 1;
nodes = (
(452,124,o),
(477,142,o),
(477,191,cs),
(477,218,o),
(468,244,o),
(460,258,c),
(93,258,ls),
(57,258,o),
(32,237,o),
(32,188,cs),
(32,161,o),
(40,138,o),
(49,124,c),
(416,124,l)
);
}
);
width = 509;
}
);
unicode = 61;
},
{
glyphname = greater;
kernLeft = greater;
kernRight = greater;
layers = (
{
layerId = UUID0;
shapes = (
{
closed = 1;
nodes = (
(71,175,l),
(49,163,o),
(35,151,o),
(35,130,cs),
(35,114,o),
(45,99,o),
(68,92,c),
(392,262,ls),
(402,269,o),
(409,280,o),
(409,300,cs),
(409,313,o),
(405,325,o),
(399,334,c),
(103,500,l),
(90,507,o),
(79,512,o),
(68,512,cs),
(46,512,o),
(32,496,o),
(32,477,cs),
(32,471,o),
(32,466,o),
(33,459,c),
(331,302,l)
);
}
);
width = 460;
},
{
layerId = UUID1;
shapes = (
{
closed = 1;
nodes = (
(103,209,l),
(58,187,o),
(34,165,o),
(34,118,cs),
(34,83,o),
(53,51,o),
(118,34,c),
(413,184,ls),
(443,201,o),
(460,229,o),
(460,285,cs),
(460,321,o),
(451,353,o),
(434,375,c),
(199,492,l),
(165,509,o),
(135,524,o),
(107,524,cs),
(49,524,o),
(30,482,o),
(30,435,cs),
(30,426,o),
(31,414,o),
(33,406,c),
(299,288,l)
);
}
);
width = 491;
}
);
unicode = 62;
},
{
glyphname = question;
layers = (
{
layerId = UUID0;
shapes = (
{
closed = 1;
nodes = (
(351,258,o),
(420,326,o),
(420,438,cs),
(420,547,o),
(330,625,o),
(198,625,cs),
(98,625,o),
(27,591,o),
(27,552,cs),
(27,535,o),
(35,520,o),
(50,509,c),
(82,535,o),
(142,554,o),
(195,554,cs),
(292,554,o),
(337,501,o),
(337,437,cs),
(337,365,o),
(288,322,o),
(200,299,cs),
(131,281,ls),
(104,274,o),
(95,263,o),
(95,244,cs),
(95,227,o),
(103,212,o),
(115,200,c),
(213,224,l)
);
},
{
closed = 1;
nodes = (
(104,13,o),
(126,-11,o),
(160,-11,cs),
(195,-11,o),
(217,13,o),
(217,45,cs),
(217,77,o),
(195,102,o),
(160,102,cs),
(126,102,o),
(104,77,o),
(104,45,cs),
(104,45,l)
);
}
);
width = 459;
},
{
layerId = UUID1;
shapes = (
{
closed = 1;
nodes = (
(387,261,o),
(463,325,o),
(463,441,cs),
(463,554,o),
(381,636,o),
(224,636,cs),
(108,636,o),
(24,604,o),
(24,534,cs),
(24,500,o),
(43,475,o),
(65,458,c),
(94,478,o),
(146,493,o),
(200,493,cs),
(260,493,o),
(282,466,o),
(282,441,cs),
(282,411,o),
(267,398,o),
(232,387,cs),
(154,368,ls),
(111,357,o),
(89,339,o),
(89,298,cs),
(89,256,o),
(113,224,o),
(136,210,c),
(237,230,l)
);
},
{
closed = 1;
nodes = (
(103,22,o),
(140,-17,o),
(199,-17,cs),
(258,-17,o),
(295,22,o),
(295,77,cs),
(295,132,o),
(258,171,o),
(199,171,cs),
(140,171,o),
(103,132,o),
(103,77,cs),
(103,77,l)
);
}
);
width = 498;
}
);
unicode = 63;
},
{
glyphname = at;
layers = (
{
layerId = UUID0;
shapes = (
{
closed = 1;
nodes = (
(380,304,o),
(438,363,o),
(523,363,cs),
(562,363,o),
(593,354,o),
(614,344,c),
(586,60,l),
(665,60,l),
(691,322,ls),
(692,331,o),
(693,343,o),
(693,352,cs),
(693,370,o),
(678,388,o),
(652,401,cs),
(621,417,o),
(574,429,o),
(528,429,cs),
(390,429,o),
(298,344,o),
(298,200,cs),
(298,74,o),
(376,0,o),
(492,0,cs),
(560,0,o),
(604,24,o),
(632,53,c),
(620,127,l),
(585,85,o),
(550,66,o),
(503,66,cs),
(426,66,o),
(380,114,o),
(380,200,cs),
(380,200,l)
);
},
{
closed = 1;
nodes = (
(640,10,o),
(684,-5,o),
(726,-5,cs),
(864,-5,o),
(936,94,o),
(936,266,cs),
(936,498,o),
(776,652,o),
(515,652,cs),
(236,652,o),
(55,474,o),
(55,204,cs),
(55,-56,o),
(226,-221,o),
(480,-221,cs),
(582,-221,o),
(615,-202,o),
(615,-172,cs),
(615,-160,o),
(610,-149,o),
(602,-141,c),
(575,-149,o),
(536,-156,o),
(486,-156,cs),
(275,-156,o),
(134,-14,o),
(134,204,cs),
(134,433,o),
(283,587,o),
(516,587,cs),
(724,587,o),
(857,457,o),
(857,267,cs),
(857,146,o),
(813,61,o),
(726,61,cs),
(690,61,o),
(666,78,o),
(650,91,c),
(632,91,o),
(618,67,o),
(608,37,c),
(608,37,l)
);
}
);
width = 1000;
},
{
layerId = UUID1;
shapes = (
{
closed = 1;
nodes = (
(480,270,o),
(517,309,o),
(563,309,cs),
(586,309,o),
(598,305,o),
(609,299,c),
(585,51,l),
(738,53,l),
(768,308,ls),
(769,315,o),
(769,321,o),
(769,328,cs),
(769,354,o),
(755,378,o),
(730,395,cs),
(693,420,o),
(641,442,o),
(564,442,cs),
(413,442,o),
(311,342,o),
(311,197,cs),
(311,72,o),
(395,0,o),
(515,0,cs),
(586,0,o),
(642,23,o),
(674,57,c),
(634,191,l),
(613,154,o),
(587,128,o),
(544,128,cs),
(511,128,o),
(480,145,o),
(480,198,cs),
(480,198,l)
);
},
{
closed = 1;
nodes = (
(679,6,o),
(732,-5,o),
(772,-5,cs),
(935,-5,o),
(1029,98,o),
(1029,276,cs),
(1029,512,o),
(836,663,o),
(561,663,cs),
(273,663,o),
(49,488,o),
(49,204,cs),
(49,-105,o),
(292,-227,o),
(497,-227,cs),
(618,-227,o),
(651,-195,o),
(651,-140,cs),
(651,-122,o),
(642,-98,o),
(633,-83,c),
(604,-87,o),
(568,-94,o),
(509,-94,cs),
(337,-94,o),
(210,20,o),
(210,204,cs),
(210,394,o),
(353,535,o),
(562,535,cs),
(741,535,o),
(869,430,o),
(869,277,cs),
(869,187,o),
(832,124,o),
(772,124,cs),
(765,124,o),
(752,126,o),
(747,128,c),
(682,128,o),
(640,78,o),
(640,30,c),
(640,30,l)
);
}
);
width = 1069;
}
);
unicode = 64;
},
{
glyphname = A;
kernLeft = A;
kernRight = A;
layers = (
{
anchors = (
{
name = bottom;
pos = (296,0);
},
{
name = ogonek;
pos = (588,17);
},
{
name = top;
pos = (296,602);
}
);
layerId = UUID0;
shapes = (
{
closed = 1;
nodes = (
(321,478,o),
(369,341,o),
(410,220,c),
(418,192,l),
(473,29,ls),
(482,2,o),
(494,-8,o),
(519,-8,cs),
(538,-8,o),
(553,0,o),
(563,12,c),
(510,175,o),
(421,432,o),
(357,587,cs),
(350,606,o),
(322,613,o),
(295,613,cs),
(272,613,o),
(248,606,o),
(238,601,c),
(174,440,o),
(79,179,o),
(40,67,cs),
(35,52,o),
(30,40,o),
(30,28,cs),
(30,3,o),
(50,-8,o),
(71,-8,cs),
(85,-8,o),
(95,-6,o),
(104,-2,c),
(118,40,o),
(156,148,o),
(171,196,c),
(176,211,l),
(213,317,o),
(263,461,o),
(294,545,c),
(298,545,l)
);
},
{
closed = 1;
nodes = (
(453,162,l),
(437,229,l),
(158,229,l),
(132,162,l)
);
}
);
width = 592;
},
{
anchors = (
{
name = bottom;
pos = (314,0);
},
{
name = ogonek;
pos = (622,10);
},
{
name = top;
pos = (318,606);
}
);
layerId = UUID1;
shapes = (
{
closed = 1;
nodes = (
(336,405,o),
(356,333,o),
(376,256,c),
(396,153,l),
(421,57,ls),
(433,11,o),
(452,-10,o),
(517,-10,cs),
(561,-10,o),
(594,3,o),
(610,21,c),
(569,169,o),
(500,418,o),
(453,555,cs),
(439,597,o),
(381,616,o),
(315,616,cs),
(269,616,o),
(216,601,o),
(194,588,c),
(166,517,o),
(64,223,o),
(36,116,cs),
(29,91,o),
(23,74,o),
(23,55,cs),
(23,14,o),
(56,-11,o),
(123,-11,cs),
(152,-11,o),
(172,-5,o),
(190,1,c),
(200,41,o),
(211,86,o),
(226,140,c),
(248,253,l),
(270,331,o),
(296,403,o),
(314,459,c),
(320,459,l)
);
},
{
closed = 1;
nodes = (
(461,126,l),
(440,261,l),
(220,261,l),
(151,126,l)
);
}
);
width = 627;
}
);
unicode = 65;
},
{
glyphname = B;
kernLeft = B;
layers = (
{
layerId = UUID0;
shapes = (
{
closed = 1;
nodes = (
(145,349,l),
(145,283,l),
(420,283,l),
(420,349,l)
);
},
{
closed = 1;
nodes = (
(405,283,o),
(457,239,o),
(457,170,cs),
(457,92,o),
(398,56,o),
(288,56,cs),
(245,56,o),
(201,60,o),
(169,67,c),
(169,543,l),
(198,548,o),
(231,552,o),
(277,552,cs),
(380,552,o),
(433,519,o),
(433,453,cs),
(433,388,o),
(387,349,o),
(299,349,c),
(308,299,l),
(459,299,o),
(516,370,o),
(516,455,cs),
(516,566,o),
(427,619,o),
(277,619,cs),
(218,619,o),
(167,615,o),
(122,602,cs),
(100,596,o),
(89,585,o),
(89,564,cs),
(89,52,ls),
(89,30,o),
(102,14,o),
(131,6,cs),
(179,-7,o),
(233,-11,o),
(288,-11,cs),
(449,-11,o),
(540,47,o),
(540,168,cs),
(540,259,o),
(473,333,o),
(337,333,c),
(305,283,l)
);
}
);
width = 599;
},
{
layerId = UUID1;
shapes = (
{
closed = 1;
nodes = (
(173,369,l),
(173,247,l),
(379,247,l),
(379,369,l)
);
},
{
closed = 1;
nodes = (
(376,247,o),
(406,230,o),
(406,186,cs),
(406,139,o),
(366,118,o),
(313,118,cs),
(287,118,o),
(253,120,o),
(235,125,c),
(235,487,l),
(249,489,o),
(280,491,o),
(300,491,cs),
(360,491,o),
(390,468,o),
(390,432,cs),
(390,391,o),
(365,369,o),
(308,369,c),
(314,297,l),
(467,297,o),
(564,347,o),
(564,447,cs),
(564,566,o),
(467,623,o),
(298,623,cs),
(227,623,o),
(153,616,o),
(108,600,cs),
(82,591,o),
(65,577,o),
(65,549,cs),
(65,82,ls),
(65,46,o),
(84,23,o),
(120,9,cs),
(173,-11,o),
(254,-16,o),
(300,-16,cs),
(483,-16,o),
(585,47,o),
(585,178,cs),
(585,283,o),
(497,341,o),
(322,341,c),
(317,247,l)
);
}
);
width = 619;
}
);
unicode = 66;
},
{
glyphname = C;
kernLeft = O;
kernRight = C;
layers = (
{
anchors = (
{
name = bottom;
pos = (339,0);
},
{
name = top;
pos = (334,602);
}
);
layerId = UUID0;
shapes = (
{
closed = 1;
nodes = (
(533,579,o),
(457,621,o),
(347,621,cs),
(189,621,o),
(54,513,o),
(54,303,cs),
(54,93,o),
(183,-13,o),
(350,-13,cs),
(432,-13,o),
(484,7,o),
(515,28,cs),
(532,40,o),
(539,52,o),
(539,66,cs),
(539,85,o),
(524,100,o),
(511,105,c),
(477,79,o),
(425,56,o),
(356,56,cs),
(226,56,o),
(138,139,o),
(138,303,cs),
(138,467,o),
(231,552,o),
(353,552,cs),
(427,552,o),
(471,526,o),
(505,502,c),
(520,508,o),
(533,523,o),
(533,541,cs),
(533,541,l)
);
}
);
width = 588;
},
{
anchors = (
{
name = bottom;
pos = (338,0);
},
{
name = top;
pos = (338,606);
}
);
layerId = UUID1;
shapes = (
{
closed = 1;
nodes = (
(541,580,o),
(470,625,o),
(348,625,cs),
(175,625,o),
(35,510,o),
(35,303,cs),
(35,80,o),
(178,-18,o),
(359,-18,cs),
(421,-18,o),
(466,-5,o),
(490,6,cs),
(528,23,o),
(543,49,o),
(543,80,cs),
(543,114,o),
(529,141,o),
(507,159,c),
(472,140,o),
(437,123,o),
(383,123,cs),
(278,123,o),
(215,185,o),
(215,303,cs),
(215,417,o),
(272,484,o),
(374,484,cs),
(426,484,o),
(464,465,o),
(498,443,c),
(520,458,o),
(541,484,o),
(541,518,cs),
(541,518,l)
);
}
);
width = 571;
}
);
unicode = 67;
},
{
glyphname = D;
kernLeft = B;
kernRight = O;
layers = (
{
anchors = (
{
name = bottom;
pos = (306,0);
},
{
name = center;
pos = (326,301);
},
{
name = top;
pos = (306,602);
}
);
layerId = UUID0;
shapes = (
{
closed = 1;
nodes = (
(515,482,o),
(404,551,o),
(269,551,cs),
(227,551,o),
(197,548,o),
(170,543,c),
(170,67,l),
(202,59,o),
(239,57,o),
(278,57,cs),
(434,57,o),
(515,144,o),
(515,311,cs),
(515,311,l)
);
},
{
closed = 1;
nodes = (
(598,93,o),
(473,-11,o),
(279,-11,cs),
(237,-11,o),
(179,-10,o),
(131,5,cs),
(102,14,o),
(89,29,o),
(89,51,cs),
(89,565,ls),
(89,586,o),
(100,596,o),
(122,603,cs),
(163,616,o),
(218,619,o),
(270,619,cs),
(465,619,o),
(598,516,o),
(598,311,cs),
(598,311,l)
);
}
);
width = 652;
},
{
anchors = (
{
name = bottom;
pos = (322,0);
},
{
name = center;
pos = (333,303);
},
{
name = top;
pos = (322,606);
}
);
layerId = UUID1;
shapes = (
{
closed = 1;
nodes = (
(451,420,o),
(390,482,o),
(297,482,cs),
(278,482,o),
(259,481,o),
(239,478,c),
(239,130,l),
(253,127,o),
(278,125,o),
(296,125,cs),
(387,125,o),
(451,184,o),
(451,301,cs),
(451,301,l)
);
},
{
closed = 1;
nodes = (
(631,90,o),
(496,-16,o),
(295,-16,cs),
(249,-16,o),
(173,-11,o),
(120,9,cs),
(84,23,o),
(65,46,o),
(65,82,cs),
(65,549,ls),
(65,577,o),
(82,591,o),
(108,600,cs),
(165,619,o),
(234,623,o),
(285,623,cs),
(492,623,o),
(631,522,o),
(631,304,cs),
(631,304,l)
);
}
);
width = 666;
}
);
unicode = 68;
},
{
glyphname = E;
kernRight = E;
layers = (
{
anchors = (
{
name = bottom;
pos = (292,0);
},
{
name = ogonek;
pos = (497,17);
},
{
name = top;
pos = (292,602);
},
{
name = topleft;
pos = (20,602);
}
);
layerId = UUID0;
shapes = (
{
closed = 1;
nodes = (
(89,44,ls),
(89,18,o),
(106,0,o),
(133,0,cs),
(148,0,o),
(164,6,o),
(170,8,c),
(170,366,l),
(89,366,l)
);
},
{
closed = 1;
nodes = (
(170,600,l),
(164,602,o),
(148,608,o),
(133,608,cs),
(106,608,o),
(89,590,o),
(89,564,cs),
(89,249,l),
(170,248,l)
);
},
{
closed = 1;
nodes = (
(412,278,ls),
(432,278,o),
(443,292,o),
(443,314,cs),
(443,327,o),
(438,340,o),
(434,346,c),
(133,346,l),
(133,278,l)
);
},
{
closed = 1;
nodes = (
(448,0,ls),
(468,0,o),
(479,14,o),
(479,36,cs),
(479,50,o),
(474,62,o),
(470,68,c),
(133,68,l),
(133,0,l)
);
},
{
closed = 1;
nodes = (
(443,539,ls),
(463,539,o),
(474,554,o),
(474,576,cs),
(474,589,o),
(469,602,o),
(465,608,c),
(133,608,l),
(133,539,l)
);
}
);
width = 531;
},
{
anchors = (
{
name = bottom;
pos = (288,0);
},
{
name = ogonek;
pos = (507,10);
},
{
name = top;
pos = (288,606);
},
{
name = topleft;
pos = (20,606);
}
);
layerId = UUID1;
shapes = (
{
closed = 1;
nodes = (
(65,90,ls),
(65,33,o),
(101,-3,o),
(158,-3,cs),
(190,-3,o),
(220,2,o),
(235,6,c),
(235,442,l),
(65,442,l)
);
},
{
closed = 1;
nodes = (
(235,597,l),
(220,601,o),
(190,606,o),
(158,606,cs),
(101,606,o),
(65,570,o),
(65,513,cs),
(65,161,l),
(235,161,l)
);
},
{
closed = 1;
nodes = (
(418,240,ls),
(455,240,o),
(478,261,o),
(478,310,cs),
(478,338,o),
(469,361,o),
(460,376,c),
(158,376,l),
(158,240,l)
);
},
{
closed = 1;
nodes = (
(450,-3,ls),
(487,-3,o),
(510,18,o),
(510,67,cs),
(510,95,o),
(501,120,o),
(492,135,c),
(158,135,l),
(158,-3,l)
);
},
{
closed = 1;
nodes = (
(446,469,ls),
(483,469,o),
(506,491,o),
(506,540,cs),
(506,568,o),
(497,591,o),
(488,606,c),
(158,606,l),
(158,469,l)
);
}
);
width = 548;
}
);
unicode = 69;
},
{
glyphname = F;
kernRight = F;
layers = (
{
layerId = UUID0;
shapes = (
{
closed = 1;
nodes = (
(170,600,l),
(164,602,o),
(148,608,o),
(133,608,cs),
(106,608,o),
(89,590,o),
(89,564,cs),
(89,247,l),
(170,246,l)
);
},
{
closed = 1;
nodes = (
(408,262,ls),
(428,262,o),
(439,277,o),
(439,299,cs),
(439,312,o),
(434,324,o),
(430,331,c),
(133,331,l),
(133,262,l)
);
},
{
closed = 1;
nodes = (
(443,539,ls),
(463,539,o),
(474,554,o),
(474,576,cs),
(474,589,o),
(469,602,o),
(465,608,c),
(133,608,l),
(133,539,l)
);
},
{
closed = 1;
nodes = (
(89,31,ls),
(89,7,o),
(104,-5,o),
(134,-5,cs),
(149,-5,o),
(164,-1,o),
(171,1,c),
(171,356,l),
(89,356,l)
);
}
);
width = 517;
},
{
layerId = UUID1;
shapes = (
{
closed = 1;
nodes = (
(238,597,l),
(223,601,o),
(190,606,o),
(158,606,cs),
(101,606,o),
(65,570,o),
(65,513,cs),
(65,250,l),
(238,250,l)
);
},
{
closed = 1;
nodes = (
(415,215,ls),
(452,215,o),
(476,236,o),
(476,286,cs),
(476,314,o),
(466,338,o),
(457,353,c),
(156,353,l),
(156,215,l)
);
},
{
closed = 1;
nodes = (
(448,466,ls),
(485,466,o),
(509,488,o),
(509,538,cs),
(509,566,o),
(500,591,o),
(491,606,c),
(158,606,l),
(158,466,l)
);
},
{
closed = 1;
nodes = (
(65,75,ls),
(65,13,o),
(89,-8,o),
(159,-8,cs),
(191,-8,o),
(225,-3,o),
(240,1,c),
(240,293,l),
(65,293,l)
);
}
);
width = 531;
}
);
unicode = 70;
},
{
glyphname = G;
kernLeft = O;
kernRight = G;
layers = (
{
anchors = (
{
name = bottom;
pos = (344,0);
},
{
name = top;
pos = (344,602);
}
);
layerId = UUID0;
shapes = (
{
closed = 1;
nodes = (
(570,312,o),
(551,329,o),
(527,329,cs),
(360,329,ls),
(340,329,o),
(329,315,o),
(329,293,cs),
(329,280,o),
(334,267,o),
(338,261,c),
(489,261,l),
(489,77,l),
(465,65,o),
(419,56,o),
(371,56,cs),
(238,56,o),
(138,131,o),
(138,303,cs),
(138,467,o),
(235,552,o),
(362,552,cs),
(439,552,o),
(485,527,o),
(521,503,c),
(536,510,o),
(548,524,o),
(548,542,cs),
(548,580,o),
(470,621,o),
(357,621,cs),
(192,621,o),
(54,517,o),
(54,303,cs),
(54,87,o),
(183,-13,o),
(370,-13,cs),
(430,-13,o),
(495,0,o),
(528,17,cs),
(556,30,o),
(570,46,o),
(570,70,cs),
(570,287,l)
);
}
);
width = 639;
},
{
anchors = (
{
name = bottom;
pos = (352,0);
},
{
name = top;
pos = (355,606);
}
);
layerId = UUID1;
shapes = (
{
closed = 1;
nodes = (
(614,343,o),
(591,366,o),
(551,366,cs),
(382,366,ls),
(347,366,o),
(323,346,o),
(323,298,cs),
(323,271,o),
(332,246,o),
(340,231,c),
(447,231,l),
(447,135,l),
(435,129,o),
(412,122,o),
(383,122,cs),
(285,122,o),
(215,182,o),
(215,303,cs),
(215,413,o),
(288,484,o),
(395,484,cs),
(460,484,o),
(512,461,o),
(545,441,c),
(567,456,o),
(588,482,o),
(588,516,cs),
(588,581,o),
(508,625,o),
(382,625,cs),
(188,625,o),
(35,512,o),
(35,302,cs),
(35,77,o),
(188,-18,o),
(380,-18,cs),
(451,-18,o),
(531,0,o),
(568,22,cs),
(600,41,o),
(614,56,o),
(614,97,cs),
(614,303,l)
);
}
);
width = 664;
}
);
unicode = 71;
},
{
glyphname = H;
layers = (
{
anchors = (
{
name = bottom;
pos = (327,0);
},
{
name = center;
pos = (327,301);
},
{
name = top;
pos = (327,602);
},
{
name = topleft;
pos = (20,602);
}
);
layerId = UUID0;
shapes = (
{
closed = 1;
nodes = (
(89,32,ls),
(89,6,o),
(103,-5,o),
(133,-5,cs),
(149,-5,o),
(163,-1,o),
(171,2,c),
(171,362,l),
(89,362,l)
);
},
{
closed = 1;
nodes = (
(171,576,ls),
(171,602,o),
(156,613,o),
(127,613,cs),
(111,613,o),
(96,609,o),
(89,606,c),
(89,295,l),
(171,295,l)
);
},
{
closed = 1;
nodes = (
(483,32,ls),
(483,6,o),
(497,-5,o),
(527,-5,cs),
(543,-5,o),
(557,-1,o),
(565,2,c),
(565,362,l),
(483,362,l)
);
},
{
closed = 1;
nodes = (
(565,576,ls),
(565,602,o),
(550,613,o),
(521,613,cs),
(505,613,o),
(490,609,o),
(483,606,c),
(483,295,l),
(565,295,l)
);
},
{
closed = 1;
nodes = (
(526,342,l),
(138,342,l),
(138,274,l),
(526,274,l)
);
}
);
width = 654;
},
{
anchors = (
{
name = bottom;
pos = (336,0);
},
{
name = center;
pos = (336,303);
},
{
name = top;
pos = (336,606);
},
{
name = topleft;
pos = (20,606);
}
);
layerId = UUID1;
shapes = (
{
closed = 1;
nodes = (
(65,75,ls),
(65,13,o),
(89,-8,o),
(159,-8,cs),
(191,-8,o),
(225,-3,o),
(240,1,c),
(240,442,l),
(65,442,l)
);
},
{
closed = 1;
nodes = (
(240,534,ls),
(240,599,o),
(212,617,o),
(146,617,cs),
(116,617,o),
(81,611,o),
(65,608,c),
(65,211,l),
(240,211,l)
);
},
{
closed = 1;
nodes = (
(432,75,ls),
(432,13,o),
(456,-8,o),
(526,-8,cs),
(558,-8,o),
(592,-3,o),
(607,1,c),
(607,442,l),
(432,442,l)
);
},
{
closed = 1;
nodes = (
(607,532,ls),
(607,597,o),
(579,617,o),
(513,617,cs),
(483,617,o),
(448,611,o),
(432,608,c),
(432,211,l),
(607,211,l)
);
},
{
closed = 1;
nodes = (
(533,372,l),
(140,372,l),
(140,234,l),
(533,234,l)
);
}
);
width = 672;
}
);
unicode = 72;
},
{
glyphname = I;
layers = (
{
anchors = (
{
name = bottom;
pos = (131,0);
},
{
name = ogonek;
pos = (236,10);
},
{
name = top;
pos = (131,602);
},
{
name = topleft;
pos = (20,602);
}
);
layerId = UUID0;
shapes = (
{
closed = 1;
nodes = (
(90,32,ls),
(90,6,o),
(104,-5,o),
(134,-5,cs),
(150,-5,o),
(164,-1,o),
(171,2,c),
(171,363,l),
(90,363,l)
);
},
{
closed = 1;
nodes = (
(171,576,ls),
(171,602,o),
(157,613,o),
(128,613,cs),
(112,613,o),
(97,609,o),
(90,606,c),
(90,296,l),
(171,296,l)
);
}
);
width = 262;
},
{
anchors = (
{
name = bottom;
pos = (153,0);
},
{
name = ogonek;
pos = (275,10);
},
{
name = top;
pos = (153,606);
},
{
name = topleft;
pos = (20,606);
}
);
layerId = UUID1;
shapes = (
{
closed = 1;
nodes = (
(65,75,ls),
(65,13,o),
(89,-8,o),
(159,-8,cs),
(191,-8,o),
(225,-3,o),
(240,1,c),
(240,442,l),
(65,442,l)
);
},
{
closed = 1;
nodes = (
(240,534,ls),
(240,599,o),
(212,617,o),
(146,617,cs),
(116,617,o),
(81,611,o),
(65,608,c),
(65,211,l),
(240,211,l)
);
}
);
width = 305;
}
);
unicode = 73;
},
{
glyphname = J;
kernLeft = J;
layers = (
{
anchors = (
{
name = bottom;
pos = (193,0);
},
{
name = top;
pos = (252,602);
}
);
layerId = UUID0;
shapes = (
{
closed = 1;
nodes = (
(215,152,ls),
(215,85,o),
(182,58,o),
(122,58,cs),
(92,58,o),
(62,68,o),
(42,77,c),
(35,70,o),
(25,56,o),
(25,38,cs),
(25,9,o),
(59,-11,o),
(134,-11,cs),
(220,-11,o),
(296,27,o),
(296,148,cs),
(296,289,l),
(215,289,l)
);
},
{
closed = 1;
nodes = (
(296,576,ls),
(296,602,o),
(281,613,o),
(252,613,cs),
(237,613,o),
(222,609,o),
(215,606,c),
(215,265,l),
(296,265,l)
);
}
);
width = 385;
},
{
anchors = (
{
name = bottom;
pos = (206,0);
},
{
name = top;
pos = (256,606);
}
);
layerId = UUID1;
shapes = (
{
closed = 1;
nodes = (
(175,203,ls),
(175,152,o),
(154,126,o),
(102,126,cs),
(81,126,o),
(65,128,o),
(40,133,c),
(30,121,o),
(21,100,o),
(21,74,cs),
(21,7,o),
(78,-15,o),
(149,-15,cs),
(280,-15,o),
(350,62,o),
(350,180,cs),
(350,290,l),
(175,290,l)
);
},
{
closed = 1;
nodes = (
(350,534,ls),
(350,599,o),
(322,617,o),
(256,617,cs),
(226,617,o),
(191,611,o),
(175,608,c),
(175,213,l),
(350,213,l)
);
}
);
width = 412;
}
);
unicode = 74;
},
{
glyphname = K;
kernRight = K;
layers = (
{
anchors = (
{
name = bottom;
pos = (283,0);
},
{
name = top;
pos = (283,602);
}
);
layerId = UUID0;
shapes = (
{
closed = 1;
nodes = (
(426,26,ls),
(444,8,o),
(461,-7,o),
(484,-7,cs),
(508,-7,o),
(525,11,o),
(527,40,c),
(456,104,o),
(356,214,o),
(215,350,c),
(152,310,l)
);
},
{
closed = 1;
nodes = (
(471,523,ls),
(489,539,o),
(498,554,o),
(498,571,cs),
(498,592,o),
(481,611,o),
(446,612,c),
(145,300,l),
(226,282,l)
);
},
{
closed = 1;
nodes = (
(89,31,ls),
(89,5,o),
(103,-6,o),
(133,-6,cs),
(149,-6,o),
(163,-2,o),
(171,1,c),
(171,367,l),
(89,367,l)
);
},
{
closed = 1;
nodes = (
(171,576,ls),
(171,602,o),
(156,613,o),
(127,613,cs),
(111,613,o),
(96,609,o),
(89,606,c),
(89,300,l),
(171,300,l)
);
}
);
width = 566;
},
{
anchors = (
{
name = bottom;
pos = (308,0);
},
{
name = top;
pos = (308,606);
}
);
layerId = UUID1;
shapes = (
{
closed = 1;
nodes = (
(385,58,ls),
(417,21,o),
(447,-11,o),
(502,-11,cs),
(552,-11,o),
(598,23,o),
(598,81,c),
(549,134,o),
(461,226,o),
(359,340,c),
(155,326,l)
);
},
{
closed = 1;
nodes = (
(520,425,ls),
(559,464,o),
(575,491,o),
(575,526,cs),
(575,573,o),
(539,612,o),
(448,612,c),
(131,248,l),
(360,265,l)
);
},
{
closed = 1;
nodes = (
(65,75,ls),
(65,13,o),
(89,-8,o),
(159,-8,cs),
(191,-8,o),
(225,-3,o),
(240,1,c),
(240,442,l),
(65,442,l)
);
},
{
closed = 1;
nodes = (
(240,534,ls),
(240,599,o),
(212,617,o),
(146,617,cs),
(116,617,o),
(81,611,o),
(65,608,c),
(65,211,l),
(240,211,l)
);
}
);
width = 615;
}
);
unicode = 75;
},
{
glyphname = L;
kernRight = L;
layers = (
{
anchors = (
{
name = bottom;
pos = (279,0);
},
{
name = center;
pos = (251,301);
},
{
name = top;
pos = (131,602);
},
{
name = topright;
pos = (481,602);
}
);
layerId = UUID0;
shapes = (
{
closed = 1;
nodes = (
(89,44,ls),
(89,18,o),
(108,0,o),
(133,0,c),
(171,8,l),
(171,355,l),
(89,355,l)
);
},
{
closed = 1;
nodes = (
(436,0,ls),
(456,0,o),
(469,14,o),
(469,37,cs),
(469,51,o),
(464,64,o),
(458,70,c),
(133,70,l),
(133,0,l)
);
},
{
closed = 1;
nodes = (
(171,576,ls),
(171,602,o),
(156,613,o),
(127,613,cs),
(111,613,o),
(96,609,o),
(89,606,c),
(89,295,l),
(171,295,l)
);
}
);
width = 501;
},
{
anchors = (
{
name = bottom;
pos = (257,0);
},
{
name = center;
pos = (257,303);
},
{
name = top;
pos = (146,606);
},
{
name = topright;
pos = (493,606);
}
);
layerId = UUID1;
shapes = (
{
closed = 1;
nodes = (
(65,90,ls),
(65,33,o),
(101,-3,o),
(158,-3,c),
(240,6,l),
(240,442,l),
(65,442,l)
);
},
{
closed = 1;
nodes = (
(428,-3,ls),
(465,-3,o),
(488,21,o),
(488,70,cs),
(488,98,o),
(478,123,o),
(469,138,c),
(158,138,l),
(158,-3,l)
);
},
{
closed = 1;
nodes = (
(240,534,ls),
(240,599,o),
(212,617,o),
(146,617,cs),
(116,617,o),
(81,611,o),
(65,608,c),
(65,211,l),
(240,211,l)
);
}
);
width = 513;
}
);
unicode = 76;
},
{
glyphname = M;
kernLeft = M;
kernRight = M;
layers = (
{
anchors = (
{
name = bottom;
pos = (390,0);
},
{
name = top;
pos = (390,602);
}
);
layerId = UUID0;
shapes = (
{
closed = 1;
nodes = (
(514,340,o),
(563,449,o),
(592,523,c),
(596,523,l),
(601,423,o),
(612,223,o),
(624,29,cs),
(626,2,o),
(644,-6,o),
(664,-6,cs),
(681,-6,o),
(694,-2,o),
(706,6,c),
(700,117,o),
(674,509,o),
(657,579,cs),
(652,601,o),
(634,611,o),
(603,611,cs),
(587,611,o),
(566,607,o),
(554,601,c),
(514,509,o),
(451,371,o),
(393,230,c),
(389,230,l),
(343,336,o),
(289,471,o),
(238,574,cs),
(226,599,o),
(205,611,o),
(174,611,cs),
(149,611,o),
(128,601,o),
(117,592,c),
(100,405,o),
(79,70,o),
(79,29,cs),
(79,7,o),
(90,-6,o),
(119,-6,cs),
(134,-6,o),
(147,-3,o),
(155,0,c),
(167,193,o),
(176,324,o),
(185,525,c),
(189,525,l),
(221,444,o),
(274,315,o),
(345,166,cs),
(352,151,o),
(370,145,o),
(391,145,cs),
(410,145,o),
(426,151,o),
(435,158,c),
(435,158,l)
);
}
);
width = 780;
},
{
anchors = (
{
name = bottom;
pos = (399,0);
},
{
name = top;
pos = (399,606);
}
);
layerId = UUID1;
shapes = (
{
closed = 1;
nodes = (
(520,272,o),
(546,346,o),
(559,398,c),
(564,398,l),
(568,320,o),
(568,201,o),
(576,56,cs),
(579,5,o),
(618,-8,o),
(668,-8,cs),
(707,-8,o),
(728,-2,o),
(751,11,c),
(746,109,o),
(717,473,o),
(702,554,cs),
(695,590,o),
(651,610,o),
(586,610,cs),
(548,610,o),
(515,601,o),
(495,591,c),
(469,521,o),
(435,408,o),
(403,297,c),
(398,297,l),
(376,367,o),
(343,476,o),
(319,540,cs),
(301,589,o),
(262,610,o),
(192,610,cs),
(127,610,o),
(92,584,o),
(81,567,c),
(71,397,o),
(52,140,o),
(52,57,cs),
(52,8,o),
(87,-8,o),
(145,-8,cs),
(173,-8,o),
(204,-2,o),
(221,4,c),
(229,155,o),
(226,246,o),
(234,403,c),
(239,403,l),
(252,348,o),
(276,283,o),
(313,165,cs),
(322,136,o),
(355,125,o),
(403,125,cs),
(439,125,o),
(467,135,o),
(484,149,c),
(484,149,l)
);
}
);
width = 797;
}
);
unicode = 77;
},
{
glyphname = N;
layers = (
{
anchors = (
{
name = bottom;
pos = (330,0);
},
{
name = top;
pos = (330,602);
}
);
layerId = UUID0;
shapes = (
{
closed = 1;
nodes = (
(89,31,ls),
(89,6,o),
(103,-5,o),
(133,-5,cs),
(148,-5,o),
(163,-1,o),
(170,2,c),
(170,301,ls),
(170,381,o),
(165,482,o),
(157,545,c),
(89,539,l)
);
},
{
closed = 1;
nodes = (
(571,577,ls),
(571,602,o),
(556,613,o),
(527,613,cs),
(511,613,o),
(497,609,o),
(489,606,c),
(489,404,ls),
(489,295,o),
(489,175,o),
(502,63,c),
(571,69,l)
);
},
{
closed = 1;
nodes = (
(496,80,l),
(478,118,o),
(438,195,o),
(406,250,cs),
(215,570,ls),
(196,603,o),
(175,614,o),
(143,614,cs),
(120,614,o),
(100,607,o),
(89,596,c),
(89,509,l),
(163,528,l),
(181,490,o),
(224,412,o),
(255,358,cs),
(445,38,ls),
(464,5,o),
(485,-6,o),
(517,-6,cs),
(540,-6,o),
(559,1,o),
(571,11,c),
(571,103,l),
(571,99,l)
);
}
);
width = 660;
},
{
anchors = (
{
name = bottom;
pos = (340,0);
},
{
name = top;
pos = (340,606);
}
);
layerId = UUID1;
shapes = (
{
closed = 1;
nodes = (
(65,72,ls),
(65,12,o),
(88,-8,o),
(155,-8,cs),
(186,-8,o),
(219,-3,o),
(233,0,c),
(233,159,ls),
(233,230,o),
(234,307,o),
(226,400,c),
(65,400,l)
);
},
{
closed = 1;
nodes = (
(614,537,ls),
(614,597,o),
(591,617,o),
(524,617,cs),
(493,617,o),
(460,612,o),
(446,609,c),
(446,451,ls),
(446,380,o),
(445,303,o),
(453,210,c),
(614,210,l)
);
},
{
closed = 1;
nodes = (
(447,227,l),
(428,275,o),
(414,308,o),
(394,349,cs),
(294,551,ls),
(267,606,o),
(219,615,o),
(170,615,cs),
(126,615,o),
(83,601,o),
(65,575,c),
(65,343,l),
(234,380,l),
(253,332,o),
(267,299,o),
(287,258,cs),
(386,56,ls),
(414,0,o),
(461,-8,o),
(510,-8,cs),
(559,-8,o),
(595,3,o),
(614,21,c),
(614,390,l),
(614,264,l)
);
}
);
width = 679;
}
);
unicode = 78;
},
{
glyphname = O;
kernLeft = O;
kernRight = O;
layers = (
{
anchors = (
{
name = bottom;
pos = (345,0);
},
{
name = center;
pos = (345,301);
},
{
name = ogonek;
pos = (436,10);
},
{
name = top;
pos = (345,602);
},
{
name = topleft;
pos = (20,602);
},
{
name = topright;
pos = (506,602);
}
);
layerId = UUID0;
shapes = (
{
closed = 1;
nodes = (
(634,511,o),
(507,621,o),
(344,621,cs),
(182,621,o),
(54,511,o),
(54,304,cs),
(54,96,o),
(179,-13,o),
(344,-13,cs),
(510,-13,o),
(634,96,o),
(634,304,cs),
(634,304,l)
);
},
{
closed = 1;
nodes = (
(551,145,o),
(470,56,o),
(344,56,cs),
(219,56,o),
(138,145,o),
(138,304,cs),
(138,463,o),
(220,552,o),
(344,552,cs),
(469,552,o),
(551,463,o),
(551,304,cs),
(551,304,l)
);
}
);
width = 689;
},
{
anchors = (
{
name = bottom;
pos = (352,0);
},
{
name = center;
pos = (352,303);
},
{
name = ogonek;
pos = (476,10);
},
{
name = top;
pos = (352,606);
},
{
name = topleft;
pos = (20,606);
},
{
name = topright;
pos = (537,606);
}
);
layerId = UUID1;
shapes = (
{
closed = 1;
nodes = (
(668,512,o),
(529,625,o),
(351,625,cs),
(173,625,o),
(35,512,o),
(35,304,cs),
(35,96,o),
(169,-18,o),
(351,-18,cs),
(533,-18,o),
(668,95,o),
(668,304,cs),
(668,304,l)
);
},
{
closed = 1;
nodes = (
(488,183,o),
(434,123,o),
(352,123,cs),
(269,123,o),
(215,183,o),
(215,304,cs),
(215,424,o),
(270,484,o),
(351,484,cs),
(435,484,o),
(488,423,o),
(488,304,cs),
(488,304,l)
);
}
);
width = 703;
}
);
unicode = 79;
},
{
glyphname = P;
layers = (
{
layerId = UUID0;
shapes = (
{
closed = 1;
nodes = (
(170,542,l),
(198,547,o),
(235,551,o),
(271,551,cs),
(376,551,o),
(435,510,o),
(435,420,cs),
(435,329,o),
(373,285,o),
(267,285,cs),
(170,285,l)
);
},
{
closed = 1;
nodes = (
(439,217,o),
(517,297,o),
(517,421,cs),
(517,542,o),
(442,619,o),
(273,619,cs),
(221,619,o),
(161,614,o),
(122,602,cs),
(100,595,o),
(89,585,o),
(89,564,cs),
(89,217,l),
(272,217,l)
);
},
{
closed = 1;
nodes = (
(89,32,ls),
(89,6,o),
(103,-5,o),
(133,-5,cs),
(149,-5,o),
(163,-1,o),
(171,2,c),
(171,256,l),
(89,256,l)
);
}
);
width = 567;
},
{
layerId = UUID1;
shapes = (
{
closed = 1;
nodes = (
(239,480,l),
(253,482,o),
(266,483,o),
(287,483,cs),
(347,483,o),
(379,454,o),
(379,404,cs),
(379,353,o),
(342,325,o),
(287,325,cs),
(239,325,l)
);
},
{
closed = 1;
nodes = (
(456,188,o),
(557,274,o),
(557,404,cs),
(557,538,o),
(456,623,o),
(273,623,cs),
(223,623,o),
(153,616,o),
(108,600,cs),
(82,591,o),
(65,577,o),
(65,549,cs),
(65,188,l),
(298,188,l)
);
},
{
closed = 1;
nodes = (
(65,75,ls),
(65,13,o),
(89,-8,o),
(159,-8,cs),
(191,-8,o),
(225,-3,o),
(240,1,c),
(240,264,l),
(65,264,l)
);
}
);
width = 581;
}
);
unicode = 80;
},
{
glyphname = Q;
kernLeft = O;
kernRight = O;
layers = (
{
layerId = UUID0;
shapes = (
{
closed = 1;
nodes = (
(415,-58,ls),
(502,-118,o),
(573,-158,o),
(616,-158,cs),
(644,-158,o),
(660,-141,o),
(660,-116,cs),
(660,-111,o),
(660,-105,o),
(658,-96,c),
(583,-68,o),
(533,-48,o),
(407,24,c),
(330,0,l)
);
},
{
closed = 1;
nodes = (
(634,511,o),
(507,621,o),
(344,621,cs),
(182,621,o),
(54,511,o),
(54,304,cs),
(54,96,o),
(179,-13,o),
(344,-13,cs),
(510,-13,o),
(634,96,o),
(634,304,cs),
(634,304,l)
);
},
{
closed = 1;
nodes = (
(551,145,o),
(470,56,o),
(344,56,cs),
(219,56,o),
(138,145,o),
(138,304,cs),
(138,463,o),
(220,552,o),
(344,552,cs),
(469,552,o),
(551,463,o),
(551,304,cs),
(551,304,l)
);
}
);
width = 690;
},
{
layerId = UUID1;
shapes = (
{
closed = 1;
nodes = (
(403,-59,ls),
(471,-123,o),
(537,-158,o),
(598,-158,cs),
(662,-158,o),
(705,-125,o),
(705,-49,cs),
(705,-44,o),
(705,-38,o),
(704,-30,c),
(647,-13,o),
(574,10,o),
(516,38,c),
(334,6,l)
);
},
{
closed = 1;
nodes = (
(668,513,o),
(529,625,o),
(351,625,cs),
(173,625,o),
(35,513,o),
(35,305,cs),
(35,97,o),
(169,-16,o),
(351,-16,cs),
(533,-16,o),
(668,96,o),
(668,305,cs),
(668,305,l)
);
},
{
closed = 1;
nodes = (
(488,184,o),
(434,125,o),
(352,125,cs),
(269,125,o),
(215,184,o),
(215,305,cs),
(215,425,o),
(270,484,o),
(351,484,cs),
(435,484,o),
(488,424,o),
(488,305,cs),
(488,305,l)
);
}
);
width = 705;
}
);
unicode = 81;
},
{
glyphname = R;
kernRight = R;
layers = (
{
anchors = (
{
name = bottom;
pos = (295,0);
},
{
name = top;
pos = (295,602);
}
);
layerId = UUID0;
shapes = (
{
closed = 1;
nodes = (
(170,542,l),
(198,547,o),
(237,551,o),
(273,551,cs),
(382,551,o),
(443,508,o),
(443,425,cs),
(443,341,o),
(383,298,o),
(285,298,cs),
(170,298,l)
);
},
{
closed = 1;
nodes = (
(444,230,o),
(525,307,o),
(525,425,cs),
(525,548,o),
(443,619,o),
(276,619,cs),
(223,619,o),
(161,614,o),
(122,602,cs),
(100,595,o),
(89,585,o),
(89,564,cs),
(89,230,l),
(285,230,l)
);
},
{
closed = 1;
nodes = (
(451,26,ls),
(467,4,o),
(479,-7,o),
(502,-7,cs),
(521,-7,o),
(542,7,o),
(547,30,c),
(515,73,o),
(422,192,o),
(347,286,c),
(287,256,l)
);
},
{
closed = 1;
nodes = (
(89,32,ls),
(89,6,o),
(103,-5,o),
(133,-5,cs),
(149,-5,o),
(163,-1,o),
(171,2,c),
(171,252,l),
(89,252,l)
);
}
);
width = 589;
},
{
anchors = (
{
name = bottom;
pos = (305,0);
},
{
name = top;
pos = (305,606);
}
);
layerId = UUID1;
shapes = (
{
closed = 1;
nodes = (
(238,479,l),
(252,481,o),
(264,483,o),
(282,483,cs),
(352,483,o),
(384,456,o),
(384,406,cs),
(384,355,o),
(344,329,o),
(288,329,cs),
(238,329,l)
);
},
{
closed = 1;
nodes = (
(447,196,o),
(561,286,o),
(561,408,cs),
(561,539,o),
(467,623,o),
(283,623,cs),
(215,623,o),
(153,616,o),
(108,600,cs),
(82,591,o),
(65,577,o),
(65,549,cs),
(65,196,l),
(306,196,l)
);
},
{
closed = 1;
nodes = (
(378,59,ls),
(403,18,o),
(427,-10,o),
(485,-10,cs),
(529,-10,o),
(568,16,o),
(581,62,c),
(554,108,o),
(487,187,o),
(428,267,c),
(269,235,l)
);
},
{
closed = 1;
nodes = (
(65,75,ls),
(65,13,o),
(89,-8,o),
(159,-8,cs),
(191,-8,o),
(225,-3,o),
(240,1,c),
(240,264,l),
(65,264,l)
);
}
);
width = 609;
}
);
unicode = 82;
},
{
glyphname = S;
kernLeft = S;
kernRight = S;
layers = (
{
anchors = (
{
name = bottom;
pos = (262,0);
},
{
name = top;
pos = (264,602);
}
);
layerId = UUID0;
shapes = (
{
closed = 1;
nodes = (
(175,55,o),
(119,91,o),
(89,120,c),
(70,113,o),
(54,97,o),
(54,75,cs),
(54,35,o),
(135,-13,o),
(257,-13,cs),
(396,-13,o),
(476,59,o),
(476,164,cs),
(476,262,o),
(411,314,o),
(306,344,c),
(245,362,l),
(171,383,o),
(141,410,o),
(141,457,cs),
(141,516,o),
(189,552,o),
(267,552,cs),
(334,552,o),
(393,529,o),
(427,502,c),
(441,510,o),
(452,524,o),
(452,542,cs),
(452,582,o),
(372,621,o),
(264,621,cs),
(140,621,o),
(59,559,o),
(59,457,cs),
(59,374,o),
(111,326,o),
(196,301,c),
(283,275,ls),
(359,252,o),
(393,219,o),
(393,164,cs),
(393,100,o),
(346,55,o),
(257,55,cs),
(257,55,l)
);
}
);
width = 523;
},
{
anchors = (
{
name = bottom;
pos = (276,0);
},
{
name = top;
pos = (278,606);
}
);
layerId = UUID1;
shapes = (
{
closed = 1;
nodes = (
(187,124,o),
(131,149,o),
(94,178,c),
(67,163,o),
(40,136,o),
(40,97,cs),
(40,22,o),
(135,-18,o),
(257,-18,cs),
(429,-18,o),
(521,61,o),
(521,174,cs),
(521,281,o),
(452,339,o),
(326,379,c),
(273,396,l),
(239,407,o),
(221,418,o),
(221,438,cs),
(221,463,o),
(248,482,o),
(308,482,cs),
(366,482,o),
(419,466,o),
(448,447,c),
(470,464,o),
(489,489,o),
(489,523,cs),
(489,593,o),
(405,625,o),
(289,625,cs),
(132,625,o),
(40,551,o),
(40,438,cs),
(40,321,o),
(120,282,o),
(237,243,c),
(279,229,ls),
(318,216,o),
(340,203,o),
(340,176,cs),
(340,149,o),
(316,124,o),
(251,124,cs),
(251,124,l)
);
}
);
width = 551;
}
);
unicode = 83;
},
{
glyphname = T;
kernLeft = T;
kernRight = T;
layers = (
{
anchors = (
{
name = bottom;
pos = (262,0);
},
{
name = center;
pos = (262,301);
},
{
name = top;
pos = (262,602);
}
);
layerId = UUID0;
shapes = (
{
closed = 1;
nodes = (
(467,539,ls),
(487,539,o),
(498,554,o),
(498,576,cs),
(498,589,o),
(493,602,o),
(489,608,c),
(256,608,l),
(261,539,l)
);
},
{
closed = 1;
nodes = (
(56,608,ls),
(36,608,o),
(25,594,o),
(25,572,cs),
(25,558,o),
(30,546,o),
(34,539,c),
(268,539,l),
(263,608,l)
);
},
{
closed = 1;
nodes = (
(221,32,ls),
(221,6,o),
(235,-5,o),
(265,-5,cs),
(280,-5,o),
(295,-1,o),
(302,2,c),
(302,566,l),
(221,566,l)
);
}
);
width = 523;
},
{
anchors = (
{
name = bottom;
pos = (278,0);
},
{
name = center;
pos = (278,303);
},
{
name = top;
pos = (278,606);
}
);
layerId = UUID1;
shapes = (
{
closed = 1;
nodes = (
(475,466,ls),
(512,466,o),
(536,488,o),
(536,538,cs),
(536,566,o),
(527,591,o),
(518,606,c),
(185,606,l),
(185,466,l)
);
},
{
closed = 1;
nodes = (
(79,606,ls),
(42,606,o),
(18,584,o),
(18,534,cs),
(18,506,o),
(27,481,o),
(36,466,c),
(369,466,l),
(369,606,l)
);
},
{
closed = 1;
nodes = (
(187,75,ls),
(187,13,o),
(211,-8,o),
(281,-8,cs),
(313,-8,o),
(347,-3,o),
(362,1,c),
(362,493,l),
(187,493,l)
);
}
);
width = 556;
}
);
unicode = 84;
},
{
glyphname = U;
kernLeft = U;
kernRight = U;
layers = (
{
anchors = (
{
name = bottom;
pos = (325,0);
},
{
name = ogonek;
pos = (421,17);
},
{
name = top;
pos = (325,602);
},
{
name = topright;
pos = (526,602);
}
);
layerId = UUID0;
shapes = (
{
closed = 1;
nodes = (
(476,-13,o),
(561,75,o),
(561,210,cs),
(561,292,l),
(479,292,l),
(479,217,ls),
(479,110,o),
(412,56,o),
(324,56,cs),
(236,56,o),
(169,110,o),
(169,217,cs),
(169,292,l),
(88,292,l),
(88,210,ls),
(88,75,o),
(173,-13,o),
(324,-13,cs),
(324,-13,l)
);
},
{
closed = 1;
nodes = (
(169,576,ls),
(169,602,o),
(155,613,o),
(126,613,cs),
(110,613,o),
(95,609,o),
(88,606,c),
(88,251,l),
(169,251,l)
);
},
{
closed = 1;
nodes = (
(561,576,ls),
(561,602,o),
(546,613,o),
(517,613,cs),
(501,613,o),
(486,609,o),
(479,606,c),
(479,251,l),
(561,251,l)
);
}
);
width = 649;
},
{
anchors = (
{
name = bottom;
pos = (332,0);
},
{
name = ogonek;
pos = (456,10);
},
{
name = top;
pos = (332,606);
},
{
name = topright;
pos = (547,606);
}
);
layerId = UUID1;
shapes = (
{
closed = 1;
nodes = (
(500,-18,o),
(602,77,o),
(602,222,cs),
(602,283,l),
(427,283,l),
(427,225,ls),
(427,162,o),
(388,123,o),
(332,123,cs),
(276,123,o),
(237,162,o),
(237,225,cs),
(237,283,l),
(62,283,l),
(62,222,ls),
(62,77,o),
(164,-18,o),
(332,-18,cs),
(332,-18,l)
);
},
{
closed = 1;
nodes = (
(237,534,ls),
(237,599,o),
(209,617,o),
(143,617,cs),
(113,617,o),
(78,611,o),
(62,608,c),
(62,256,l),
(237,256,l)
);
},
{
closed = 1;
nodes = (
(602,534,ls),
(602,599,o),
(574,617,o),
(508,617,cs),
(478,617,o),
(443,611,o),
(427,608,c),
(427,254,l),
(602,254,l)
);
}
);
width = 664;
}
);
unicode = 85;
},
{
glyphname = V;
layers = (
{
layerId = UUID0;
shapes = (
{
closed = 1;
nodes = (
(397,106,o),
(547,517,o),
(547,578,cs),
(547,602,o),
(531,614,o),
(507,614,cs),
(494,614,o),
(482,612,o),
(473,607,c),
(427,428,o),
(357,228,o),
(299,77,c),
(295,77,l),
(230,244,o),
(178,404,o),
(119,578,cs),
(111,602,o),
(101,614,o),
(76,614,cs),
(56,614,o),
(39,603,o),
(31,592,c),
(80,428,o),
(190,120,o),
(243,17,cs),
(250,2,o),
(272,-5,o),
(297,-5,cs),
(319,-5,o),
(340,2,o),
(347,8,c),
(347,8,l)
);
}
);
width = 583;
},
{
layerId = UUID1;
shapes = (
{
closed = 1;
nodes = (
(473,81,o),
(611,452,o),
(611,538,cs),
(611,589,o),
(571,609,o),
(522,609,cs),
(488,609,o),
(461,600,o),
(437,588,c),
(402,442,o),
(363,286,o),
(327,162,c),
(321,162,l),
(281,291,o),
(245,405,o),
(209,536,cs),
(194,591,o),
(163,609,o),
(114,609,cs),
(74,609,o),
(36,590,o),
(17,572,c),
(60,397,o),
(161,130,o),
(207,37,cs),
(221,8,o),
(265,-10,o),
(320,-10,cs),
(366,-10,o),
(409,4,o),
(428,20,c),
(428,20,l)
);
}
);
width = 634;
}
);
unicode = 86;
},
{
glyphname = W;
kernLeft = W;
kernRight = W;
layers = (
{
anchors = (
{
name = bottom;
pos = (402,0);
},
{
name = top;
pos = (402,602);
}
);
layerId = UUID0;
shapes = (
{
closed = 1;
nodes = (
(302,274,o),
(275,191,o),
(237,70,c),
(233,70,l),
(188,271,o),
(160,410,o),
(126,577,cs),
(121,603,o),
(108,614,o),
(84,614,cs),
(65,614,o),
(48,604,o),
(39,595,c),
(67,429,o),
(142,107,o),
(176,23,cs),
(182,8,o),
(202,-3,o),
(232,-3,cs),
(256,-3,o),
(276,4,o),
(286,10,c),
(318,84,o),
(367,245,o),
(406,377,c),
(445,242,o),
(494,93,o),
(523,23,cs),
(529,7,o),
(551,-3,o),
(580,-3,cs),
(604,-3,o),
(623,4,o),
(635,11,c),
(687,161,o),
(759,505,o),
(759,580,cs),
(759,602,o),
(743,614,o),
(718,614,cs),
(705,614,o),
(694,612,o),
(684,607,c),
(655,408,o),
(619,250,o),
(581,70,c),
(577,70,l),
(539,192,o),
(504,296,o),
(455,441,cs),
(449,458,o),
(431,467,o),
(404,467,cs),
(386,467,o),
(370,462,o),
(359,457,c),
(359,457,l)
);
}
);
width = 803;
},
{
anchors = (
{
name = bottom;
pos = (432,0);
},
{
name = top;
pos = (432,606);
}
);
layerId = UUID1;
shapes = (
{
closed = 1;
nodes = (
(318,321,o),
(298,258,o),
(275,151,c),
(270,151,l),
(263,188,o),
(255,267,o),
(211,538,cs),
(203,590,o),
(168,610,o),
(118,610,cs),
(79,610,o),
(44,592,o),
(25,575,c),
(42,409,o),
(105,114,o),
(139,40,cs),
(153,10,o),
(209,-8,o),
(268,-8,cs),
(316,-8,o),
(359,6,o),
(379,24,c),
(395,81,o),
(417,170,o),
(435,256,c),
(457,168,o),
(478,93,o),
(495,40,cs),
(504,10,o),
(552,-8,o),
(614,-8,cs),
(662,-8,o),
(713,6,o),
(733,24,c),
(774,112,o),
(832,452,o),
(832,540,cs),
(832,591,o),
(790,610,o),
(741,610,cs),
(713,610,o),
(687,603,o),
(662,589,c),
(645,444,o),
(632,314,o),
(609,151,c),
(604,151,l),
(582,244,o),
(560,317,o),
(531,427,cs),
(523,459,o),
(483,476,o),
(427,476,cs),
(395,476,o),
(360,465,o),
(345,458,c),
(345,458,l)
);
}
);
width = 863;
}
);
unicode = 87;
},
{
glyphname = X;
layers = (
{
layerId = UUID0;
shapes = (
{
closed = 1;
nodes = (
(449,27,ls),
(465,3,o),
(477,-7,o),
(498,-7,cs),
(523,-7,o),
(538,9,o),
(544,32,c),
(334,323,l),
(311,343,l),
(147,578,ls),
(131,601,o),
(118,614,o),
(97,614,cs),
(71,614,o),
(55,596,o),
(49,574,c),
(254,295,l),
(268,289,l)
);
},
{
closed = 1;
nodes = (
(398,380,o),
(459,458,o),
(516,535,cs),
(527,550,o),
(535,564,o),
(535,578,cs),
(535,598,o),
(521,613,o),
(493,613,cs),
(485,613,o),
(478,612,o),
(472,611,c),
(282,348,l),
(255,323,l),
(68,78,ls),
(55,60,o),
(45,46,o),
(45,29,cs),
(45,7,o),
(62,-7,o),
(89,-7,cs),
(96,-7,o),
(104,-6,o),
(109,-5,c),
(314,281,l),
(336,301,l)
);
}
);
width = 591;
},
{
layerId = UUID1;
shapes = (
{
closed = 1;
nodes = (
(381,56,ls),
(411,9,o),
(436,-8,o),
(474,-8,cs),
(533,-8,o),
(570,23,o),
(580,72,c),
(389,341,l),
(344,368,l),
(227,548,ls),
(197,594,o),
(169,612,o),
(131,612,cs),
(72,612,o),
(36,569,o),
(23,532,c),
(208,270,l),
(246,263,l)
);
},
{
closed = 1;
nodes = (
(424,317,o),
(468,374,o),
(514,431,cs),
(547,472,o),
(568,497,o),
(568,534,cs),
(568,577,o),
(531,610,o),
(472,610,cs),
(452,610,o),
(432,606,o),
(421,602,c),
(287,401,l),
(208,340,l),
(77,173,ls),
(47,134,o),
(29,110,o),
(29,72,cs),
(29,27,o),
(65,-8,o),
(140,-8,cs),
(149,-8,o),
(159,-7,o),
(169,-6,c),
(325,230,l),
(376,260,l)
);
}
);
width = 601;
}
);
unicode = 88;
},
{
glyphname = Y;
kernLeft = Y;
kernRight = Y;
layers = (
{
anchors = (
{
name = bottom;
pos = (275,0);
},
{
name = top;
pos = (275,602);
},
{
name = topleft;
pos = (20,602);
}
);
layerId = UUID0;
shapes = (
{
closed = 1;
nodes = (
(436,400,o),
(523,552,o),
(523,580,cs),
(523,601,o),
(510,614,o),
(485,614,cs),
(475,614,o),
(462,612,o),
(454,607,c),
(401,507,o),
(350,410,o),
(281,295,c),
(277,295,l),
(238,360,o),
(159,499,o),
(116,574,c),
(101,601,o),
(90,614,o),
(65,614,cs),
(41,614,o),
(26,597,o),
(21,582,c),
(76,474,o),
(168,329,o),
(243,218,c),
(314,218,l)
);
},
{
closed = 1;
nodes = (
(238,32,ls),
(238,6,o),
(252,-5,o),
(282,-5,cs),
(297,-5,o),
(312,-1,o),
(319,2,c),
(319,257,l),
(238,257,l)
);
}
);
width = 550;
},
{
anchors = (
{
name = bottom;
pos = (287,0);
},
{
name = top;
pos = (287,606);
},
{
name = topleft;
pos = (20,606);
}
);
layerId = UUID1;
shapes = (
{
closed = 1;
nodes = (
(534,442,o),
(562,503,o),
(562,535,cs),
(562,584,o),
(524,609,o),
(478,609,cs),
(451,609,o),
(420,602,o),
(396,590,c),
(358,495,o),
(337,439,o),
(300,356,c),
(294,356,l),
(294,356,o),
(206,533,o),
(206,533,c),
(177,592,o),
(148,609,o),
(96,609,cs),
(52,609,o),
(22,585,o),
(5,561,c),
(45,460,o),
(153,287,o),
(220,188,c),
(377,188,l)
);
},
{
closed = 1;
nodes = (
(212,73,ls),
(212,13,o),
(235,-8,o),
(304,-8,cs),
(335,-8,o),
(368,-3,o),
(383,1,c),
(383,248,l),
(212,248,l)
);
}
);
width = 574;
}
);
unicode = 89;
},
{
glyphname = Z;
kernLeft = Z;
kernRight = Z;
layers = (
{
anchors = (
{
name = bottom;
pos = (279,0);
},
{
name = center;
pos = (279,301);
},
{
name = top;
pos = (279,602);
}
);
layerId = UUID0;
shapes = (
{
closed = 1;
nodes = (
(58,70,o),
(50,57,o),
(50,38,cs),
(50,23,o),
(58,9,o),
(69,0,c),
(102,0,l),
(481,520,ls),
(494,539,o),
(502,551,o),
(502,570,cs),
(502,585,o),
(494,599,o),
(483,608,c),
(451,608,l),
(71,88,l)
);
},
{
closed = 1;
nodes = (
(478,0,ls),
(497,0,o),
(509,14,o),
(509,36,cs),
(509,50,o),
(504,62,o),
(499,69,c),
(93,69,l),
(90,0,l)
);
},
{
closed = 1;
nodes = (
(89,608,ls),
(69,608,o),
(57,594,o),
(57,572,cs),
(57,558,o),
(63,546,o),
(67,539,c),
(462,539,l),
(464,608,l)
);
}
);
width = 557;
},
{
anchors = (
{
name = bottom;
pos = (280,0);
},
{
name = center;
pos = (280,303);
},
{
name = top;
pos = (280,606);
}
);
layerId = UUID1;
shapes = (
{
closed = 1;
nodes = (
(54,163,o),
(34,126,o),
(34,93,cs),
(34,52,o),
(50,19,o),
(73,0,c),
(134,0,l),
(482,417,ls),
(506,446,o),
(523,480,o),
(523,513,cs),
(523,554,o),
(508,585,o),
(479,609,c),
(429,609,l),
(78,192,l)
);
},
{
closed = 1;
nodes = (
(468,0,ls),
(506,0,o),
(530,22,o),
(530,73,cs),
(530,102,o),
(520,127,o),
(511,143,c),
(185,143,l),
(93,0,l)
);
},
{
closed = 1;
nodes = (
(106,609,ls),
(67,609,o),
(43,586,o),
(43,535,cs),
(43,506,o),
(52,482,o),
(62,466,c),
(374,466,l),
(447,609,l)
);
}
);
width = 560;
}
);
unicode = 90;
},
{
glyphname = bracketleft;
kernRight = parenleft;
layers = (
{
layerId = UUID0;
shapes = (
{
closed = 1;
nodes = (
(142,-60,l),
(142,597,l),
(69,597,l),
(69,-60,l)
);
},
{
closed = 1;
nodes = (
(69,-69,ls),
(69,-94,o),
(83,-110,o),
(110,-110,cs),
(224,-110,ls),
(246,-110,o),
(258,-98,o),
(258,-77,cs),
(258,-64,o),
(255,-55,o),
(252,-46,c),
(69,-46,l)
);
},
{
closed = 1;
nodes = (
(83,651,o),
(69,636,o),
(69,611,cs),
(69,588,l),
(224,588,ls),
(246,588,o),
(258,599,o),
(258,621,cs),
(258,634,o),
(255,643,o),
(252,651,c),
(110,651,l)
);
}
);
width = 268;
},
{
layerId = UUID1;
shapes = (
{
closed = 1;
nodes = (
(204,-34,l),
(204,553,l),
(46,553,l),
(46,-34,l)
);
},
{
closed = 1;
nodes = (
(46,-55,ls),
(46,-95,o),
(69,-131,o),
(122,-131,cs),
(242,-131,ls),
(275,-131,o),
(298,-112,o),
(298,-66,cs),
(298,-42,o),
(290,-18,o),
(281,-5,c),
(46,-5,l)
);
},
{
closed = 1;
nodes = (
(69,658,o),
(46,622,o),
(46,582,cs),
(46,532,l),
(242,532,ls),
(275,532,o),
(298,551,o),
(298,597,cs),
(298,621,o),
(290,645,o),
(281,658,c),
(122,658,l)
);
}
);
width = 303;
}
);
unicode = 91;
},
{
glyphname = backslash;
layers = (
{
layerId = UUID0;
shapes = (
{
closed = 1;
nodes = (
(105,658,o),
(92,665,o),
(75,665,cs),
(60,665,o),
(43,658,o),
(33,647,c),
(223,-38,ls),
(228,-57,o),
(240,-64,o),
(258,-64,cs),
(272,-64,o),
(290,-55,o),
(300,-46,c),
(110,639,l)
);
}
);
width = 341;
},
{
layerId = UUID1;
shapes = (
{
closed = 1;
nodes = (
(161,657,o),
(133,670,o),
(97,670,cs),
(66,670,o),
(29,653,o),
(10,633,c),
(184,-3,ls),
(195,-44,o),
(223,-57,o),
(259,-57,cs),
(289,-57,o),
(327,-40,o),
(346,-20,c),
(172,616,l)
);
}
);
width = 360;
}
);
unicode = 92;
},
{
glyphname = bracketright;
kernLeft = parenright;
layers = (
{
layerId = UUID0;
shapes = (
{
closed = 1;
nodes = (
(126,602,l),
(126,-56,l),
(199,-56,l),
(199,602,l)
);
},
{
closed = 1;
nodes = (
(199,611,ls),
(199,636,o),
(185,651,o),
(158,651,cs),
(45,651,ls),
(22,651,o),
(10,640,o),
(10,618,cs),
(10,606,o),
(13,596,o),
(16,588,c),
(199,588,l)
);
},
{
closed = 1;
nodes = (
(185,-110,o),
(199,-94,o),
(199,-69,cs),
(199,-46,l),
(45,-46,ls),
(22,-46,o),
(10,-58,o),
(10,-80,cs),
(10,-92,o),
(13,-102,o),
(16,-110,c),
(158,-110,l)
);
}
);
width = 269;
},
{
layerId = UUID1;
shapes = (
{
closed = 1;
nodes = (
(99,566,l),
(99,-26,l),
(257,-26,l),
(257,566,l)
);
},
{
closed = 1;
nodes = (
(257,582,ls),
(257,622,o),
(234,658,o),
(181,658,cs),
(61,658,ls),
(28,658,o),
(5,639,o),
(5,593,cs),
(5,569,o),
(13,545,o),
(22,532,c),
(257,532,l)
);
},
{
closed = 1;
nodes = (
(234,-131,o),
(257,-95,o),
(257,-55,cs),
(257,-5,l),
(61,-5,ls),
(28,-5,o),
(5,-24,o),
(5,-70,cs),
(5,-94,o),
(13,-118,o),
(22,-131,c),
(181,-131,l)
);
}
);
width = 317;
}
);
unicode = 93;
},
{
glyphname = asciicircum;
layers = (
{
layerId = UUID0;
shapes = (
{
closed = 1;
nodes = (
(176,618,o),
(54,382,o),
(54,353,cs),
(54,331,o),
(70,323,o),
(88,323,cs),
(102,323,o),
(114,327,o),
(123,332,c),
(151,416,o),
(215,549,o),
(225,573,c),
(232,573,l),
(329,357,ls),
(339,331,o),
(351,324,o),
(372,324,cs),
(388,324,o),
(402,333,o),
(409,343,c),
(379,424,o),
(304,574,o),
(267,641,cs),
(262,651,o),
(248,655,o),
(230,655,cs),
(215,655,o),
(201,651,o),
(194,646,c),
(194,646,l)
);
}
);
width = 463;
},
{
layerId = UUID1;
shapes = (
{
closed = 1;
nodes = (
(108,574,o),
(35,418,o),
(35,369,cs),
(35,326,o),
(66,310,o),
(106,310,cs),
(129,310,o),
(157,315,o),
(177,327,c),
(191,392,o),
(213,467,o),
(236,528,c),
(240,528,l),
(296,371,ls),
(313,324,o),
(334,310,o),
(375,310,cs),
(407,310,o),
(437,327,o),
(453,343,c),
(432,428,o),
(367,585,o),
(336,628,cs),
(322,652,o),
(288,666,o),
(243,666,cs),
(203,666,o),
(169,655,o),
(153,642,c),
(153,642,l)
);
}
);
width = 488;
}
);
unicode = 94;
},
{
glyphname = underscore;
layers = (
{
layerId = UUID0;
shapes = (
{
closed = 1;
nodes = (
(452,-123,o),
(465,-111,o),
(465,-89,cs),
(465,-77,o),
(461,-66,o),
(458,-58,c),
(35,-58,ls),
(12,-58,o),
(0,-70,o),
(0,-92,cs),
(0,-105,o),
(3,-115,o),
(6,-123,c),
(430,-123,l)
);
}
);
width = 465;
},
{
layerId = UUID1;
shapes = (
{
closed = 1;
nodes = (
(484,-188,o),
(509,-170,o),
(509,-121,cs),
(509,-94,o),
(500,-68,o),
(492,-54,c),
(61,-54,ls),
(25,-54,o),
(0,-75,o),
(0,-124,cs),
(0,-151,o),
(8,-174,o),
(17,-188,c),
(448,-188,l)
);
}
);
width = 509;
}
);
unicode = 95;
},
{
glyphname = a;
kernLeft = a;
kernRight = a;
layers = (
{
anchors = (
{
name = bottom;
pos = (250,0);
},
{
name = ogonek;
pos = (449,10);
},
{
name = top;
pos = (250,460);
}
);
layerId = UUID0;
shapes = (
{
closed = 1;
nodes = (
(162,52,o),
(123,81,o),
(123,131,cs),
(123,179,o),
(156,203,o),
(225,209,cs),
(349,222,l),
(349,77,l),
(333,66,o),
(296,52,o),
(240,52,cs),
(240,52,l)
);
},
{
closed = 1;
nodes = (
(185,475,o),
(137,464,o),
(101,446,cs),
(81,436,o),
(72,425,o),
(72,406,cs),
(72,392,o),
(82,379,o),
(93,370,c),
(131,390,o),
(183,409,o),
(238,409,cs),
(306,409,o),
(349,379,o),
(349,313,cs),
(349,285,l),
(207,271,ls),
(104,261,o),
(43,217,o),
(43,130,cs),
(43,37,o),
(115,-14,o),
(240,-14,cs),
(307,-14,o),
(362,3,o),
(394,21,cs),
(416,34,o),
(428,47,o),
(428,76,cs),
(428,313,ls),
(428,425,o),
(355,475,o),
(239,475,cs),
(239,475,l)
);
}
);
width = 499;
},
{
anchors = (
{
name = bottom;
pos = (272,0);
},
{
name = ogonek;
pos = (490,10);
},
{
name = top;
pos = (272,479);
}
);
layerId = UUID1;
shapes = (
{
closed = 1;
nodes = (
(211,108,o),
(192,126,o),
(192,153,cs),
(192,180,o),
(219,192,o),
(256,195,cs),
(328,201,l),
(328,121,l),
(315,113,o),
(283,108,o),
(260,108,cs),
(260,108,l)
);
},
{
closed = 1;
nodes = (
(205,501,o),
(148,495,o),
(109,480,cs),
(74,466,o),
(58,446,o),
(58,412,cs),
(58,385,o),
(72,358,o),
(89,346,c),
(127,362,o),
(179,374,o),
(228,374,cs),
(292,374,o),
(327,358,o),
(327,320,cs),
(327,313,l),
(196,299,ls),
(82,287,o),
(28,239,o),
(28,147,cs),
(28,37,o),
(120,-16,o),
(260,-16,cs),
(338,-16,o),
(400,-3,o),
(443,23,cs),
(469,39,o),
(492,59,o),
(492,94,cs),
(492,318,ls),
(492,443,o),
(397,501,o),
(252,501,cs),
(252,501,l)
);
}
);
width = 544;
}
);
unicode = 97;
},
{
glyphname = b;
kernRight = o;
layers = (
{
layerId = UUID0;
shapes = (
{
closed = 1;
nodes = (
(210,475,o),
(161,445,o),
(132,423,c),
(147,358,l),
(173,384,o),
(216,409,o),
(269,409,cs),
(355,409,o),
(418,355,o),
(418,231,cs),
(418,108,o),
(357,53,o),
(267,53,cs),
(217,53,o),
(177,69,o),
(157,84,c),
(157,417,l),
(77,417,l),
(77,84,ls),
(77,56,o),
(86,43,o),
(114,25,cs),
(147,6,o),
(202,-13,o),
(267,-13,cs),
(404,-13,o),
(499,63,o),
(499,231,cs),
(499,397,o),
(405,475,o),
(281,475,cs),
(281,475,l)
);
},
{
closed = 1;
nodes = (
(157,619,ls),
(157,644,o),
(143,655,o),
(115,655,cs),
(99,655,o),
(84,651,o),
(77,648,c),
(77,401,l),
(157,401,l)
);
}
);
width = 549;
},
{
layerId = UUID1;
shapes = (
{
closed = 1;
nodes = (
(271,501,o),
(227,486,o),
(197,470,c),
(197,333,l),
(220,350,o),
(250,368,o),
(290,368,cs),
(348,368,o),
(385,330,o),
(385,245,cs),
(385,162,o),
(346,118,o),
(286,118,cs),
(258,118,o),
(238,125,o),
(223,133,c),
(223,430,l),
(54,430,l),
(54,118,ls),
(54,85,o),
(70,58,o),
(98,38,cs),
(140,8,o),
(200,-16,o),
(288,-16,cs),
(452,-16,o),
(559,78,o),
(559,245,cs),
(559,413,o),
(454,501,o),
(322,501,cs),
(322,501,l)
);
},
{
closed = 1;
nodes = (
(224,581,ls),
(224,643,o),
(196,661,o),
(130,661,cs),
(98,661,o),
(69,656,o),
(54,652,c),
(54,389,l),
(224,389,l)
);
}
);
width = 590;
}
);
unicode = 98;
},
{
glyphname = c;
kernLeft = o;
kernRight = c;
layers = (
{
anchors = (
{
name = bottom;
pos = (282,0);
},
{
name = top;
pos = (279,460);
}
);
layerId = UUID0;
shapes = (
{
closed = 1;
nodes = (
(344,408,o),
(376,391,o),
(405,371,c),
(419,377,o),
(430,390,o),
(430,406,cs),
(430,442,o),
(370,475,o),
(287,475,cs),
(156,475,o),
(49,392,o),
(49,230,cs),
(49,65,o),
(151,-13,o),
(289,-13,cs),
(372,-13,o),
(434,17,o),
(434,54,cs),
(434,71,o),
(423,83,o),
(409,91,c),
(380,71,o),
(345,53,o),
(289,53,cs),
(194,53,o),
(131,116,o),
(131,230,cs),
(131,345,o),
(198,408,o),
(289,408,cs),
(289,408,l)
);
}
);
width = 478;
},
{
anchors = (
{
name = bottom;
pos = (286,0);
},
{
name = top;
pos = (276,479);
}
);
layerId = UUID1;
shapes = (
{
closed = 1;
nodes = (
(363,367,o),
(396,355,o),
(419,344,c),
(435,360,o),
(449,383,o),
(449,408,cs),
(449,462,o),
(394,501,o),
(299,501,cs),
(155,501,o),
(31,417,o),
(31,241,cs),
(31,74,o),
(137,-15,o),
(304,-15,cs),
(401,-15,o),
(456,20,o),
(456,73,cs),
(456,103,o),
(443,123,o),
(418,142,c),
(396,131,o),
(365,119,o),
(325,119,cs),
(256,119,o),
(203,158,o),
(203,241,cs),
(203,324,o),
(259,367,o),
(326,367,cs),
(326,367,l)
);
}
);
width = 489;
}
);
unicode = 99;
},
{
glyphname = d;
kernLeft = o;
kernRight = d;
layers = (
{
anchors = (
{
name = bottom;
pos = (280,0);
},
{
name = center;
pos = (274,230);
},
{
name = top;
pos = (427,645);
},
{
name = topright;
pos = (527,460);
}
);
layerId = UUID0;
shapes = (
{
closed = 1;
nodes = (
(366,64,o),
(338,53,o),
(292,53,cs),
(195,53,o),
(131,105,o),
(131,227,cs),
(131,361,o),
(202,409,o),
(284,409,cs),
(339,409,o),
(379,388,o),
(405,363,c),
(405,437,l),
(378,458,o),
(328,475,o),
(276,475,cs),
(151,475,o),
(49,402,o),
(49,229,cs),
(49,59,o),
(154,-13,o),
(299,-13,cs),
(363,-13,o),
(408,6,o),
(435,23,cs),
(459,38,o),
(470,50,o),
(470,76,cs),
(470,416,l),
(390,415,l),
(390,79,l)
);
},
{
closed = 1;
nodes = (
(470,619,ls),
(470,644,o),
(456,655,o),
(427,655,cs),
(412,655,o),
(397,651,o),
(390,648,c),
(390,395,l),
(470,396,l)
);
}
);
width = 547;
},
{
anchors = (
{
name = bottom;
pos = (299,0);
},
{
name = center;
pos = (293,240);
},
{
name = top;
pos = (447,650);
},
{
name = topright;
pos = (566,479);
}
);
layerId = UUID1;
shapes = (
{
closed = 1;
nodes = (
(352,125,o),
(331,118,o),
(307,118,cs),
(241,118,o),
(203,157,o),
(203,241,cs),
(203,326,o),
(243,368,o),
(312,368,cs),
(347,368,o),
(375,353,o),
(392,340,c),
(392,478,l),
(369,490,o),
(334,501,o),
(288,501,cs),
(144,501,o),
(31,417,o),
(31,241,cs),
(31,72,o),
(134,-16,o),
(308,-16,cs),
(387,-16,o),
(449,7,o),
(488,32,cs),
(518,51,o),
(532,74,o),
(532,107,cs),
(532,421,l),
(363,421,l),
(363,131,l)
);
},
{
closed = 1;
nodes = (
(532,581,ls),
(532,643,o),
(504,661,o),
(438,661,cs),
(406,661,o),
(377,656,o),
(362,652,c),
(362,389,l),
(532,389,l)
);
}
);
width = 586;
}
);
unicode = 100;
},
{
glyphname = e;
kernLeft = o;
kernRight = e;
layers = (
{
anchors = (
{
name = bottom;
pos = (272,0);
},
{
name = ogonek;
pos = (434,17);
},
{
name = top;
pos = (272,460);
}
);
layerId = UUID0;
shapes = (
{
closed = 1;
nodes = (
(440,227,ls),
(464,230,o),
(478,241,o),
(478,270,cs),
(478,390,o),
(392,475,o),
(271,475,cs),
(142,475,o),
(49,385,o),
(49,234,cs),
(49,73,o),
(146,-13,o),
(300,-13,cs),
(387,-13,o),
(458,21,o),
(458,59,cs),
(458,75,o),
(449,88,o),
(434,97,c),
(407,76,o),
(360,53,o),
(304,53,cs),
(198,53,o),
(136,109,o),
(127,216,c),
(127,238,l),
(127,348,o),
(187,410,o),
(270,410,cs),
(350,410,o),
(396,357,o),
(402,284,c),
(100,243,l),
(104,180,l)
);
}
);
width = 519;
},
{
anchors = (
{
name = bottom;
pos = (275,0);
},
{
name = ogonek;
pos = (465,10);
},
{
name = top;
pos = (285,479);
}
);
layerId = UUID1;
shapes = (
{
closed = 1;
nodes = (
(447,214,ls),
(492,221,o),
(519,244,o),
(519,289,cs),
(519,412,o),
(423,501,o),
(282,501,cs),
(157,501,o),
(31,427,o),
(31,250,cs),
(31,72,o),
(150,-16,o),
(307,-16,cs),
(418,-16,o),
(498,14,o),
(498,80,cs),
(498,107,o),
(481,133,o),
(460,146,c),
(429,128,o),
(375,111,o),
(319,111,cs),
(260,111,o),
(207,132,o),
(194,193,c),
(188,277,l),
(190,341,o),
(229,377,o),
(283,377,cs),
(334,377,o),
(356,344,o),
(359,317,c),
(128,279,l),
(134,167,l)
);
}
);
width = 549;
}
);
unicode = 101;
},
{
glyphname = f;
kernLeft = f;
layers = (
{
layerId = UUID0;
shapes = (
{
closed = 1;
nodes = (
(332,371,ls),
(352,371,o),
(363,382,o),
(363,404,cs),
(363,418,o),
(358,430,o),
(354,436,c),
(142,436,l),
(142,371,l)
);
},
{
closed = 1;
nodes = (
(156,572,o),
(184,604,o),
(265,604,cs),
(298,604,o),
(338,594,o),
(362,581,c),
(373,591,o),
(379,603,o),
(379,618,cs),
(379,647,o),
(333,670,o),
(257,670,cs),
(145,670,o),
(77,620,o),
(77,503,cs),
(77,382,l),
(156,382,l),
(156,499,l)
);
},
{
closed = 1;
nodes = (
(77,31,ls),
(77,6,o),
(92,-5,o),
(120,-5,cs),
(136,-5,o),
(150,-1,o),
(157,2,c),
(157,426,l),
(77,426,l)
);
}
);
width = 399;
},
{
layerId = UUID1;
shapes = (
{
closed = 1;
nodes = (
(339,318,ls),
(373,318,o),
(396,337,o),
(396,384,cs),
(396,410,o),
(387,434,o),
(379,448,c),
(190,448,l),
(190,318,l)
);
},
{
closed = 1;
nodes = (
(215,528,o),
(249,545,o),
(306,545,cs),
(342,545,o),
(368,540,o),
(393,533,c),
(406,544,o),
(420,566,o),
(420,593,cs),
(420,655,o),
(374,679,o),
(276,679,cs),
(154,679,o),
(54,621,o),
(54,486,cs),
(54,338,l),
(215,338,l),
(215,480,l)
);
},
{
closed = 1;
nodes = (
(54,72,ls),
(54,10,o),
(82,-8,o),
(148,-8,cs),
(180,-8,o),
(209,-3,o),
(224,1,c),
(224,363,l),
(54,363,l)
);
}
);
width = 430;
}
);
unicode = 102;
},
{
glyphname = g;
kernLeft = g;
kernRight = g;
layers = (
{
anchors = (
{
name = bottom;
pos = (269,-183);
},
{
name = top;
pos = (278,460);
}
);
layerId = UUID0;
shapes = (
{
closed = 1;
nodes = (
(330,14,o),
(374,36,o),
(394,57,c),
(390,128,l),
(369,104,o),
(334,80,o),
(276,80,cs),
(195,80,o),
(132,126,o),
(132,246,cs),
(132,354,o),
(191,409,o),
(281,409,cs),
(327,409,o),
(361,395,o),
(384,381,c),
(384,73,l),
(464,73,l),
(464,382,ls),
(464,406,o),
(450,422,o),
(430,435,cs),
(395,457,o),
(342,475,o),
(281,475,cs),
(146,475,o),
(51,396,o),
(51,245,cs),
(51,76,o),
(151,14,o),
(267,14,cs),
(267,14,l)
);
},
{
closed = 1;
nodes = (
(384,-98,o),
(335,-135,o),
(246,-135,cs),
(187,-135,o),
(132,-113,o),
(104,-92,c),
(91,-99,o),
(81,-112,o),
(81,-130,cs),
(81,-149,o),
(90,-161,o),
(111,-173,cs),
(128,-183,o),
(179,-202,o),
(246,-202,cs),
(370,-202,o),
(464,-152,o),
(464,-20,cs),
(464,90,l),
(384,90,l),
(384,-15,l)
);
}
);
width = 537;
},
{
anchors = (
{
name = bottom;
pos = (283,-164);
},
{
name = top;
pos = (292,479);
}
);
layerId = UUID1;
shapes = (
{
closed = 1;
nodes = (
(307,20,o),
(345,32,o),
(376,48,c),
(371,181,l),
(349,163,o),
(325,147,o),
(285,147,cs),
(236,147,o),
(199,172,o),
(199,256,cs),
(199,334,o),
(239,368,o),
(296,368,cs),
(321,368,o),
(335,362,o),
(349,356,c),
(349,63,l),
(512,63,l),
(512,378,ls),
(512,414,o),
(496,436,o),
(469,454,cs),
(434,477,o),
(365,501,o),
(289,501,cs),
(132,501,o),
(30,417,o),
(30,257,cs),
(30,84,o),
(132,20,o),
(253,20,cs),
(253,20,l)
);
},
{
closed = 1;
nodes = (
(352,-42,o),
(305,-65,o),
(235,-65,cs),
(182,-65,o),
(132,-48,o),
(93,-27,c),
(77,-39,o),
(62,-66,o),
(62,-97,cs),
(62,-127,o),
(74,-149,o),
(98,-165,cs),
(130,-186,o),
(187,-198,o),
(258,-198,cs),
(400,-198,o),
(512,-134,o),
(512,7,cs),
(512,101,l),
(352,101,l),
(352,11,l)
);
}
);
width = 565;
}
);
unicode = 103;
},
{
glyphname = h;
kernRight = h;
layers = (
{
anchors = (
{
name = bottom;
pos = (276,0);
},
{
name = center;
pos = (276,525);
},
{
name = top;
pos = (116,634);
}
);
layerId = UUID0;
shapes = (
{
closed = 1;
nodes = (
(476,293,ls),
(476,416,o),
(398,475,o),
(287,475,cs),
(217,475,o),
(164,446,o),
(132,423,c),
(147,358,l),
(177,386,o),
(224,409,o),
(276,409,cs),
(347,409,o),
(396,371,o),
(396,291,cs),
(396,199,l),
(476,199,l)
);
},
{
closed = 1;
nodes = (
(77,31,ls),
(77,6,o),
(92,-5,o),
(120,-5,cs),
(136,-5,o),
(150,-1,o),
(157,2,c),
(157,264,l),
(77,264,l)
);
},
{
closed = 1;
nodes = (
(396,31,ls),
(396,6,o),
(410,-5,o),
(439,-5,cs),
(454,-5,o),
(469,-1,o),
(476,2,c),
(476,262,l),
(396,263,l)
);
},
{
closed = 1;
nodes = (
(157,619,ls),
(157,644,o),
(143,655,o),
(115,655,cs),
(99,655,o),
(84,651,o),
(77,648,c),
(77,225,l),
(157,225,l)
);
}
);
width = 551;
},
{
anchors = (
{
name = bottom;
pos = (293,0);
},
{
name = center;
pos = (293,525);
},
{
name = top;
pos = (130,643);
}
);
layerId = UUID1;
shapes = (
{
closed = 1;
nodes = (
(532,304,ls),
(532,434,o),
(454,501,o),
(323,501,cs),
(272,501,o),
(228,486,o),
(198,470,c),
(198,333,l),
(221,350,o),
(251,368,o),
(291,368,cs),
(331,368,o),
(362,348,o),
(362,294,cs),
(362,205,l),
(532,205,l)
);
},
{
closed = 1;
nodes = (
(54,72,ls),
(54,10,o),
(82,-8,o),
(148,-8,cs),
(180,-8,o),
(209,-3,o),
(224,1,c),
(224,264,l),
(54,264,l)
);
},
{
closed = 1;
nodes = (
(362,72,ls),
(362,10,o),
(390,-8,o),
(456,-8,cs),
(488,-8,o),
(517,-3,o),
(532,1,c),
(532,264,l),
(362,264,l)
);
},
{
closed = 1;
nodes = (
(224,581,ls),
(224,643,o),
(196,661,o),
(130,661,cs),
(98,661,o),
(69,656,o),
(54,652,c),
(54,175,l),
(224,175,l)
);
}
);
width = 585;
}
);
unicode = 104;
},
{
glyphname = i;
kernLeft = i;
kernRight = i;
layers = (
{
anchors = (
{
name = bottom;
pos = (121,0);
}
);
layerId = UUID0;
shapes = (
{
closed = 1;
nodes = (
(68,580,o),
(90,558,o),
(120,558,cs),
(150,558,o),
(171,580,o),
(171,608,cs),
(171,636,o),
(150,658,o),
(120,658,cs),
(90,658,o),
(68,636,o),
(68,608,cs),
(68,608,l)
);
},
{
closed = 1;
nodes = (
(80,31,ls),
(80,6,o),
(95,-5,o),
(123,-5,cs),
(139,-5,o),
(153,-1,o),
(160,2,c),
(160,264,l),
(80,264,l)
);
},
{
closed = 1;
nodes = (
(160,430,ls),
(160,456,o),
(146,467,o),
(118,467,cs),
(102,467,o),
(87,463,o),
(80,460,c),
(80,225,l),
(160,225,l)
);
}
);
width = 241;
},
{
anchors = (
{
name = bottom;
pos = (141,0);
}
);
layerId = UUID1;
shapes = (
{
closed = 1;
nodes = (
(48,571,o),
(86,531,o),
(141,531,cs),
(196,531,o),
(234,571,o),
(234,621,cs),
(234,671,o),
(196,711,o),
(141,711,cs),
(86,711,o),
(48,671,o),
(48,621,cs),
(48,621,l)
);
},
{
closed = 1;
nodes = (
(56,72,ls),
(56,10,o),
(84,-8,o),
(150,-8,cs),
(182,-8,o),
(211,-3,o),
(226,1,c),
(226,264,l),
(56,264,l)
);
},
{
closed = 1;
nodes = (
(226,408,ls),
(226,470,o),
(198,488,o),
(132,488,cs),
(100,488,o),
(71,483,o),
(56,479,c),
(56,175,l),
(226,175,l)
);
}
);
width = 282;
}
);
unicode = 105;
},
{
glyphname = j;
kernLeft = j;
kernRight = j;
layers = (
{
layerId = UUID0;
shapes = (
{
closed = 1;
nodes = (
(8,-173,o),
(19,-195,o),
(52,-195,cs),
(90,-195,o),
(163,-161,o),
(163,-45,cs),
(163,303,l),
(83,303,l),
(83,-30,ls),
(83,-106,o),
(54,-125,o),
(6,-146,c),
(6,-146,l)
);
},
{
closed = 1;
nodes = (
(71,580,o),
(93,558,o),
(123,558,cs),
(153,558,o),
(174,580,o),
(174,608,cs),
(174,636,o),
(153,658,o),
(123,658,cs),
(93,658,o),
(71,636,o),
(71,608,cs),
(71,608,l)
);
},
{
closed = 1;
nodes = (
(163,430,ls),
(163,456,o),
(149,467,o),
(121,467,cs),
(105,467,o),
(90,463,o),
(83,460,c),
(83,225,l),
(163,214,l)
);
}
);
width = 243;
},
{
layerId = UUID1;
shapes = (
{
closed = 1;
nodes = (
(-6,-155,o),
(30,-195,o),
(88,-195,cs),
(166,-195,o),
(231,-139,o),
(231,-9,cs),
(231,232,l),
(61,232,l),
(61,7,ls),
(61,-48,o),
(41,-78,o),
(-7,-102,c),
(-7,-102,l)
);
},
{
closed = 1;
nodes = (
(48,571,o),
(86,531,o),
(141,531,cs),
(196,531,o),
(234,571,o),
(234,621,cs),
(234,671,o),
(196,711,o),
(141,711,cs),
(86,711,o),
(48,671,o),
(48,621,cs),
(48,621,l)
);
},
{
closed = 1;
nodes = (
(231,408,ls),
(231,470,o),
(203,488,o),
(137,488,cs),
(105,488,o),
(76,483,o),
(61,479,c),
(61,175,l),
(231,175,l)
);
}
);
width = 287;
}
);
unicode = 106;
},
{
glyphname = k;
kernRight = k;
layers = (
{
anchors = (
{
name = bottom;
pos = (244,0);
},
{
name = top;
pos = (120,645);
}
);
layerId = UUID0;
shapes = (
{
closed = 1;
nodes = (
(394,383,ls),
(415,400,o),
(427,413,o),
(427,432,cs),
(427,454,o),
(408,470,o),
(376,471,c),
(148,250,l),
(198,211,l)
);
},
{
closed = 1;
nodes = (
(359,23,ls),
(376,5,o),
(392,-6,o),
(412,-6,cs),
(437,-6,o),
(453,13,o),
(456,42,c),
(202,270,l),
(146,237,l)
);
},
{
closed = 1;
nodes = (
(77,31,ls),
(77,6,o),
(92,-5,o),
(120,-5,cs),
(136,-5,o),
(150,-1,o),
(157,2,c),
(157,256,l),
(77,268,l)
);
},
{
closed = 1;
nodes = (
(157,619,ls),
(157,644,o),
(143,655,o),
(115,655,cs),
(99,655,o),
(84,651,o),
(77,648,c),
(77,229,l),
(157,217,l)
);
}
);
width = 487;
},
{
anchors = (
{
name = bottom;
pos = (278,0);
},
{
name = top;
pos = (142,650);
}
);
layerId = UUID1;
shapes = (
{
closed = 1;
nodes = (
(425,298,ls),
(484,349,o),
(511,372,o),
(511,412,cs),
(511,458,o),
(465,493,o),
(396,493,c),
(171,263,l),
(295,186,l)
);
},
{
closed = 1;
nodes = (
(323,59,ls),
(362,10,o),
(392,-9,o),
(434,-9,cs),
(491,-9,o),
(521,26,o),
(527,88,c),
(316,298,l),
(179,239,l)
);
},
{
closed = 1;
nodes = (
(54,72,ls),
(54,10,o),
(82,-8,o),
(148,-8,cs),
(180,-8,o),
(209,-3,o),
(224,1,c),
(224,264,l),
(54,264,l)
);
},
{
closed = 1;
nodes = (
(224,581,ls),
(224,643,o),
(196,661,o),
(130,661,cs),
(98,661,o),
(69,656,o),
(54,652,c),
(54,175,l),
(224,175,l)
);
}
);
width = 555;
}
);
unicode = 107;
},
{
glyphname = l;
kernLeft = l;
kernRight = l;
layers = (
{
anchors = (
{
name = bottom;
pos = (113,0);
},
{
name = center;
pos = (123,327);
},
{
name = top;
pos = (120,645);
},
{
name = topright;
pos = (226,645);
}
);
layerId = UUID0;
shapes = (
{
closed = 1;
nodes = (
(83,31,ls),
(83,6,o),
(98,-5,o),
(126,-5,cs),
(142,-5,o),
(156,-1,o),
(163,2,c),
(163,252,l),
(83,264,l)
);
},
{
closed = 1;
nodes = (
(163,619,ls),
(163,644,o),
(149,655,o),
(120,655,cs),
(105,655,o),
(90,651,o),
(83,648,c),
(83,225,l),
(163,214,l)
);
}
);
width = 246;
},
{
anchors = (
{
name = bottom;
pos = (142,0);
},
{
name = center;
pos = (142,303);
},
{
name = top;
pos = (142,650);
},
{
name = topright;
pos = (264,650);
}
);
layerId = UUID1;
shapes = (
{
closed = 1;
nodes = (
(57,72,ls),
(57,10,o),
(85,-8,o),
(151,-8,cs),
(183,-8,o),
(212,-3,o),
(227,1,c),
(227,264,l),
(57,264,l)
);
},
{
closed = 1;
nodes = (
(227,581,ls),
(227,643,o),
(199,661,o),
(133,661,cs),
(101,661,o),
(72,656,o),
(57,652,c),
(57,175,l),
(227,175,l)
);
}
);
width = 284;
}
);
unicode = 108;
},
{
glyphname = m;
kernLeft = m;
kernRight = m;
layers = (
{
anchors = (
{
name = bottom;
pos = (408,0);
},
{
name = top;
pos = (408,460);
}
);
layerId = UUID0;
shapes = (
{
closed = 1;
nodes = (
(448,350,o),
(440,377,o),
(431,393,cs),
(425,403,o),
(421,409,o),
(413,417,c),
(387,453,o),
(333,475,o),
(265,475,cs),
(209,475,o),
(149,455,o),
(113,433,cs),
(85,415,o),
(75,399,o),
(75,372,cs),
(75,205,l),
(155,205,l),
(155,376,l),
(181,393,o),
(222,409,o),
(264,409,cs),
(327,409,o),
(368,379,o),
(368,314,cs),
(368,205,l),
(448,205,l),
(448,320,l)
);
},
{
closed = 1;
nodes = (
(741,424,o),
(671,475,o),
(564,475,cs),
(492,475,o),
(435,446,o),
(400,411,c),
(432,353,l),
(466,389,o),
(511,409,o),
(558,409,cs),
(620,409,o),
(661,379,o),
(661,314,cs),
(661,205,l),
(741,205,l),
(741,318,l)
);
},
{
closed = 1;
nodes = (
(75,31,ls),
(75,6,o),
(90,-5,o),
(118,-5,cs),
(134,-5,o),
(148,-1,o),
(155,2,c),
(155,258,l),
(75,258,l)
);
},
{
closed = 1;
nodes = (
(368,31,ls),
(368,6,o),
(382,-5,o),
(411,-5,cs),
(426,-5,o),
(441,-1,o),
(448,2,c),
(448,258,l),
(368,258,l)
);
},
{
closed = 1;
nodes = (
(661,31,ls),
(661,6,o),
(675,-5,o),
(704,-5,cs),
(719,-5,o),
(734,-1,o),
(741,2,c),
(741,258,l),
(661,258,l)
);
}
);
width = 816;
},
{
anchors = (
{
name = bottom;
pos = (424,0);
},
{
name = top;
pos = (424,479);
}
);
layerId = UUID1;
shapes = (
{
closed = 1;
nodes = (
(508,361,o),
(496,388,o),
(482,411,cs),
(476,421,o),
(463,431,o),
(453,440,c),
(406,483,o),
(347,501,o),
(285,501,cs),
(211,501,o),
(140,480,o),
(95,448,cs),
(68,429,o),
(52,409,o),
(52,373,cs),
(52,221,l),
(222,221,l),
(222,352,l),
(234,359,o),
(253,368,o),
(278,368,cs),
(311,368,o),
(338,351,o),
(338,311,cs),
(338,221,l),
(508,221,l),
(508,334,l)
);
},
{
closed = 1;
nodes = (
(794,452,o),
(694,501,o),
(592,501,cs),
(508,501,o),
(455,472,o),
(409,439,c),
(502,344,l),
(517,356,o),
(541,368,o),
(566,368,cs),
(601,368,o),
(624,351,o),
(624,311,cs),
(624,221,l),
(794,221,l),
(794,316,l)
);
},
{
closed = 1;
nodes = (
(52,72,ls),
(52,10,o),
(80,-8,o),
(146,-8,cs),
(178,-8,o),
(207,-3,o),
(222,1,c),
(222,264,l),
(52,264,l)
);
},
{
closed = 1;
nodes = (
(338,72,ls),
(338,10,o),
(366,-8,o),
(432,-8,cs),
(464,-8,o),
(493,-3,o),
(508,1,c),
(508,264,l),
(338,264,l)
);
},
{
closed = 1;
nodes = (
(624,72,ls),
(624,10,o),
(652,-8,o),
(718,-8,cs),
(750,-8,o),
(779,-3,o),
(794,1,c),
(794,264,l),
(624,264,l)
);
}
);
width = 847;
}
);
unicode = 109;
},
{
glyphname = n;
kernLeft = m;
kernRight = h;
layers = (
{
anchors = (
{
name = bottom;
pos = (275,0);
},
{
name = top;
pos = (275,460);
}
);
layerId = UUID0;
shapes = (
{
closed = 1;
nodes = (
(475,421,o),
(400,475,o),
(279,475,cs),
(207,475,o),
(147,453,o),
(113,433,cs),
(85,415,o),
(75,400,o),
(75,372,cs),
(75,203,l),
(155,203,l),
(155,376,l),
(184,393,o),
(226,409,o),
(279,409,cs),
(349,409,o),
(395,375,o),
(395,301,cs),
(395,203,l),
(475,203,l),
(475,305,l)
);
},
{
closed = 1;
nodes = (
(75,31,ls),
(75,6,o),
(90,-5,o),
(118,-5,cs),
(134,-5,o),
(148,-1,o),
(155,2,c),
(155,258,l),
(75,258,l)
);
},
{
closed = 1;
nodes = (
(395,31,ls),
(395,6,o),
(409,-5,o),
(438,-5,cs),
(453,-5,o),
(468,-1,o),
(475,2,c),
(475,258,l),
(395,258,l)
);
}
);
width = 550;
},
{
anchors = (
{
name = bottom;
pos = (292,0);
},
{
name = top;
pos = (292,479);
}
);
layerId = UUID1;
shapes = (
{
closed = 1;
nodes = (
(530,431,o),
(445,501,o),
(295,501,cs),
(212,501,o),
(140,480,o),
(95,448,cs),
(68,429,o),
(52,409,o),
(52,373,cs),
(52,221,l),
(222,221,l),
(222,350,l),
(243,361,o),
(266,368,o),
(293,368,cs),
(333,368,o),
(360,349,o),
(360,308,cs),
(360,221,l),
(530,221,l),
(530,313,l)
);
},
{
closed = 1;
nodes = (
(52,72,ls),
(52,10,o),
(80,-8,o),
(146,-8,cs),
(178,-8,o),
(207,-3,o),
(222,1,c),
(222,264,l),
(52,264,l)
);
},
{
closed = 1;
nodes = (
(360,72,ls),
(360,10,o),
(388,-8,o),
(454,-8,cs),
(486,-8,o),
(515,-3,o),
(530,1,c),
(530,264,l),
(360,264,l)
);
}
);
width = 583;
}
);
unicode = 110;
},
{
glyphname = o;
kernLeft = o;
kernRight = o;
layers = (
{
anchors = (
{
name = bottom;
pos = (277,0);
},
{
name = center;
pos = (277,230);
},
{
name = ogonek;
pos = (368,10);
},
{
name = top;
pos = (277,460);
},
{
name = topright;
pos = (384,460);
}
);
layerId = UUID0;
shapes = (
{
closed = 1;
nodes = (
(504,380,o),
(413,475,o),
(277,475,cs),
(140,475,o),
(49,380,o),
(49,231,cs),
(49,82,o),
(138,-13,o),
(277,-13,cs),
(415,-13,o),
(504,82,o),
(504,231,cs),
(504,231,l)
);
},
{
closed = 1;
nodes = (
(367,409,o),
(422,342,o),
(422,231,cs),
(422,120,o),
(368,53,o),
(277,53,cs),
(185,53,o),
(131,119,o),
(131,231,cs),
(131,342,o),
(187,409,o),
(277,409,cs),
(277,409,l)
);
}
);
width = 553;
},
{
anchors = (
{
name = bottom;
pos = (293,0);
},
{
name = center;
pos = (293,240);
},
{
name = ogonek;
pos = (419,10);
},
{
name = top;
pos = (293,479);
},
{
name = topright;
pos = (417,479);
}
);
layerId = UUID1;
shapes = (
{
closed = 1;
nodes = (
(555,399,o),
(450,501,o),
(293,501,cs),
(136,501,o),
(31,401,o),
(31,243,cs),
(31,81,o),
(134,-16,o),
(293,-16,cs),
(452,-16,o),
(555,83,o),
(555,243,cs),
(555,243,l)
);
},
{
closed = 1;
nodes = (
(348,368,o),
(381,322,o),
(381,243,cs),
(381,161,o),
(349,117,o),
(293,117,cs),
(237,117,o),
(205,160,o),
(205,243,cs),
(205,323,o),
(238,368,o),
(293,368,cs),
(293,368,l)
);
}
);
width = 586;
}
);
unicode = 111;
},
{
glyphname = p;
kernLeft = m;
kernRight = o;
layers = (
{
layerId = UUID0;
shapes = (
{
closed = 1;
nodes = (
(214,-13,o),
(160,7,o),
(137,27,c),
(137,101,l),
(164,75,o),
(203,53,o),
(261,53,cs),
(354,53,o),
(416,107,o),
(416,232,cs),
(416,363,o),
(343,409,o),
(261,409,cs),
(213,409,o),
(181,395,o),
(155,380,c),
(155,48,l),
(75,48,l),
(75,378,ls),
(75,405,o),
(82,418,o),
(111,435,cs),
(147,455,o),
(197,475,o),
(261,475,cs),
(393,475,o),
(497,402,o),
(497,232,cs),
(497,67,o),
(404,-13,o),
(272,-13,cs),
(272,-13,l)
);
},
{
closed = 1;
nodes = (
(155,-180,l),
(148,-183,o),
(134,-187,o),
(118,-187,cs),
(90,-187,o),
(75,-176,o),
(75,-150,cs),
(75,77,l),
(155,75,l)
);
}
);
width = 546;
},
{
layerId = UUID1;
shapes = (
{
closed = 1;
nodes = (
(255,-15,o),
(220,-3,o),
(188,12,c),
(188,154,l),
(211,137,o),
(240,119,o),
(277,119,cs),
(343,119,o),
(380,163,o),
(380,246,cs),
(380,331,o),
(347,368,o),
(283,368,cs),
(258,368,o),
(236,361,o),
(221,353,c),
(221,55,l),
(52,55,l),
(52,380,ls),
(52,416,o),
(68,439,o),
(95,456,cs),
(136,482,o),
(204,501,o),
(283,501,cs),
(444,501,o),
(554,424,o),
(554,246,cs),
(554,76,o),
(446,-15,o),
(303,-15,cs),
(303,-15,l)
);
},
{
closed = 1;
nodes = (
(222,-178,l),
(207,-182,o),
(178,-187,o),
(146,-187,cs),
(80,-187,o),
(52,-169,o),
(52,-107,cs),
(52,96,l),
(222,96,l)
);
}
);
width = 585;
}
);
unicode = 112;
},
{
glyphname = q;
kernLeft = o;
kernRight = g;
layers = (
{
layerId = UUID0;
shapes = (
{
closed = 1;
nodes = (
(471,382,ls),
(471,406,o),
(458,423,o),
(438,435,cs),
(403,456,o),
(350,475,o),
(286,475,cs),
(152,475,o),
(49,396,o),
(49,228,cs),
(49,59,o),
(144,-13,o),
(275,-13,cs),
(334,-13,o),
(373,3,o),
(400,22,c),
(400,95,l),
(377,72,o),
(335,53,o),
(287,53,cs),
(193,53,o),
(131,105,o),
(131,228,cs),
(131,358,o),
(202,409,o),
(288,409,cs),
(334,409,o),
(368,395,o),
(391,381,c),
(391,64,l),
(471,63,l)
);
},
{
closed = 1;
nodes = (
(391,-153,ls),
(391,-179,o),
(405,-190,o),
(434,-190,cs),
(449,-190,o),
(464,-186,o),
(471,-183,c),
(471,80,l),
(391,78,l)
);
}
);
width = 546;
},
{
layerId = UUID1;
shapes = (
{
closed = 1;
nodes = (
(533,380,ls),
(533,416,o),
(517,438,o),
(490,456,cs),
(455,479,o),
(383,501,o),
(308,501,cs),
(140,501,o),
(31,412,o),
(31,241,cs),
(31,72,o),
(136,-16,o),
(282,-16,cs),
(321,-16,o),
(358,-8,o),
(381,4,c),
(381,143,l),
(363,129,o),
(340,118,o),
(307,118,cs),
(241,118,o),
(203,157,o),
(203,241,cs),
(203,326,o),
(243,368,o),
(312,368,cs),
(334,368,o),
(353,362,o),
(364,356,c),
(364,76,l),
(533,76,l)
);
},
{
closed = 1;
nodes = (
(363,-110,ls),
(363,-172,o),
(391,-190,o),
(457,-190,cs),
(489,-190,o),
(518,-185,o),
(533,-181,c),
(533,96,l),
(363,96,l)
);
}
);
width = 587;
}
);
unicode = 113;
},
{
glyphname = r;
kernLeft = m;
kernRight = r;
layers = (
{
anchors = (
{
name = bottom;
pos = (105,0);
},
{
name = top;
pos = (210,460);
}
);
layerId = UUID0;
shapes = (
{
closed = 1;
nodes = (
(186,393,o),
(233,408,o),
(294,408,cs),
(315,408,o),
(339,405,o),
(352,402,c),
(358,410,o),
(363,422,o),
(363,435,cs),
(363,462,o),
(336,475,o),
(283,475,cs),
(209,475,o),
(147,455,o),
(112,433,cs),
(85,416,o),
(75,401,o),
(75,370,cs),
(75,218,l),
(155,218,l),
(155,376,l)
);
},
{
closed = 1;
nodes = (
(75,31,ls),
(75,6,o),
(90,-5,o),
(118,-5,cs),
(134,-5,o),
(148,-1,o),
(155,2,c),
(155,252,l),
(75,264,l)
);
}
);
width = 382;
},
{
anchors = (
{
name = bottom;
pos = (138,0);
},
{
name = top;
pos = (206,479);
}
);
layerId = UUID1;
shapes = (
{
closed = 1;
nodes = (
(250,359,o),
(290,367,o),
(324,367,cs),
(347,367,o),
(365,366,o),
(379,363,c),
(388,377,o),
(396,399,o),
(396,423,cs),
(396,476,o),
(360,500,o),
(287,500,cs),
(220,500,o),
(154,485,o),
(108,457,cs),
(74,436,o),
(52,407,o),
(52,369,cs),
(52,229,l),
(222,229,l),
(222,343,l)
);
},
{
closed = 1;
nodes = (
(52,72,ls),
(52,10,o),
(80,-8,o),
(146,-8,cs),
(178,-8,o),
(207,-3,o),
(222,1,c),
(222,264,l),
(52,264,l)
);
}
);
width = 411;
}
);
unicode = 114;
},
{
glyphname = s;
kernLeft = s;
kernRight = s;
layers = (
{
anchors = (
{
name = bottom;
pos = (224,0);
},
{
name = top;
pos = (224,460);
}
);
layerId = UUID0;
shapes = (
{
closed = 1;
nodes = (
(401,198,o),
(355,242,o),
(265,264,cs),
(196,281,l),
(150,292,o),
(131,314,o),
(131,344,cs),
(131,385,o),
(170,409,o),
(229,409,cs),
(289,409,o),
(334,385,o),
(358,369,c),
(372,376,o),
(382,390,o),
(382,407,cs),
(382,443,o),
(319,475,o),
(226,475,cs),
(109,475,o),
(52,414,o),
(52,344,cs),
(52,281,o),
(88,239,o),
(169,219,cs),
(252,197,ls),
(297,186,o),
(321,162,o),
(321,123,cs),
(321,78,o),
(285,53,o),
(217,53,cs),
(156,53,o),
(108,78,o),
(72,104,c),
(55,94,o),
(46,78,o),
(46,62,cs),
(46,24,o),
(116,-13,o),
(218,-13,cs),
(336,-13,o),
(401,38,o),
(401,123,cs),
(401,123,l)
);
}
);
width = 447;
},
{
anchors = (
{
name = bottom;
pos = (246,0);
},
{
name = top;
pos = (246,479);
}
);
layerId = UUID1;
shapes = (
{
closed = 1;
nodes = (
(462,226,o),
(413,276,o),
(285,305,cs),
(254,312,l),
(217,320,o),
(206,328,o),
(206,343,cs),
(206,364,o),
(231,374,o),
(275,374,cs),
(317,374,o),
(386,357,o),
(408,343,c),
(425,358,o),
(438,380,o),
(438,410,cs),
(438,474,o),
(358,502,o),
(260,502,cs),
(129,502,o),
(40,443,o),
(40,343,cs),
(40,253,o),
(97,208,o),
(212,185,cs),
(242,179,ls),
(279,172,o),
(294,162,o),
(294,144,cs),
(294,124,o),
(271,111,o),
(230,111,cs),
(165,111,o),
(115,131,o),
(77,152,c),
(58,138,o),
(43,116,o),
(43,84,cs),
(43,14,o),
(124,-17,o),
(237,-17,cs),
(384,-17,o),
(462,44,o),
(462,145,cs),
(462,145,l)
);
}
);
width = 492;
}
);
unicode = 115;
},
{
glyphname = t;
kernLeft = t;
kernRight = t;
layers = (
{
anchors = (
{
name = bottom;
pos = (196,0);
},
{
name = center;
pos = (186,230);
},
{
name = top;
pos = (113,546);
},
{
name = topright;
pos = (352,460);
}
);
layerId = UUID0;
shapes = (
{
closed = 1;
nodes = (
(76,121,ls),
(76,25,o),
(140,-13,o),
(233,-13,cs),
(294,-13,o),
(331,8,o),
(331,37,cs),
(331,53,o),
(323,65,o),
(315,73,c),
(296,62,o),
(265,53,o),
(242,53,cs),
(188,53,o),
(156,73,o),
(156,126,cs),
(156,264,l),
(76,264,l)
);
},
{
closed = 1;
nodes = (
(299,386,ls),
(318,386,o),
(329,398,o),
(329,420,cs),
(329,433,o),
(324,446,o),
(320,452,c),
(117,452,l),
(117,386,l)
);
},
{
closed = 1;
nodes = (
(156,567,ls),
(156,592,o),
(142,603,o),
(114,603,cs),
(98,603,o),
(83,599,o),
(76,596,c),
(76,234,l),
(156,234,l)
);
}
);
width = 372;
},
{
anchors = (
{
name = bottom;
pos = (207,0);
},
{
name = center;
pos = (199,240);
},
{
name = top;
pos = (131,569);
},
{
name = topright;
pos = (377,479);
}
);
layerId = UUID1;
shapes = (
{
closed = 1;
nodes = (
(54,155,ls),
(54,35,o),
(120,-15,o),
(237,-15,cs),
(333,-15,o),
(366,21,o),
(366,71,cs),
(366,96,o),
(356,114,o),
(344,128,c),
(328,123,o),
(305,119,o),
(285,119,cs),
(245,119,o),
(222,133,o),
(222,167,cs),
(222,264,l),
(54,264,l)
);
},
{
closed = 1;
nodes = (
(313,345,ls),
(347,345,o),
(370,364,o),
(370,411,cs),
(370,437,o),
(361,461,o),
(353,475,c),
(164,475,l),
(164,345,l)
);
},
{
closed = 1;
nodes = (
(222,529,ls),
(222,590,o),
(194,609,o),
(129,609,cs),
(98,609,o),
(69,603,o),
(54,599,c),
(54,240,l),
(222,240,l)
);
}
);
width = 397;
}
);
unicode = 116;
},
{
glyphname = u;
kernLeft = u;
kernRight = u;
layers = (
{
anchors = (
{
name = bottom;
pos = (275,0);
},
{
name = ogonek;
pos = (495,10);
},
{
name = top;
pos = (275,460);
},
{
name = topright;
pos = (430,460);
}
);
layerId = UUID0;
shapes = (
{
closed = 1;
nodes = (
(75,45,o),
(149,-13,o),
(282,-13,cs),
(358,-13,o),
(413,7,o),
(443,24,cs),
(471,40,o),
(475,54,o),
(475,82,cs),
(475,260,l),
(395,260,l),
(395,79,l),
(374,67,o),
(336,53,o),
(283,53,cs),
(203,53,o),
(155,87,o),
(155,173,cs),
(155,260,l),
(75,260,l),
(75,169,l)
);
},
{
closed = 1;
nodes = (
(475,430,ls),
(475,456,o),
(461,467,o),
(432,467,cs),
(417,467,o),
(402,463,o),
(395,460,c),
(395,208,l),
(475,208,l)
);
},
{
closed = 1;
nodes = (
(155,430,ls),
(155,456,o),
(141,467,o),
(113,467,cs),
(97,467,o),
(82,463,o),
(75,460,c),
(75,208,l),
(155,208,l)
);
}
);
width = 550;
},
{
anchors = (
{
name = bottom;
pos = (291,0);
},
{
name = ogonek;
pos = (524,10);
},
{
name = top;
pos = (291,479);
},
{
name = topright;
pos = (467,479);
}
);
layerId = UUID1;
shapes = (
{
closed = 1;
nodes = (
(52,45,o),
(154,-16,o),
(299,-16,cs),
(375,-16,o),
(441,0,o),
(488,29,cs),
(516,46,o),
(530,71,o),
(530,104,cs),
(530,259,l),
(360,259,l),
(360,129,l),
(350,124,o),
(330,117,o),
(300,117,cs),
(250,117,o),
(222,139,o),
(222,193,cs),
(222,259,l),
(52,259,l),
(52,193,l)
);
},
{
closed = 1;
nodes = (
(530,413,ls),
(530,475,o),
(502,493,o),
(436,493,cs),
(404,493,o),
(375,488,o),
(360,484,c),
(360,216,l),
(530,216,l)
);
},
{
closed = 1;
nodes = (
(222,413,ls),
(222,475,o),
(194,493,o),
(128,493,cs),
(96,493,o),
(67,488,o),
(52,484,c),
(52,216,l),
(222,216,l)
);
}
);
width = 582;
}
);
unicode = 117;
},
{
glyphname = v;
kernLeft = v;
kernRight = v;
layers = (
{
layerId = UUID0;
shapes = (
{
closed = 1;
nodes = (
(408,471,o),
(395,468,o),
(387,463,c),
(353,337,o),
(305,205,o),
(252,71,c),
(248,71,l),
(231,116,o),
(196,207,o),
(180,253,cs),
(118,432,ls),
(108,460,o),
(97,471,o),
(73,471,cs),
(57,471,o),
(39,462,o),
(30,449,c),
(67,326,o),
(164,82,o),
(202,15,cs),
(209,1,o),
(227,-6,o),
(250,-6,cs),
(269,-6,o),
(287,-1,o),
(294,4,c),
(358,126,o),
(459,394,o),
(459,436,cs),
(459,459,o),
(444,471,o),
(421,471,cs),
(421,471,l)
);
}
);
width = 495;
},
{
layerId = UUID1;
shapes = (
{
closed = 1;
nodes = (
(411,496,o),
(381,489,o),
(358,477,c),
(335,362,o),
(305,234,o),
(280,136,c),
(275,136,l),
(269,163,o),
(254,215,o),
(239,274,cs),
(200,427,ls),
(186,480,o),
(156,496,o),
(109,496,cs),
(72,496,o),
(38,479,o),
(20,461,c),
(48,340,o),
(132,101,o),
(168,32,cs),
(183,3,o),
(223,-10,o),
(275,-10,cs),
(320,-10,o),
(359,1,o),
(377,15,c),
(427,105,o),
(521,366,o),
(521,429,cs),
(521,478,o),
(484,496,o),
(438,496,cs),
(438,496,l)
);
}
);
width = 545;
}
);
unicode = 118;
},
{
glyphname = w;
kernLeft = w;
kernRight = w;
layers = (
{
anchors = (
{
name = bottom;
pos = (365,0);
},
{
name = top;
pos = (365,460);
}
);
layerId = UUID0;
shapes = (
{
closed = 1;
nodes = (
(403,218,o),
(445,84,o),
(473,13,cs),
(478,0,o),
(496,-6,o),
(521,-6,cs),
(541,-6,o),
(557,0,o),
(564,5,c),
(600,83,o),
(688,392,o),
(688,438,cs),
(688,460,o),
(673,471,o),
(651,471,cs),
(638,471,o),
(625,467,o),
(617,462,c),
(594,331,o),
(554,190,o),
(523,71,c),
(518,71,l),
(503,121,o),
(461,262,o),
(413,401,cs),
(407,418,o),
(391,427,o),
(367,427,cs),
(350,427,o),
(335,423,o),
(324,417,c),
(275,273,o),
(226,120,o),
(211,72,c),
(207,72,l),
(193,126,o),
(147,314,o),
(124,427,cs),
(118,457,o),
(107,471,o),
(82,471,cs),
(62,471,o),
(48,461,o),
(39,452,c),
(66,325,o),
(128,83,o),
(160,17,cs),
(167,1,o),
(187,-6,o),
(208,-6,cs),
(230,-6,o),
(242,-2,o),
(253,5,c),
(284,84,o),
(330,218,o),
(366,344,c),
(366,344,l)
);
}
);
width = 729;
},
{
anchors = (
{
name = bottom;
pos = (396,0);
},
{
name = top;
pos = (396,479);
}
);
layerId = UUID1;
shapes = (
{
closed = 1;
nodes = (
(417,184,o),
(451,80,o),
(468,32,cs),
(478,4,o),
(510,-10,o),
(567,-10,cs),
(611,-10,o),
(654,1,o),
(672,17,c),
(700,89,o),
(766,365,o),
(766,429,cs),
(766,478,o),
(731,496,o),
(685,496,cs),
(659,496,o),
(631,489,o),
(607,475,c),
(595,361,o),
(581,248,o),
(566,146,c),
(561,146,l),
(552,188,o),
(524,298,o),
(492,415,cs),
(483,445,o),
(447,460,o),
(400,460,cs),
(362,460,o),
(338,451,o),
(312,437,c),
(283,316,o),
(250,189,o),
(241,146,c),
(237,146,l),
(232,173,o),
(224,224,o),
(197,427,cs),
(190,477,o),
(159,496,o),
(112,496,cs),
(75,496,o),
(41,479,o),
(23,461,c),
(43,331,o),
(93,99,o),
(123,34,cs),
(136,6,o),
(180,-10,o),
(234,-10,cs),
(278,-10,o),
(311,1,o),
(329,17,c),
(342,65,o),
(381,181,o),
(400,273,c),
(400,273,l)
);
}
);
width = 791;
}
);
unicode = 119;
},
{
glyphname = x;
layers = (
{
layerId = UUID0;
shapes = (
{
closed = 1;
nodes = (
(164,197,o),
(109,136,o),
(61,72,cs),
(44,50,o),
(41,41,o),
(41,30,cs),
(41,10,o),
(56,-5,o),
(87,-5,cs),
(90,-5,o),
(99,-5,o),
(101,-5,c),
(149,62,o),
(202,134,o),
(252,199,c),
(278,221,l),
(323,276,o),
(372,334,o),
(417,390,cs),
(430,407,o),
(436,419,o),
(436,434,cs),
(436,455,o),
(419,469,o),
(391,469,cs),
(387,469,o),
(385,469,o),
(380,468,c),
(329,395,o),
(284,338,o),
(229,268,c),
(214,261,l)
);
},
{
closed = 1;
nodes = (
(215,318,o),
(171,385,o),
(131,438,cs),
(117,456,o),
(106,469,o),
(84,469,cs),
(62,469,o),
(47,453,o),
(42,427,c),
(95,359,o),
(143,298,o),
(202,227,c),
(225,206,l),
(265,151,o),
(312,85,o),
(352,29,cs),
(371,5,o),
(382,-6,o),
(404,-6,cs),
(428,-6,o),
(443,10,o),
(446,35,c),
(391,105,o),
(336,175,o),
(281,247,c),
(263,259,l)
);
}
);
width = 482;
},
{
layerId = UUID1;
shapes = (
{
closed = 1;
nodes = (
(167,259,o),
(123,208,o),
(79,157,cs),
(42,114,o),
(28,96,o),
(28,64,cs),
(28,23,o),
(65,-9,o),
(132,-9,cs),
(137,-9,o),
(147,-8,o),
(153,-8,c),
(198,57,o),
(243,121,o),
(288,186,c),
(338,207,l),
(371,244,o),
(405,281,o),
(438,318,cs),
(482,367,o),
(496,386,o),
(496,421,cs),
(496,463,o),
(456,493,o),
(394,493,cs),
(389,493,o),
(383,493,o),
(377,492,c),
(332,431,o),
(287,372,o),
(242,311,c),
(211,310,l)
);
},
{
closed = 1;
nodes = (
(275,341,o),
(241,386,o),
(206,432,cs),
(177,471,o),
(159,493,o),
(115,493,cs),
(69,493,o),
(35,458,o),
(25,407,c),
(80,343,o),
(134,278,o),
(189,214,c),
(214,198,l),
(246,153,o),
(277,107,o),
(309,62,cs),
(337,22,o),
(363,-10,o),
(413,-11,cs),
(459,-11,o),
(496,20,o),
(503,71,c),
(452,139,o),
(400,207,o),
(349,275,c),
(310,295,l)
);
}
);
width = 523;
}
);
unicode = 120;
},
{
glyphname = y;
kernLeft = v;
kernRight = v;
layers = (
{
anchors = (
{
name = bottom;
pos = (389,0);
},
{
name = top;
pos = (245,460);
}
);
layerId = UUID0;
shapes = (
{
closed = 1;
nodes = (
(193,57,o),
(210,44,o),
(233,38,c),
(201,-29,o),
(132,-112,o),
(89,-150,c),
(93,-171,o),
(109,-190,o),
(140,-190,cs),
(182,-190,o),
(232,-127,o),
(294,-14,cs),
(374,130,o),
(455,383,o),
(455,437,cs),
(455,459,o),
(439,471,o),
(416,471,cs),
(402,471,o),
(391,467,o),
(382,463,c),
(353,339,o),
(301,176,o),
(259,93,c),
(255,93,l),
(201,212,o),
(159,320,o),
(119,432,cs),
(109,460,o),
(96,471,o),
(73,471,cs),
(56,471,o),
(39,462,o),
(30,449,c),
(75,308,o),
(135,167,o),
(169,103,cs),
(169,103,l)
);
}
);
width = 489;
},
{
anchors = (
{
name = bottom;
pos = (454,0);
},
{
name = top;
pos = (276,479);
}
);
layerId = UUID1;
shapes = (
{
closed = 1;
nodes = (
(158,56,o),
(184,38,o),
(207,31,c),
(175,-16,o),
(129,-63,o),
(87,-99,c),
(94,-152,o),
(133,-189,o),
(186,-189,cs),
(251,-189,o),
(312,-128,o),
(387,2,cs),
(454,117,o),
(527,322,o),
(527,429,cs),
(527,478,o),
(486,496,o),
(440,496,cs),
(413,496,o),
(390,489,o),
(367,477,c),
(349,369,o),
(315,244,o),
(284,152,c),
(280,152,l),
(254,242,o),
(227,334,o),
(201,427,cs),
(186,480,o),
(156,496,o),
(109,496,cs),
(72,496,o),
(38,479,o),
(20,461,c),
(63,283,o),
(98,192,o),
(128,124,cs),
(128,124,l)
);
}
);
width = 551;
}
);
unicode = 121;
},
{
glyphname = z;
kernLeft = z;
kernRight = z;
layers = (
{
anchors = (
{
name = bottom;
pos = (235,0);
},
{
name = center;
pos = (235,230);
},
{
name = top;
pos = (245,460);
}
);
layerId = UUID0;
shapes = (
{
closed = 1;
nodes = (
(399,384,ls),
(410,398,o),
(418,411,o),
(418,426,cs),
(418,441,o),
(412,453,o),
(401,462,c),
(370,462,l),
(63,78,ls),
(53,65,o),
(45,51,o),
(45,35,cs),
(45,21,o),
(51,8,o),
(61,0,c),
(93,0,l)
);
},
{
closed = 1;
nodes = (
(81,462,ls),
(62,462,o),
(51,451,o),
(51,429,cs),
(51,415,o),
(56,403,o),
(60,396,c),
(390,396,l),
(390,462,l)
);
},
{
closed = 1;
nodes = (
(394,0,ls),
(414,0,o),
(425,11,o),
(425,33,cs),
(425,47,o),
(420,59,o),
(416,65,c),
(67,65,l),
(67,0,l)
);
}
);
width = 469;
},
{
anchors = (
{
name = bottom;
pos = (241,0);
},
{
name = center;
pos = (241,240);
},
{
name = top;
pos = (241,479);
}
);
layerId = UUID1;
shapes = (
{
closed = 1;
nodes = (
(412,333,ls),
(431,356,o),
(445,382,o),
(445,409,cs),
(445,441,o),
(431,466,o),
(410,485,c),
(351,485,l),
(67,152,ls),
(48,129,o),
(34,103,o),
(34,76,cs),
(34,44,o),
(48,19,o),
(69,0,c),
(136,0,l)
);
},
{
closed = 1;
nodes = (
(95,485,ls),
(61,485,o),
(38,466,o),
(38,419,cs),
(38,393,o),
(47,368,o),
(55,354,c),
(374,354,l),
(374,485,l)
);
},
{
closed = 1;
nodes = (
(400,0,ls),
(434,0,o),
(457,19,o),
(457,66,cs),
(457,92,o),
(448,117,o),
(440,131,c),
(121,131,l),
(121,0,l)
);
}
);
width = 481;
}
);
unicode = 122;
},
{
glyphname = braceleft;
kernRight = parenleft;
layers = (
{
layerId = UUID0;
shapes = (
{
closed = 1;
nodes = (
(166,297,o),
(192,343,o),
(192,414,cs),
(192,536,ls),
(192,584,o),
(209,601,o),
(248,601,c),
(250,609,o),
(251,616,o),
(251,624,cs),
(251,644,o),
(239,656,o),
(215,656,cs),
(159,656,o),
(120,617,o),
(120,537,cs),
(120,421,ls),
(120,351,o),
(95,314,o),
(44,306,c),
(40,298,o),
(37,284,o),
(37,275,cs),
(37,266,o),
(39,251,o),
(44,244,c),
(95,236,o),
(120,198,o),
(120,128,cs),
(120,5,ls),
(120,-75,o),
(159,-115,o),
(215,-115,cs),
(239,-115,o),
(251,-102,o),
(251,-83,cs),
(251,-75,o),
(250,-68,o),
(248,-60,c),
(209,-59,o),
(192,-42,o),
(192,5,cs),
(192,136,ls),
(192,206,o),
(166,252,o),
(122,275,c),
(122,275,l)
);
}
);
width = 281;
},
{
layerId = UUID1;
shapes = (
{
closed = 1;
nodes = (
(235,283,o),
(253,320,o),
(253,376,cs),
(253,484,ls),
(253,529,o),
(279,545,o),
(308,553,c),
(310,563,o),
(310,572,o),
(310,580,cs),
(310,642,o),
(279,664,o),
(226,664,cs),
(153,664,o),
(96,617,o),
(96,523,cs),
(96,422,ls),
(96,364,o),
(76,335,o),
(31,323,c),
(27,307,o),
(24,287,o),
(24,266,cs),
(24,245,o),
(27,225,o),
(31,209,c),
(76,197,o),
(96,168,o),
(96,110,cs),
(96,6,ls),
(96,-88,o),
(150,-135,o),
(223,-135,cs),
(275,-135,o),
(310,-111,o),
(310,-51,cs),
(310,-43,o),
(310,-34,o),
(308,-24,c),
(279,-16,o),
(253,0,o),
(253,45,cs),
(253,156,ls),
(253,212,o),
(235,249,o),
(199,266,c),
(199,266,l)
);
}
);
width = 337;
}
);
unicode = 123;
},
{
glyphname = bar;
kernLeft = bar;
kernRight = bar;
layers = (
{
layerId = UUID0;
shapes = (
{
closed = 1;
nodes = (
(162,670,o),
(150,681,o),
(124,681,cs),
(109,681,o),
(99,678,o),
(89,674,c),
(89,-147,ls),
(89,-176,o),
(101,-187,o),
(127,-187,cs),
(142,-187,o),
(152,-184,o),
(162,-180,c),
(162,641,l)
);
}
);
width = 251;
},
{
layerId = UUID1;
shapes = (
{
closed = 1;
nodes = (
(216,671,o),
(185,683,o),
(132,683,cs),
(107,683,o),
(78,679,o),
(65,676,c),
(65,-106,ls),
(65,-165,o),
(96,-176,o),
(149,-176,cs),
(174,-176,o),
(203,-172,o),
(216,-169,c),
(216,612,l)
);
}
);
width = 281;
}
);
unicode = 124;
},
{
glyphname = asciitilde;
layers = (
{
layerId = UUID0;
shapes = (
{
closed = 1;
nodes = (
(259,282,o),
(201,323,o),
(119,323,cs),
(64,323,o),
(25,295,o),
(25,253,cs),
(25,226,o),
(48,209,o),
(78,209,c),
(88,230,o),
(100,254,o),
(136,254,cs),
(189,254,o),
(248,213,o),
(329,213,cs),
(385,213,o),
(423,241,o),
(423,283,cs),
(423,310,o),
(399,327,o),
(370,327,c),
(359,306,o),
(348,282,o),
(312,282,cs),
(312,282,l)
);
}
);
width = 448;
},
{
layerId = UUID1;
shapes = (
{
closed = 1;
nodes = (
(264,313,o),
(206,347,o),
(138,347,cs),
(83,347,o),
(18,316,o),
(18,245,cs),
(18,189,o),
(65,151,o),
(119,151,c),
(129,166,o),
(146,191,o),
(179,191,cs),
(244,191,o),
(303,158,o),
(366,158,cs),
(431,158,o),
(487,190,o),
(487,260,cs),
(487,316,o),
(440,354,o),
(385,354,c),
(373,334,o),
(357,313,o),
(325,313,cs),
(325,313,l)
);
}
);
width = 503;
}
);
unicode = 126;
},
{
glyphname = cent;
layers = (
{
layerId = UUID0;
shapes = (
{
closed = 1;
nodes = (
(233,-80,ls),
(233,-101,o),
(248,-113,o),
(274,-113,cs),
(287,-113,o),
(300,-110,o),
(306,-108,c),
(306,28,l),
(233,28,l)
);
},
{
closed = 1;
nodes = (
(306,543,ls),
(306,564,o),
(292,576,o),
(266,576,cs),
(252,576,o),
(239,573,o),
(233,571,c),
(233,422,l),
(306,422,l)
);
},
{
closed = 1;
nodes = (
(344,408,o),
(376,391,o),
(404,371,c),
(419,377,o),
(430,390,o),
(430,406,cs),
(430,442,o),
(370,475,o),
(287,475,cs),
(156,475,o),
(49,392,o),
(49,230,cs),
(49,65,o),
(150,-13,o),
(288,-13,cs),
(372,-13,o),
(434,17,o),
(434,54,cs),
(434,71,o),
(423,83,o),
(409,91,c),
(380,71,o),
(345,53,o),
(289,53,cs),
(194,53,o),
(131,116,o),
(131,230,cs),
(131,345,o),
(198,408,o),
(289,408,cs),
(289,408,l)
);
}
);
width = 476;
},
{
layerId = UUID1;
shapes = (
{
closed = 1;
nodes = (
(186,-23,ls),
(186,-78,o),
(211,-94,o),
(269,-94,cs),
(297,-94,o),
(323,-90,o),
(336,-86,c),
(336,69,l),
(186,69,l)
);
},
{
closed = 1;
nodes = (
(336,511,ls),
(336,566,o),
(311,582,o),
(253,582,cs),
(225,582,o),
(199,578,o),
(186,574,c),
(186,396,l),
(336,396,l)
);
},
{
closed = 1;
nodes = (
(361,367,o),
(394,355,o),
(417,344,c),
(433,360,o),
(447,383,o),
(447,408,cs),
(447,462,o),
(392,501,o),
(297,501,cs),
(153,501,o),
(29,417,o),
(29,241,cs),
(29,74,o),
(135,-15,o),
(302,-15,cs),
(399,-15,o),
(454,20,o),
(454,73,cs),
(454,103,o),
(441,123,o),
(416,142,c),
(394,131,o),
(363,119,o),
(323,119,cs),
(254,119,o),
(201,158,o),
(201,241,cs),
(201,324,o),
(257,367,o),
(324,367,cs),
(324,367,l)
);
}
);
width = 492;
}
);
unicode = 162;
},
{
glyphname = sterling;
layers = (
{
layerId = UUID0;
shapes = (
{
closed = 1;
nodes = (
(401,263,o),
(413,272,o),
(413,296,cs),
(413,309,o),
(409,319,o),
(405,328,c),
(65,328,l),
(62,319,o),
(57,309,o),
(57,296,cs),
(57,272,o),
(70,263,o),
(85,263,cs),
(384,263,l)
);
},
{
closed = 1;
nodes = (
(145,126,o),
(115,90,o),
(55,60,c),
(54,54,o),
(54,51,o),
(54,45,cs),
(54,16,o),
(75,0,o),
(100,0,cs),
(440,0,ls),
(457,0,o),
(469,12,o),
(469,33,cs),
(469,47,o),
(466,57,o),
(461,66,c),
(168,66,l),
(204,98,o),
(223,146,o),
(223,217,cs),
(223,258,o),
(210,354,o),
(210,407,cs),
(210,505,o),
(251,553,o),
(337,553,cs),
(379,553,o),
(407,542,o),
(436,522,c),
(452,531,o),
(459,549,o),
(459,560,cs),
(459,587,o),
(418,621,o),
(332,621,cs),
(221,621,o),
(130,561,o),
(130,418,cs),
(130,363,o),
(145,264,o),
(145,219,cs),
(145,219,l)
);
}
);
width = 504;
},
{
layerId = UUID1;
shapes = (
{
closed = 1;
nodes = (
(395,240,o),
(418,258,o),
(418,308,cs),
(418,333,o),
(408,357,o),
(401,371,c),
(55,371,l),
(48,357,o),
(38,333,o),
(38,308,cs),
(38,258,o),
(61,240,o),
(95,240,cs),
(361,240,l)
);
},
{
closed = 1;
nodes = (
(116,153,o),
(89,118,o),
(36,94,c),
(35,88,o),
(35,85,o),
(35,79,cs),
(35,29,o),
(65,0,o),
(100,0,cs),
(431,0,ls),
(466,0,o),
(489,19,o),
(489,67,cs),
(489,93,o),
(480,118,o),
(472,132,c),
(251,132,l),
(271,159,o),
(281,192,o),
(281,227,cs),
(281,268,o),
(268,355,o),
(268,405,cs),
(268,466,o),
(303,489,o),
(360,489,cs),
(396,489,o),
(419,481,o),
(442,469,c),
(457,479,o),
(471,508,o),
(471,534,cs),
(471,594,o),
(422,625,o),
(332,625,cs),
(206,625,o),
(101,560,o),
(101,411,cs),
(101,359,o),
(116,275,o),
(116,229,cs),
(116,229,l)
);
}
);
width = 504;
}
);
unicode = 163;
},
{
glyphname = currency;
layers = (
{
layerId = UUID0;
shapes = (
{
closed = 1;
nodes = (
(60,483,l),
(71,507,o),
(89,519,o),
(107,519,cs),
(124,519,o),
(139,501,o),
(152,485,cs),
(206,420,l),
(145,382,l)
);
},
{
closed = 1;
nodes = (
(373,374,o),
(328,418,o),
(262,418,c),
(195,418,o),
(150,374,o),
(150,298,c),
(150,221,o),
(195,178,o),
(262,178,cs),
(328,178,o),
(373,221,o),
(373,298,c),
(373,298,l)
);
},
{
closed = 1;
nodes = (
(407,527,l),
(432,522,o),
(454,509,o),
(454,485,cs),
(454,468,o),
(444,453,o),
(430,436,cs),
(378,372,l),
(326,423,l)
);
},
{
closed = 1;
nodes = (
(447,179,o),
(363,115,o),
(262,115,cs),
(160,115,o),
(77,178,o),
(77,298,c),
(77,416,o),
(160,480,o),
(262,480,c),
(363,480,o),
(447,416,o),
(447,298,c),
(447,298,l)
);
},
{
closed = 1;
nodes = (
(465,109,l),
(454,84,o),
(436,72,o),
(418,72,cs),
(402,72,o),
(386,90,o),
(373,107,cs),
(320,171,l),
(380,210,l)
);
},
{
closed = 1;
nodes = (
(121,64,l),
(95,69,o),
(73,83,o),
(73,107,cs),
(73,123,o),
(83,139,o),
(97,155,cs),
(150,219,l),
(202,168,l)
);
}
);
width = 525;
},
{
layerId = UUID1;
shapes = (
{
closed = 1;
nodes = (
(55,478,l),
(70,512,o),
(93,528,o),
(118,528,cs),
(142,528,o),
(161,505,o),
(179,483,cs),
(223,427,l),
(140,375,l)
);
},
{
closed = 1;
nodes = (
(352,350,o),
(322,382,o),
(279,382,c),
(236,382,o),
(206,350,o),
(206,291,c),
(206,232,o),
(236,200,o),
(279,200,cs),
(322,200,o),
(352,232,o),
(352,291,c),
(352,291,l)
);
},
{
closed = 1;
nodes = (
(424,532,l),
(461,525,o),
(494,508,o),
(494,478,cs),
(494,459,o),
(482,439,o),
(464,416,cs),
(420,357,l),
(343,426,l)
);
},
{
closed = 1;
nodes = (
(493,161,o),
(397,89,o),
(280,89,cs),
(161,89,o),
(65,161,o),
(65,291,c),
(65,421,o),
(161,493,o),
(278,493,c),
(397,493,o),
(493,421,o),
(493,291,c),
(493,291,l)
);
},
{
closed = 1;
nodes = (
(506,99,l),
(491,65,o),
(468,49,o),
(443,49,cs),
(419,49,o),
(400,72,o),
(382,94,cs),
(338,150,l),
(421,202,l)
);
},
{
closed = 1;
nodes = (
(139,45,l),
(102,52,o),
(69,69,o),
(69,99,cs),
(69,118,o),
(81,138,o),
(99,161,cs),
(143,220,l),
(220,151,l)
);
}
);
width = 565;
}
);
unicode = 164;
},
{
glyphname = yen;
layers = (
{
layerId = UUID0;
shapes = (
{
closed = 1;
nodes = (
(419,432,o),
(501,563,o),
(501,586,cs),
(501,603,o),
(490,618,o),
(466,618,cs),
(452,618,o),
(444,616,o),
(432,610,c),
(372,504,o),
(341,445,o),
(278,345,c),
(273,345,l),
(130,578,ls),
(115,606,o),
(104,618,o),
(81,618,cs),
(61,618,o),
(46,604,o),
(37,592,c),
(74,522,o),
(142,415,o),
(205,323,c),
(345,319,l)
);
},
{
closed = 1;
nodes = (
(234,31,ls),
(234,7,o),
(250,-5,o),
(279,-5,cs),
(294,-5,o),
(309,-1,o),
(316,1,c),
(316,193,l),
(234,193,l)
);
},
{
closed = 1;
nodes = (
(472,280,ls),
(486,280,o),
(497,291,o),
(497,310,cs),
(497,322,o),
(493,332,o),
(489,342,c),
(264,342,l),
(244,280,l)
);
},
{
closed = 1;
nodes = (
(74,342,ls),
(61,342,o),
(49,334,o),
(49,312,cs),
(49,299,o),
(53,287,o),
(59,280,c),
(307,280,l),
(291,342,l)
);
},
{
closed = 1;
nodes = (
(484,148,o),
(495,159,o),
(495,178,cs),
(495,189,o),
(491,203,o),
(487,210,c),
(73,210,ls),
(61,210,o),
(49,204,o),
(49,180,cs),
(49,167,o),
(53,155,o),
(59,148,c),
(471,148,l)
);
}
);
width = 546;
},
{
layerId = UUID1;
shapes = (
{
closed = 1;
nodes = (
(542,468,o),
(559,510,o),
(559,538,cs),
(559,584,o),
(524,609,o),
(479,609,cs),
(454,609,o),
(422,602,o),
(399,591,c),
(362,500,o),
(349,457,o),
(312,376,c),
(306,376,l),
(227,536,ls),
(199,593,o),
(171,609,o),
(120,609,cs),
(78,609,o),
(50,586,o),
(33,562,c),
(65,482,o),
(136,361,o),
(197,267,c),
(431,285,l)
);
},
{
closed = 1;
nodes = (
(219,73,ls),
(219,13,o),
(242,-8,o),
(311,-8,cs),
(342,-8,o),
(375,-3,o),
(390,1,c),
(390,172,l),
(219,172,l)
);
},
{
closed = 1;
nodes = (
(504,254,ls),
(531,254,o),
(551,269,o),
(551,307,cs),
(551,328,o),
(543,346,o),
(537,359,c),
(291,359,l),
(274,254,l)
);
},
{
closed = 1;
nodes = (
(106,359,ls),
(79,359,o),
(60,344,o),
(60,305,cs),
(60,285,o),
(67,265,o),
(74,254,c),
(343,254,l),
(330,359,l)
);
},
{
closed = 1;
nodes = (
(531,102,o),
(551,117,o),
(551,155,cs),
(551,176,o),
(543,194,o),
(537,207,c),
(106,207,ls),
(79,207,o),
(60,192,o),
(60,153,cs),
(60,133,o),
(67,113,o),
(74,102,c),
(504,102,l)
);
}
);
width = 597;
}
);
unicode = 165;
},
{
glyphname = brokenbar;
layers = (
{
layerId = UUID0;
shapes = (
{
closed = 1;
nodes = (
(162,671,o),
(150,682,o),
(124,682,cs),
(109,682,o),
(99,679,o),
(89,675,c),
(89,343,ls),
(89,314,o),
(101,303,o),
(127,303,cs),
(142,303,o),
(152,306,o),
(162,310,c),
(162,642,l)
);
},
{
closed = 1;
nodes = (
(162,181,o),
(150,192,o),
(124,192,cs),
(109,192,o),
(99,189,o),
(89,185,c),
(89,-147,ls),
(89,-176,o),
(101,-187,o),
(127,-187,cs),
(142,-187,o),
(152,-184,o),
(162,-180,c),
(162,152,l)
);
}
);
width = 293;
},
{
layerId = UUID1;
shapes = (
{
closed = 1;
nodes = (
(216,671,o),
(185,683,o),
(132,683,cs),
(107,683,o),
(78,679,o),
(65,676,c),
(65,376,ls),
(65,317,o),
(96,306,o),
(149,306,cs),
(174,306,o),
(203,310,o),
(216,313,c),
(216,612,l)
);
},
{
closed = 1;
nodes = (
(216,189,o),
(185,201,o),
(132,201,cs),
(107,201,o),
(78,197,o),
(65,194,c),
(65,-106,ls),
(65,-165,o),
(96,-176,o),
(149,-176,cs),
(174,-176,o),
(203,-172,o),
(216,-169,c),
(216,130,l)
);
}
);
width = 293;
}
);
unicode = 166;
},
{
glyphname = section;
layers = (
{
layerId = UUID0;
shapes = (
{
closed = 1;
nodes = (
(444,162,o),
(390,194,o),
(307,212,cs),
(215,232,ls),
(170,241,o),
(141,262,o),
(141,300,cs),
(141,344,o),
(172,371,o),
(212,386,c),
(154,416,l),
(106,398,o),
(63,360,o),
(63,298,cs),
(63,219,o),
(119,184,o),
(191,169,cs),
(282,149,ls),
(340,136,o),
(365,121,o),
(365,85,cs),
(365,42,o),
(322,20,o),
(248,20,cs),
(182,20,o),
(130,43,o),
(85,71,c),
(70,61,o),
(60,48,o),
(60,30,cs),
(60,-9,o),
(140,-45,o),
(248,-45,cs),
(376,-45,o),
(444,3,o),
(444,85,cs),
(444,85,l)
);
},
{
closed = 1;
nodes = (
(444,363,o),
(388,394,o),
(306,415,cs),
(216,433,ls),
(172,442,o),
(146,457,o),
(146,494,cs),
(146,535,o),
(184,556,o),
(247,556,cs),
(307,556,o),
(357,536,o),
(393,518,c),
(404,525,o),
(414,538,o),
(414,555,cs),
(414,592,o),
(342,621,o),
(245,621,cs),
(133,621,o),
(67,575,o),
(67,494,cs),
(67,414,o),
(122,385,o),
(191,370,cs),
(281,352,ls),
(339,338,o),
(365,321,o),
(365,282,cs),
(365,237,o),
(335,210,o),
(292,195,c),
(343,157,l),
(391,174,o),
(444,215,o),
(444,283,cs),
(444,283,l)
);
}
);
width = 504;
},
{
layerId = UUID1;
shapes = (
{
closed = 1;
nodes = (
(496,171,o),
(443,210,o),
(335,232,cs),
(255,248,ls),
(219,255,o),
(208,274,o),
(208,289,cs),
(208,306,o),
(216,327,o),
(236,334,c),
(264,421,l),
(133,421,o),
(50,377,o),
(50,284,cs),
(50,199,o),
(101,151,o),
(217,133,cs),
(276,124,ls),
(314,118,o),
(328,111,o),
(328,93,cs),
(328,73,o),
(307,60,o),
(244,60,cs),
(176,60,o),
(125,80,o),
(87,101,c),
(68,87,o),
(53,65,o),
(53,33,cs),
(53,-37,o),
(136,-68,o),
(251,-68,cs),
(412,-68,o),
(496,-7,o),
(496,90,cs),
(496,90,l)
);
},
{
closed = 1;
nodes = (
(496,359,o),
(440,415,o),
(320,432,cs),
(264,440,ls),
(232,445,o),
(219,451,o),
(219,466,cs),
(219,487,o),
(245,497,o),
(288,497,cs),
(335,497,o),
(409,480,o),
(431,466,c),
(448,481,o),
(461,503,o),
(461,533,cs),
(461,597,o),
(374,625,o),
(273,625,cs),
(142,625,o),
(53,569,o),
(53,473,cs),
(53,387,o),
(110,344,o),
(215,324,cs),
(285,311,ls),
(322,304,o),
(338,286,o),
(338,268,cs),
(338,250,o),
(331,239,o),
(314,217,c),
(412,157,l),
(457,170,o),
(496,221,o),
(496,278,cs),
(496,278,l)
);
}
);
width = 546;
}
);
unicode = 167;
},
{
glyphname = copyright;
kernLeft = copyright;
kernRight = copyright;
layers = (
{
layerId = UUID0;
shapes = (
{
closed = 1;
nodes = (
(54,129,o),
(175,-2,o),
(355,-2,cs),
(534,-2,o),
(659,129,o),
(659,298,cs),
(659,472,o),
(534,609,o),
(355,609,cs),
(175,609,o),
(54,472,o),
(54,298,cs),
(54,298,l)
);
},
{
closed = 1;
nodes = (
(505,555,o),
(594,449,o),
(594,298,cs),
(594,153,o),
(505,52,o),
(355,52,cs),
(206,52,o),
(116,153,o),
(116,298,cs),
(116,449,o),
(206,555,o),
(355,555,cs),
(355,555,l)
);
},
{
closed = 1;
nodes = (
(408,420,o),
(429,408,o),
(448,398,c),
(459,403,o),
(469,415,o),
(469,425,cs),
(469,457,o),
(426,480,o),
(367,480,cs),
(287,480,o),
(198,426,o),
(198,303,cs),
(198,188,o),
(277,128,o),
(375,128,cs),
(440,128,o),
(473,155,o),
(473,177,cs),
(473,190,o),
(466,202,o),
(453,209,c),
(436,198,o),
(417,187,o),
(380,187,cs),
(316,187,o),
(269,227,o),
(269,303,cs),
(269,385,o),
(321,420,o),
(377,420,cs),
(377,420,l)
);
}
);
width = 713;
},
{
layerId = UUID1;
shapes = (
{
closed = 1;
nodes = (
(35,133,o),
(163,-2,o),
(355,-2,cs),
(546,-2,o),
(678,133,o),
(678,308,cs),
(678,482,o),
(546,619,o),
(355,619,cs),
(163,619,o),
(35,482,o),
(35,308,cs),
(35,308,l)
);
},
{
closed = 1;
nodes = (
(488,529,o),
(568,435,o),
(568,308,cs),
(568,180,o),
(488,90,o),
(355,90,cs),
(223,90,o),
(142,180,o),
(142,308,cs),
(142,435,o),
(223,529,o),
(355,529,cs),
(355,529,l)
);
},
{
closed = 1;
nodes = (
(417,373,o),
(435,366,o),
(447,359,c),
(459,371,o),
(467,388,o),
(467,408,cs),
(467,441,o),
(430,466,o),
(375,466,cs),
(301,466,o),
(215,416,o),
(215,313,cs),
(215,212,o),
(283,155,o),
(371,155,cs),
(431,155,o),
(472,182,o),
(472,212,cs),
(472,233,o),
(463,250,o),
(449,262,c),
(436,255,o),
(418,247,o),
(393,247,cs),
(356,247,o),
(329,271,o),
(329,312,cs),
(329,350,o),
(358,373,o),
(394,373,cs),
(394,373,l)
);
}
);
width = 713;
}
);
unicode = 169;
},
{
glyphname = ordfeminine;
kernLeft = ordmasculine;
kernRight = ordmasculine;
layers = (
{
layerId = UUID0;
shapes = (
{
closed = 1;
nodes = (
(126,358,o),
(104,374,o),
(104,404,cs),
(104,428,o),
(124,440,o),
(172,445,c),
(240,452,l),
(240,372,l),
(228,365,o),
(202,358,o),
(174,358,cs),
(174,358,l)
);
},
{
closed = 1;
nodes = (
(135,620,o),
(96,610,o),
(76,600,cs),
(62,592,o),
(55,585,o),
(55,570,cs),
(55,556,o),
(64,545,o),
(73,540,c),
(95,555,o),
(133,567,o),
(167,567,cs),
(217,567,o),
(240,554,o),
(240,510,cs),
(240,503,l),
(159,495,ls),
(83,488,o),
(42,459,o),
(42,400,cs),
(42,336,o),
(92,305,o),
(174,305,cs),
(213,305,o),
(250,313,o),
(277,326,cs),
(292,334,o),
(301,343,o),
(301,355,cs),
(301,510,ls),
(301,595,o),
(246,620,o),
(171,620,cs),
(171,620,l)
);
}
);
width = 352;
},
{
layerId = UUID1;
shapes = (
{
closed = 1;
nodes = (
(133,367,o),
(120,379,o),
(120,396,cs),
(120,414,o),
(138,422,o),
(162,424,c),
(209,428,l),
(209,375,l),
(200,370,o),
(180,367,o),
(164,367,cs),
(164,367,l)
);
},
{
closed = 1;
nodes = (
(129,623,o),
(91,619,o),
(66,609,cs),
(43,600,o),
(34,587,o),
(34,565,cs),
(34,548,o),
(42,530,o),
(53,522,c),
(78,533,o),
(112,541,o),
(144,541,cs),
(185,541,o),
(208,530,o),
(208,505,cs),
(208,501,l),
(123,492,ls),
(48,484,o),
(14,453,o),
(14,392,cs),
(14,322,o),
(73,287,o),
(164,287,cs),
(215,287,o),
(256,295,o),
(283,312,cs),
(300,323,o),
(315,336,o),
(315,358,cs),
(315,504,ls),
(315,585,o),
(254,623,o),
(159,623,cs),
(159,623,l)
);
}
);
width = 355;
}
);
unicode = 170;
},
{
glyphname = logicalnot;
layers = (
{
layerId = UUID0;
shapes = (
{
closed = 1;
nodes = (
(64,383,o),
(51,371,o),
(51,349,cs),
(51,337,o),
(54,326,o),
(58,318,c),
(415,318,l),
(415,215,ls),
(415,186,o),
(427,175,o),
(454,175,cs),
(469,175,o),
(480,178,o),
(490,182,c),
(490,346,ls),
(490,370,o),
(475,383,o),
(452,383,c),
(86,383,l)
);
}
);
width = 542;
},
{
layerId = UUID1;
shapes = (
{
closed = 1;
nodes = (
(53,448,o),
(30,429,o),
(30,382,cs),
(30,356,o),
(39,332,o),
(47,318,c),
(340,318,l),
(340,249,ls),
(340,187,o),
(369,174,o),
(425,174,cs),
(451,174,o),
(485,178,o),
(498,182,c),
(498,373,ls),
(498,419,o),
(469,448,o),
(423,448,c),
(87,448,l)
);
}
);
width = 528;
}
);
unicode = 172;
},
{
glyphname = registered;
layers = (
{
layerId = UUID0;
shapes = (
{
closed = 1;
nodes = (
(58,241,o),
(158,129,o),
(309,129,cs),
(457,129,o),
(561,241,o),
(561,377,cs),
(561,512,o),
(457,625,o),
(309,625,cs),
(158,625,o),
(58,512,o),
(58,377,cs),
(58,377,l)
);
},
{
closed = 1;
nodes = (
(113,491,o),
(191,576,o),
(309,576,cs),
(427,576,o),
(505,491,o),
(505,377,cs),
(505,263,o),
(427,178,o),
(309,178,cs),
(191,178,o),
(113,263,o),
(113,377,cs),
(113,377,l)
);
},
{
closed = 1;
nodes = (
(348,287,ls),
(358,274,o),
(368,267,o),
(381,267,cs),
(395,267,o),
(407,276,o),
(410,287,c),
(353,357,l),
(381,366,o),
(403,390,o),
(403,424,cs),
(403,472,o),
(365,499,o),
(301,499,cs),
(282,499,o),
(268,498,o),
(249,494,cs),
(234,491,o),
(227,485,o),
(227,476,cs),
(227,291,ls),
(227,271,o),
(237,268,o),
(253,268,cs),
(264,268,o),
(274,269,o),
(279,270,c),
(279,350,l),
(305,350,l)
);
},
{
closed = 1;
nodes = (
(279,456,l),
(287,457,o),
(296,458,o),
(305,458,cs),
(331,458,o),
(349,446,o),
(349,426,cs),
(349,404,o),
(337,391,o),
(311,391,cs),
(279,391,l)
);
}
);
width = 619;
},
{
layerId = UUID1;
shapes = (
{
closed = 1;
nodes = (
(37,225,o),
(146,110,o),
(309,110,cs),
(469,110,o),
(582,225,o),
(582,372,cs),
(582,519,o),
(469,635,o),
(309,635,cs),
(146,635,o),
(37,519,o),
(37,372,cs),
(37,372,l)
);
},
{
closed = 1;
nodes = (
(127,480,o),
(197,559,o),
(309,559,cs),
(421,559,o),
(489,480,o),
(489,372,cs),
(489,264,o),
(421,188,o),
(309,188,cs),
(197,188,o),
(127,264,o),
(127,372,cs),
(127,372,l)
);
},
{
closed = 1;
nodes = (
(332,286,ls),
(344,267,o),
(355,255,o),
(379,255,cs),
(396,255,o),
(414,265,o),
(419,283,c),
(369,351,l),
(393,363,o),
(412,385,o),
(412,419,cs),
(412,472,o),
(375,504,o),
(302,504,cs),
(276,504,o),
(251,501,o),
(232,495,cs),
(222,491,o),
(216,486,o),
(216,476,cs),
(216,289,ls),
(216,262,o),
(229,257,o),
(252,257,cs),
(269,257,o),
(282,259,o),
(290,260,c),
(290,336,l),
(300,336,l)
);
},
{
closed = 1;
nodes = (
(290,446,l),
(292,446,o),
(297,447,o),
(304,447,cs),
(327,447,o),
(338,439,o),
(338,419,cs),
(338,398,o),
(325,390,o),
(305,390,cs),
(290,390,l)
);
}
);
width = 619;
}
);
unicode = 174;
},
{
glyphname = degree;
layers = (
{
layerId = UUID0;
shapes = (
{
closed = 1;
nodes = (
(321,570,o),
(256,620,o),
(180,620,cs),
(104,620,o),
(39,569,o),
(39,489,cs),
(39,414,o),
(98,358,o),
(181,358,cs),
(257,358,o),
(321,409,o),
(321,489,cs),
(321,489,l)
);
},
{
closed = 1;
nodes = (
(216,561,o),
(251,536,o),
(251,489,cs),
(251,442,o),
(219,416,o),
(180,416,cs),
(142,416,o),
(109,442,o),
(109,489,cs),
(109,536,o),
(144,561,o),
(180,561,cs),
(180,561,l)
);
}
);
width = 360;
},
{
layerId = UUID1;
shapes = (
{
closed = 1;
nodes = (
(345,569,o),
(275,623,o),
(181,623,cs),
(86,623,o),
(16,569,o),
(16,475,cs),
(16,380,o),
(86,326,o),
(181,326,cs),
(275,326,o),
(345,380,o),
(345,475,cs),
(345,475,l)
);
},
{
closed = 1;
nodes = (
(206,527,o),
(227,512,o),
(227,475,cs),
(227,437,o),
(206,421,o),
(181,421,cs),
(156,421,o),
(134,437,o),
(134,475,cs),
(134,512,o),
(156,527,o),
(181,527,cs),
(181,527,l)
);
}
);
width = 361;
}
);
unicode = 176;
},
{
glyphname = plusminus;
layers = (
{
layerId = UUID0;
shapes = (
{
closed = 1;
nodes = (
(469,318,o),
(481,330,o),
(481,352,cs),
(481,365,o),
(478,375,o),
(475,383,c),
(101,383,ls),
(79,383,o),
(66,371,o),
(66,349,cs),
(66,337,o),
(69,326,o),
(72,318,c),
(446,318,l)
);
},
{
closed = 1;
nodes = (
(469,0,o),
(481,12,o),
(481,34,cs),
(481,47,o),
(478,57,o),
(475,65,c),
(101,65,ls),
(79,65,o),
(66,53,o),
(66,31,cs),
(66,19,o),
(69,8,o),
(72,0,c),
(446,0,l)
);
},
{
closed = 1;
nodes = (
(312,543,o),
(300,554,o),
(275,554,cs),
(260,554,o),
(249,551,o),
(239,547,c),
(239,184,ls),
(239,154,o),
(251,143,o),
(278,143,cs),
(292,143,o),
(302,147,o),
(312,150,c),
(312,514,l)
);
}
);
width = 548;
},
{
layerId = UUID1;
shapes = (
{
closed = 1;
nodes = (
(470,314,o),
(495,332,o),
(495,381,cs),
(495,408,o),
(486,434,o),
(478,448,c),
(111,448,ls),
(75,448,o),
(50,427,o),
(50,378,cs),
(50,351,o),
(58,328,o),
(67,314,c),
(434,314,l)
);
},
{
closed = 1;
nodes = (
(470,0,o),
(495,18,o),
(495,67,cs),
(495,94,o),
(486,120,o),
(478,134,c),
(111,134,ls),
(75,134,o),
(50,113,o),
(50,64,cs),
(50,37,o),
(58,14,o),
(67,0,c),
(434,0,l)
);
},
{
closed = 1;
nodes = (
(351,563,o),
(320,576,o),
(267,576,cs),
(242,576,o),
(210,570,o),
(197,567,c),
(197,254,ls),
(197,195,o),
(226,183,o),
(280,183,cs),
(305,183,o),
(338,188,o),
(351,191,c),
(351,504,l)
);
}
);
width = 545;
}
);
unicode = 177;
},
{
glyphname = paragraph;
layers = (
{
layerId = UUID0;
shapes = (
{
closed = 1;
nodes = (
(109,613,o),
(15,553,o),
(15,426,cs),
(15,303,o),
(95,248,o),
(170,248,cs),
(208,248,o),
(225,260,o),
(225,276,cs),
(225,544,l),
(291,544,l),
(291,-38,ls),
(291,-65,o),
(307,-75,o),
(335,-75,cs),
(349,-75,o),
(365,-71,o),
(371,-69,c),
(371,575,ls),
(371,607,o),
(355,613,o),
(328,613,cs),
(213,613,l)
);
}
);
width = 441;
},
{
layerId = UUID1;
shapes = (
{
closed = 1;
nodes = (
(126,613,o),
(16,542,o),
(16,397,cs),
(16,259,o),
(107,197,o),
(193,197,cs),
(237,197,o),
(256,210,o),
(256,227,cs),
(256,470,l),
(325,470,l),
(325,2,ls),
(325,-65,o),
(360,-78,o),
(419,-78,cs),
(448,-78,o),
(481,-72,o),
(495,-69,c),
(495,533,ls),
(495,600,o),
(460,613,o),
(401,613,cs),
(253,613,l)
);
}
);
width = 550;
}
);
unicode = 182;
},
{
glyphname = ordmasculine;
kernLeft = ordmasculine;
kernRight = ordmasculine;
layers = (
{
layerId = UUID0;
shapes = (
{
closed = 1;
nodes = (
(333,564,o),
(276,620,o),
(189,620,cs),
(106,620,o),
(44,566,o),
(44,463,cs),
(44,359,o),
(104,305,o),
(189,305,cs),
(276,305,o),
(333,361,o),
(333,462,cs),
(333,462,l)
);
},
{
closed = 1;
nodes = (
(240,566,o),
(270,527,o),
(270,462,cs),
(270,396,o),
(238,360,o),
(189,360,cs),
(139,360,o),
(107,397,o),
(107,463,cs),
(107,528,o),
(140,566,o),
(189,566,cs),
(189,566,l)
);
}
);
width = 378;
},
{
layerId = UUID1;
shapes = (
{
closed = 1;
nodes = (
(365,557,o),
(296,623,o),
(195,623,cs),
(93,623,o),
(25,558,o),
(25,456,cs),
(25,352,o),
(93,288,o),
(195,288,cs),
(296,288,o),
(365,348,o),
(365,456,cs),
(365,456,l)
);
},
{
closed = 1;
nodes = (
(230,537,o),
(252,507,o),
(252,456,cs),
(252,404,o),
(231,374,o),
(195,374,cs),
(160,374,o),
(138,403,o),
(138,456,cs),
(138,508,o),
(159,537,o),
(195,537,cs),
(195,537,l)
);
}
);
width = 396;
}
);
unicode = 186;
},
{
glyphname = AE;
kernRight = E;
layers = (
{
anchors = (
{
name = bottom;
pos = (422,0);
},
{
name = top;
pos = (452,602);
}
);
layerId = UUID0;
shapes = (
{
closed = 1;
nodes = (
(456,588,l),
(449,604,o),
(424,613,o),
(397,613,cs),
(374,613,o),
(356,607,o),
(346,601,c),
(246,424,o),
(90,136,o),
(54,67,cs),
(45,50,o),
(39,36,o),
(39,24,cs),
(39,4,o),
(52,-8,o),
(79,-8,cs),
(93,-8,o),
(98,-6,o),
(108,-3,c),
(199,172,l),
(222,214,l),
(398,541,l),
(457,541,l)
);
},
{
closed = 1;
nodes = (
(449,162,l),
(433,229,l),
(165,229,l),
(138,162,l)
);
},
{
closed = 1;
nodes = (
(404,44,ls),
(404,18,o),
(421,0,o),
(446,0,cs),
(461,0,o),
(478,6,o),
(484,8,c),
(484,549,l),
(404,549,l)
);
},
{
closed = 1;
nodes = (
(726,278,ls),
(745,278,o),
(757,292,o),
(757,314,cs),
(757,327,o),
(752,340,o),
(747,346,c),
(446,346,l),
(446,278,l)
);
},
{
closed = 1;
nodes = (
(762,0,ls),
(781,0,o),
(793,14,o),
(793,36,cs),
(793,50,o),
(787,62,o),
(783,68,c),
(446,68,l),
(446,0,l)
);
},
{
closed = 1;
nodes = (
(757,539,ls),
(776,539,o),
(788,554,o),
(788,576,cs),
(788,589,o),
(783,602,o),
(778,608,c),
(483,608,ls),
(453,608,o),
(435,593,o),
(435,571,cs),
(435,539,l)
);
}
);
width = 844;
},
{
anchors = (
{
name = bottom;
pos = (438,0);
},
{
name = top;
pos = (448,606);
}
);
layerId = UUID1;
shapes = (
{
closed = 1;
nodes = (
(511,555,l),
(494,598,o),
(422,611,o),
(378,611,cs),
(331,611,o),
(291,595,o),
(272,581,c),
(229,501,o),
(93,228,o),
(43,117,cs),
(32,93,o),
(28,75,o),
(28,56,cs),
(28,15,o),
(57,-10,o),
(118,-10,cs),
(147,-10,o),
(164,-4,o),
(182,2,c),
(261,179,l),
(278,215,l),
(386,459,l),
(511,459,l)
);
},
{
closed = 1;
nodes = (
(461,126,l),
(440,261,l),
(220,261,l),
(151,126,l)
);
},
{
closed = 1;
nodes = (
(392,90,ls),
(392,33,o),
(428,-3,o),
(485,-3,cs),
(517,-3,o),
(547,2,o),
(562,6,c),
(562,516,l),
(392,516,l)
);
},
{
closed = 1;
nodes = (
(745,240,ls),
(782,240,o),
(805,261,o),
(805,310,cs),
(805,338,o),
(796,361,o),
(787,376,c),
(485,376,l),
(485,240,l)
);
},
{
closed = 1;
nodes = (
(777,-3,ls),
(814,-3,o),
(837,18,o),
(837,67,cs),
(837,95,o),
(828,120,o),
(819,135,c),
(485,135,l),
(485,-3,l)
);
},
{
closed = 1;
nodes = (
(773,469,ls),
(810,469,o),
(833,491,o),
(833,540,cs),
(833,568,o),
(824,591,o),
(815,606,c),
(524,606,ls),
(491,606,o),
(440,600,o),
(440,567,cs),
(440,469,l)
);
}
);
width = 875;
}
);
unicode = 198;
},
{
glyphname = Eth;
kernRight = O;
layers = (
{
layerId = UUID0;
shapes = (
{
closed = 1;
nodes = (
(353,338,l),
(357,332,o),
(362,320,o),
(362,306,cs),
(362,284,o),
(350,270,o),
(331,270,cs),
(150,270,l),
(150,338,l)
);
},
{
closed = 1;
nodes = (
(20,270,l),
(15,276,o),
(10,289,o),
(10,302,cs),
(10,324,o),
(22,338,o),
(41,338,cs),
(213,338,l),
(213,270,l)
);
},
{
pos = (29,0);
ref = D;
}
);
width = 682;
},
{
layerId = UUID1;
shapes = (
{
closed = 1;
nodes = (
(368,374,l),
(377,359,o),
(386,336,o),
(386,308,cs),
(386,259,o),
(363,238,o),
(326,238,cs),
(197,238,l),
(197,374,l)
);
},
{
closed = 1;
nodes = (
(38,238,l),
(29,253,o),
(20,276,o),
(20,304,cs),
(20,353,o),
(43,374,o),
(80,374,cs),
(209,374,l),
(209,238,l)
);
},
{
pos = (34,0);
ref = D;
}
);
width = 700;
}
);
unicode = 208;
},
{
glyphname = multiply;
kernLeft = hyphen;
kernRight = hyphen;
layers = (
{
layerId = UUID0;
shapes = (
{
closed = 1;
nodes = (
(261,324,l),
(132,464,ls),
(125,472,o),
(114,481,o),
(101,481,cs),
(81,481,o),
(67,461,o),
(62,444,c),
(214,282,l),
(237,264,l),
(365,121,ls),
(372,113,o),
(383,106,o),
(395,106,cs),
(416,106,o),
(430,124,o),
(436,141,c),
(284,305,l)
);
},
{
closed = 1;
nodes = (
(419,417,o),
(427,428,o),
(427,440,cs),
(427,461,o),
(407,474,o),
(391,479,c),
(240,321,l),
(211,302,l),
(80,174,ls),
(70,164,o),
(60,153,o),
(60,141,cs),
(60,121,o),
(84,109,o),
(101,102,c),
(256,256,l),
(288,279,l),
(410,408,l)
);
}
);
width = 495;
},
{
layerId = UUID1;
shapes = (
{
closed = 1;
nodes = (
(283,347,l),
(162,478,ls),
(150,492,o),
(134,500,o),
(116,500,cs),
(77,500,o),
(38,459,o),
(28,418,c),
(184,258,l),
(237,211,l),
(333,94,ls),
(348,75,o),
(371,67,o),
(386,67,cs),
(430,67,o),
(462,96,o),
(476,143,c),
(331,310,l)
);
},
{
closed = 1;
nodes = (
(451,386,o),
(458,402,o),
(458,417,cs),
(458,457,o),
(420,492,o),
(379,505,c),
(230,349,l),
(171,311,l),
(59,191,ls),
(42,172,o),
(33,157,o),
(33,143,cs),
(33,108,o),
(73,68,o),
(126,60,c),
(260,205,l),
(323,254,l),
(432,367,l)
);
}
);
width = 504;
}
);
unicode = 215;
},
{
glyphname = Oslash;
kernLeft = O;
kernRight = O;
layers = (
{
anchors = (
{
name = bottom;
pos = (345,0);
},
{
name = top;
pos = (345,602);
}
);
layerId = UUID0;
shapes = (
{
closed = 1;
nodes = (
(125,121,l),
(75,70,ls),
(59,52,o),
(49,42,o),
(49,25,cs),
(49,10,o),
(62,-9,o),
(96,-16,c),
(181,76,l)
);
},
{
closed = 1;
nodes = (
(622,563,o),
(628,575,o),
(628,587,cs),
(628,605,o),
(608,620,o),
(581,626,c),
(501,537,l),
(547,480,l),
(603,541,l)
);
},
{
closed = 1;
nodes = (
(486,521,l),
(135,129,l),
(169,62,l),
(533,466,l)
);
},
{
closed = 1;
nodes = (
(634,506,o),
(507,621,o),
(344,621,cs),
(182,621,o),
(54,511,o),
(54,304,cs),
(54,101,o),
(179,-13,o),
(344,-13,cs),
(510,-13,o),
(634,96,o),
(634,304,cs),
(634,304,l)
);
},
{
closed = 1;
nodes = (
(552,145,o),
(470,56,o),
(344,56,cs),
(219,56,o),
(137,150,o),
(137,304,cs),
(137,463,o),
(220,552,o),
(344,552,cs),
(469,552,o),
(552,458,o),
(552,304,cs),
(552,304,l)
);
}
);
width = 689;
},
{
anchors = (
{
name = bottom;
pos = (352,0);
},
{
name = top;
pos = (352,606);
}
);
layerId = UUID1;
shapes = (
{
closed = 1;
nodes = (
(105,146,l),
(77,121,ls),
(46,93,o),
(35,74,o),
(35,52,cs),
(35,15,o),
(66,-8,o),
(110,-18,c),
(194,68,l)
);
},
{
closed = 1;
nodes = (
(644,507,o),
(664,531,o),
(664,555,cs),
(664,585,o),
(635,613,o),
(590,625,c),
(523,557,l),
(597,466,l),
(620,486,l)
);
},
{
closed = 1;
nodes = (
(445,482,l),
(196,226,l),
(248,117,l),
(521,394,l)
);
},
{
closed = 1;
nodes = (
(668,505,o),
(524,625,o),
(351,625,cs),
(173,625,o),
(35,512,o),
(35,304,cs),
(35,104,o),
(172,-18,o),
(351,-18,cs),
(533,-18,o),
(668,95,o),
(668,304,cs),
(668,304,l)
);
},
{
closed = 1;
nodes = (
(493,183,o),
(434,123,o),
(352,123,cs),
(269,123,o),
(210,183,o),
(210,304,cs),
(210,424,o),
(270,484,o),
(351,484,cs),
(435,484,o),
(493,423,o),
(493,304,cs),
(493,304,l)
);
}
);
width = 703;
}
);
unicode = 216;
},
{
glyphname = Thorn;
layers = (
{
layerId = UUID0;
shapes = (
{
closed = 1;
nodes = (
(279,182,ls),
(380,182,o),
(441,221,o),
(441,305,cs),
(441,389,o),
(380,428,o),
(279,428,cs),
(170,428,l),
(170,182,l)
);
},
{
closed = 1;
nodes = (
(298,497,ls),
(448,497,o),
(522,423,o),
(522,305,cs),
(522,190,o),
(448,113,o),
(298,113,cs),
(89,113,l),
(89,497,l)
);
},
{
closed = 1;
nodes = (
(170,1,l),
(164,-1,o),
(148,-5,o),
(134,-5,cs),
(104,-5,o),
(89,7,o),
(89,31,cs),
(89,161,l),
(170,161,l)
);
},
{
closed = 1;
nodes = (
(89,607,l),
(95,609,o),
(111,613,o),
(126,613,cs),
(155,613,o),
(170,601,o),
(170,577,cs),
(170,458,l),
(89,458,l)
);
}
);
width = 575;
},
{
layerId = UUID1;
shapes = (
{
closed = 1;
nodes = (
(287,228,ls),
(342,228,o),
(374,254,o),
(374,307,cs),
(374,360,o),
(342,386,o),
(287,386,cs),
(234,386,l),
(234,228,l)
);
},
{
closed = 1;
nodes = (
(306,523,ls),
(470,523,o),
(552,437,o),
(552,307,cs),
(552,177,o),
(470,91,o),
(306,91,cs),
(60,91,l),
(60,523,l)
);
},
{
closed = 1;
nodes = (
(235,1,l),
(220,-3,o),
(186,-8,o),
(154,-8,cs),
(84,-8,o),
(60,13,o),
(60,75,cs),
(60,169,l),
(235,169,l)
);
},
{
closed = 1;
nodes = (
(60,608,l),
(76,611,o),
(111,617,o),
(141,617,cs),
(207,617,o),
(235,599,o),
(235,534,cs),
(235,407,l),
(60,407,l)
);
}
);
width = 577;
}
);
unicode = 222;
},
{
glyphname = germandbls;
layers = (
{
layerId = UUID0;
shapes = (
{
closed = 1;
nodes = (
(160,474,ls),
(160,565,o),
(215,602,o),
(276,602,cs),
(348,602,o),
(397,547,o),
(397,472,c),
(354,454,ls),
(298,430,o),
(269,396,o),
(269,341,cs),
(269,282,o),
(304,245,o),
(370,210,c),
(437,174,o),
(454,153,o),
(454,117,cs),
(454,78,o),
(421,51,o),
(373,51,cs),
(329,51,o),
(298,66,o),
(273,86,c),
(255,79,o),
(247,61,o),
(247,45,cs),
(247,10,o),
(293,-17,o),
(370,-17,cs),
(467,-17,o),
(535,27,o),
(535,116,cs),
(535,190,o),
(490,223,o),
(407,271,cs),
(364,297,o),
(351,313,o),
(351,340,cs),
(351,368,o),
(363,381,o),
(398,398,cs),
(442,415,ls),
(467,425,o),
(477,439,o),
(477,463,cs),
(477,603,o),
(390,670,o),
(277,670,cs),
(165,670,o),
(80,601,o),
(80,475,cs),
(80,285,l),
(160,285,l)
);
},
{
closed = 1;
nodes = (
(80,29,ls),
(80,5,o),
(96,-8,o),
(125,-8,cs),
(139,-8,o),
(154,-4,o),
(160,-2,c),
(160,372,l),
(80,372,l)
);
}
);
width = 577;
},
{
layerId = UUID1;
shapes = (
{
closed = 1;
nodes = (
(224,454,ls),
(224,511,o),
(255,541,o),
(301,541,cs),
(346,541,o),
(377,507,o),
(377,462,c),
(369,459,ls),
(311,437,o),
(275,395,o),
(275,342,cs),
(275,273,o),
(311,235,o),
(380,198,c),
(406,184,o),
(420,171,o),
(420,147,cs),
(420,122,o),
(402,106,o),
(371,106,cs),
(345,106,o),
(324,114,o),
(306,124,c),
(287,111,o),
(273,90,o),
(273,59,cs),
(273,8,o),
(327,-17,o),
(406,-17,cs),
(514,-17,o),
(594,42,o),
(594,149,cs),
(594,227,o),
(558,269,o),
(476,309,cs),
(460,317,o),
(449,326,o),
(449,340,cs),
(449,355,o),
(460,365,o),
(477,374,cs),
(511,392,ls),
(536,405,o),
(546,425,o),
(546,458,cs),
(546,592,o),
(446,679,o),
(300,679,cs),
(164,679,o),
(54,608,o),
(54,454,cs),
(54,284,l),
(224,284,l)
);
},
{
closed = 1;
nodes = (
(54,72,ls),
(54,10,o),
(82,-8,o),
(148,-8,cs),
(180,-8,o),
(209,-3,o),
(224,1,c),
(224,298,l),
(54,298,l)
);
}
);
width = 624;
}
);
unicode = 223;
},
{
glyphname = ae;
kernLeft = a;
kernRight = e;
layers = (
{
anchors = (
{
name = bottom;
pos = (406,0);
},
{
name = top;
pos = (421,460);
}
);
layerId = UUID0;
shapes = (
{
closed = 1;
nodes = (
(732,227,ls),
(756,230,o),
(770,241,o),
(770,270,cs),
(770,390,o),
(684,475,o),
(563,475,cs),
(439,475,o),
(356,385,o),
(356,234,cs),
(356,226,o),
(367,209,o),
(367,202,c),
(367,74,o),
(447,-13,o),
(592,-13,cs),
(679,-13,o),
(750,21,o),
(750,59,cs),
(750,75,o),
(741,88,o),
(726,97,c),
(698,76,o),
(651,53,o),
(595,53,cs),
(490,53,o),
(427,109,o),
(419,216,c),
(419,238,l),
(419,348,o),
(478,410,o),
(562,410,cs),
(642,410,o),
(687,357,o),
(694,284,c),
(392,243,l),
(396,180,l)
);
},
{
closed = 1;
nodes = (
(162,52,o),
(123,81,o),
(123,131,cs),
(123,179,o),
(156,202,o),
(225,209,cs),
(349,222,l),
(349,77,l),
(333,66,o),
(296,52,o),
(240,52,cs),
(240,52,l)
);
},
{
closed = 1;
nodes = (
(185,475,o),
(137,464,o),
(101,446,cs),
(81,436,o),
(72,425,o),
(72,406,cs),
(72,392,o),
(82,379,o),
(93,370,c),
(131,390,o),
(183,409,o),
(238,409,cs),
(306,409,o),
(349,379,o),
(349,313,cs),
(349,285,l),
(207,271,ls),
(104,261,o),
(43,217,o),
(43,130,cs),
(43,37,o),
(115,-14,o),
(240,-14,cs),
(307,-14,o),
(346,-2,o),
(375,12,cs),
(397,23,o),
(413,40,o),
(413,70,cs),
(413,313,ls),
(413,424,o),
(348,475,o),
(239,475,cs),
(239,475,l)
);
}
);
width = 811;
},
{
anchors = (
{
name = bottom;
pos = (416,0);
},
{
name = top;
pos = (429,479);
}
);
layerId = UUID1;
shapes = (
{
closed = 1;
nodes = (
(729,214,ls),
(774,221,o),
(801,244,o),
(801,289,cs),
(801,412,o),
(705,501,o),
(564,501,cs),
(447,501,o),
(333,427,o),
(333,250,cs),
(333,242,o),
(334,235,o),
(334,227,c),
(343,74,o),
(439,-16,o),
(589,-16,cs),
(700,-16,o),
(780,14,o),
(780,80,cs),
(780,107,o),
(763,133,o),
(742,146,c),
(711,128,o),
(657,111,o),
(601,111,cs),
(542,111,o),
(489,132,o),
(476,193,c),
(470,277,l),
(472,341,o),
(511,377,o),
(565,377,cs),
(616,377,o),
(638,344,o),
(641,317,c),
(410,279,l),
(416,167,l)
);
},
{
closed = 1;
nodes = (
(211,108,o),
(192,126,o),
(192,153,cs),
(192,180,o),
(219,192,o),
(256,195,cs),
(328,201,l),
(328,121,l),
(315,113,o),
(283,108,o),
(260,108,cs),
(260,108,l)
);
},
{
closed = 1;
nodes = (
(205,501,o),
(148,495,o),
(109,480,cs),
(74,466,o),
(58,446,o),
(58,412,cs),
(58,385,o),
(72,358,o),
(89,346,c),
(127,362,o),
(179,374,o),
(228,374,cs),
(292,374,o),
(327,358,o),
(327,320,cs),
(327,313,l),
(196,299,ls),
(82,287,o),
(28,239,o),
(28,147,cs),
(28,37,o),
(117,-16,o),
(257,-16,cs),
(335,-16,o),
(379,0,o),
(422,25,cs),
(441,36,o),
(458,59,o),
(458,94,cs),
(458,318,ls),
(458,438,o),
(387,501,o),
(252,501,cs),
(252,501,l)
);
}
);
width = 831;
}
);
unicode = 230;
},
{
glyphname = eth;
kernLeft = o;
layers = (
{
layerId = UUID0;
shapes = (
{
closed = 1;
nodes = (
(423,562,l),
(440,568,o),
(448,575,o),
(448,594,cs),
(448,613,o),
(436,625,o),
(423,634,c),
(303,587,l),
(279,581,l),
(186,546,ls),
(169,540,o),
(161,529,o),
(161,516,cs),
(161,499,o),
(171,484,o),
(185,476,c),
(337,530,l),
(362,539,l)
);
},
{
closed = 1;
nodes = (
(388,401,o),
(334,436,o),
(259,436,cs),
(151,436,o),
(49,368,o),
(49,214,cs),
(49,73,o),
(136,-13,o),
(271,-13,cs),
(406,-13,o),
(487,73,o),
(487,239,cs),
(487,380,o),
(420,503,o),
(346,577,cs),
(337,586,o),
(338,584,o),
(329,592,cs),
(280,632,o),
(227,659,o),
(187,659,cs),
(159,659,o),
(145,636,o),
(145,611,c),
(185,599,o),
(223,584,o),
(258,557,cs),
(270,547,o),
(272,542,o),
(284,531,cs),
(330,491,o),
(361,438,o),
(387,377,cs),
(395,358,o),
(391,367,o),
(396,335,cs),
(402,300,o),
(406,265,o),
(406,220,cs),
(406,119,o),
(361,53,o),
(272,53,cs),
(185,53,o),
(131,116,o),
(131,214,cs),
(131,310,o),
(178,370,o),
(273,370,cs),
(330,370,o),
(379,339,o),
(408,289,c),
(421,352,l)
);
}
);
width = 537;
},
{
layerId = UUID1;
shapes = (
{
closed = 1;
nodes = (
(449,587,l),
(470,596,o),
(485,609,o),
(485,639,cs),
(485,666,o),
(465,694,o),
(447,707,c),
(301,648,l),
(192,603,l),
(128,576,ls),
(107,567,o),
(95,553,o),
(95,530,cs),
(95,503,o),
(113,477,o),
(132,462,c),
(323,534,l),
(381,557,l)
);
},
{
closed = 1;
nodes = (
(379,434,o),
(330,457,o),
(265,457,cs),
(147,457,o),
(31,380,o),
(31,226,cs),
(31,77,o),
(131,-16,o),
(293,-16,cs),
(475,-16,o),
(553,101,o),
(553,260,cs),
(553,399,o),
(485,527,o),
(396,611,cs),
(385,621,o),
(374,631,o),
(363,640,cs),
(305,685,o),
(242,711,o),
(183,711,cs),
(139,711,o),
(104,683,o),
(100,621,c),
(144,606,o),
(182,594,o),
(215,573,cs),
(227,565,o),
(252,546,o),
(263,537,cs),
(312,498,o),
(336,462,o),
(361,411,cs),
(373,387,o),
(356,357,o),
(363,330,cs),
(372,297,o),
(378,266,o),
(378,228,cs),
(378,160,o),
(351,118,o),
(294,118,cs),
(235,118,o),
(205,159,o),
(205,226,cs),
(205,287,o),
(238,330,o),
(298,330,cs),
(335,330,o),
(369,311,o),
(389,279,c),
(408,407,l)
);
}
);
width = 585;
}
);
unicode = 240;
},
{
glyphname = divide;
kernLeft = hyphen;
kernRight = hyphen;
layers = (
{
layerId = UUID0;
shapes = (
{
closed = 1;
nodes = (
(458,266,o),
(471,279,o),
(471,301,cs),
(471,313,o),
(468,324,o),
(464,332,c),
(86,332,ls),
(64,332,o),
(51,320,o),
(51,298,cs),
(51,285,o),
(54,275,o),
(58,266,c),
(436,266,l)
);
},
{
closed = 1;
nodes = (
(210,105,o),
(231,82,o),
(263,82,cs),
(295,82,o),
(316,105,o),
(316,135,cs),
(316,166,o),
(295,188,o),
(263,188,cs),
(231,188,o),
(210,166,o),
(210,135,cs),
(210,135,l)
);
},
{
closed = 1;
nodes = (
(210,428,o),
(231,406,o),
(263,406,cs),
(295,406,o),
(316,428,o),
(316,459,cs),
(316,489,o),
(295,512,o),
(263,512,cs),
(231,512,o),
(210,489,o),
(210,459,cs),
(210,459,l)
);
}
);
width = 522;
},
{
layerId = UUID1;
shapes = (
{
closed = 1;
nodes = (
(470,222,o),
(495,240,o),
(495,289,cs),
(495,316,o),
(486,342,o),
(478,356,c),
(91,356,ls),
(55,356,o),
(30,335,o),
(30,286,cs),
(30,259,o),
(38,236,o),
(47,222,c),
(434,222,l)
);
},
{
closed = 1;
nodes = (
(186,75,o),
(217,41,o),
(265,41,cs),
(313,41,o),
(343,75,o),
(343,120,cs),
(343,165,o),
(313,200,o),
(265,200,cs),
(217,200,o),
(186,165,o),
(186,120,cs),
(186,120,l)
);
},
{
closed = 1;
nodes = (
(186,413,o),
(217,379,o),
(265,379,cs),
(313,379,o),
(343,413,o),
(343,458,cs),
(343,503,o),
(313,538,o),
(265,538,cs),
(217,538,o),
(186,503,o),
(186,458,cs),
(186,458,l)
);
}
);
width = 525;
}
);
unicode = 247;
},
{
glyphname = oslash;
kernLeft = o;
kernRight = o;
layers = (
{
anchors = (
{
name = top;
pos = (277,460);
}
);
layerId = UUID0;
shapes = (
{
closed = 1;
nodes = (
(473,471,ls),
(477,477,o),
(479,481,o),
(479,487,cs),
(479,510,o),
(458,523,o),
(430,523,c),
(377,443,l),
(425,399,l)
);
},
{
closed = 1;
nodes = (
(120,54,l),
(77,-8,ls),
(73,-14,o),
(71,-20,o),
(71,-26,cs),
(71,-46,o),
(90,-61,o),
(121,-61,c),
(179,25,l)
);
},
{
closed = 1;
nodes = (
(403,373,l),
(347,399,l),
(157,104,l),
(195,47,l)
);
},
{
closed = 1;
nodes = (
(504,380,o),
(413,475,o),
(277,475,cs),
(140,475,o),
(49,380,o),
(49,231,cs),
(49,82,o),
(138,-13,o),
(277,-13,cs),
(415,-13,o),
(504,82,o),
(504,231,cs),
(504,231,l)
);
},
{
closed = 1;
nodes = (
(367,409,o),
(424,342,o),
(424,231,cs),
(424,119,o),
(368,53,o),
(277,53,cs),
(185,53,o),
(129,119,o),
(129,231,cs),
(129,342,o),
(187,409,o),
(277,409,cs),
(277,409,l)
);
}
);
width = 553;
},
{
anchors = (
{
name = top;
pos = (293,479);
}
);
layerId = UUID1;
shapes = (
{
closed = 1;
nodes = (
(506,478,ls),
(511,486,o),
(513,492,o),
(513,499,cs),
(513,526,o),
(471,547,o),
(447,547,c),
(385,453,l),
(440,383,l)
);
},
{
closed = 1;
nodes = (
(140,92,l),
(83,9,ls),
(77,1,o),
(75,-6,o),
(75,-13,cs),
(75,-37,o),
(114,-61,o),
(141,-61,c),
(220,54,l)
);
},
{
closed = 1;
nodes = (
(416,351,l),
(340,386,l),
(189,163,l),
(239,88,l)
);
},
{
closed = 1;
nodes = (
(555,399,o),
(450,501,o),
(293,501,cs),
(136,501,o),
(31,401,o),
(31,243,cs),
(31,81,o),
(134,-16,o),
(293,-16,cs),
(452,-16,o),
(555,83,o),
(555,243,cs),
(555,243,l)
);
},
{
closed = 1;
nodes = (
(348,370,o),
(393,327,o),
(393,243,cs),
(393,156,o),
(349,115,o),
(293,115,cs),
(237,115,o),
(193,160,o),
(193,243,cs),
(193,328,o),
(238,370,o),
(293,370,cs),
(293,370,l)
);
}
);
width = 586;
}
);
unicode = 248;
},
{
glyphname = thorn;
layers = (
{
layerId = UUID0;
shapes = (
{
closed = 1;
nodes = (
(77,649,l),
(83,651,o),
(99,655,o),
(114,655,cs),
(143,655,o),
(157,642,o),
(157,619,cs),
(157,52,l),
(77,52,l)
);
},
{
closed = 1;
nodes = (
(216,-13,o),
(162,7,o),
(139,27,c),
(139,101,l),
(166,75,o),
(205,53,o),
(263,53,cs),
(356,53,o),
(418,107,o),
(418,232,cs),
(418,363,o),
(345,409,o),
(263,409,cs),
(215,409,o),
(180,395,o),
(153,379,c),
(126,435,l),
(153,452,o),
(206,475,o),
(269,475,cs),
(396,475,o),
(499,402,o),
(499,232,cs),
(499,67,o),
(406,-13,o),
(274,-13,cs),
(274,-13,l)
);
},
{
closed = 1;
nodes = (
(157,-180,l),
(150,-183,o),
(136,-187,o),
(120,-187,cs),
(92,-187,o),
(77,-175,o),
(77,-150,cs),
(77,77,l),
(157,75,l)
);
}
);
width = 553;
},
{
layerId = UUID1;
shapes = (
{
closed = 1;
nodes = (
(54,652,l),
(69,656,o),
(98,661,o),
(130,661,cs),
(196,661,o),
(224,643,o),
(224,581,cs),
(224,55,l),
(54,55,l)
);
},
{
closed = 1;
nodes = (
(257,-15,o),
(222,-3,o),
(190,12,c),
(190,154,l),
(213,137,o),
(242,119,o),
(279,119,cs),
(345,119,o),
(382,163,o),
(382,246,cs),
(382,331,o),
(345,368,o),
(285,368,cs),
(260,368,o),
(226,361,o),
(190,332,c),
(190,474,l),
(217,485,o),
(258,501,o),
(312,501,cs),
(445,501,o),
(556,424,o),
(556,246,cs),
(556,76,o),
(448,-15,o),
(305,-15,cs),
(305,-15,l)
);
},
{
closed = 1;
nodes = (
(224,-167,l),
(209,-171,o),
(180,-176,o),
(148,-176,cs),
(82,-176,o),
(54,-158,o),
(54,-96,cs),
(54,96,l),
(224,96,l)
);
}
);
width = 587;
}
);
unicode = 254;
},
{
glyphname = aogonek;
kernLeft = a;
kernRight = a;
layers = (
{
layerId = UUID0;
shapes = (
{
closed = 1;
nodes = (
(307,1,o),
(267,-30,o),
(267,-89,cs),
(267,-149,o),
(316,-185,o),
(374,-185,cs),
(410,-185,o),
(423,-170,o),
(423,-149,cs),
(423,-142,o),
(421,-134,o),
(417,-126,c),
(402,-126,ls),
(363,-126,o),
(339,-109,o),
(339,-73,cs),
(339,-24,o),
(368,0,o),
(411,34,c),
(339,16,l)
);
},
{
ref = a;
}
);
width = 499;
},
{
layerId = UUID1;
shapes = (
{
closed = 1;
nodes = (
(292,-10,o),
(256,-44,o),
(256,-96,cs),
(256,-163,o),
(309,-202,o),
(382,-202,cs),
(454,-202,o),
(477,-166,o),
(477,-128,cs),
(477,-111,o),
(474,-98,o),
(470,-86,c),
(465,-86,ls),
(430,-86,o),
(411,-69,o),
(411,-42,cs),
(411,-8,o),
(430,11,o),
(457,33,c),
(317,2,l)
);
},
{
ref = a;
}
);
width = 544;
}
);
unicode = 261;
},
{
glyphname = Dcroat;
kernRight = O;
layers = (
{
layerId = UUID0;
shapes = (
{
closed = 1;
nodes = (
(355,338,l),
(359,332,o),
(365,320,o),
(365,306,cs),
(365,284,o),
(353,270,o),
(333,270,cs),
(159,270,l),
(159,338,l)
);
},
{
closed = 1;
nodes = (
(15,270,l),
(10,276,o),
(5,289,o),
(5,302,cs),
(5,324,o),
(17,338,o),
(36,338,cs),
(223,338,l),
(223,270,l)
);
},
{
pos = (39,0);
ref = D;
}
);
width = 691;
},
{
layerId = UUID1;
shapes = (
{
closed = 1;
nodes = (
(361,374,l),
(370,359,o),
(379,336,o),
(379,308,cs),
(379,259,o),
(356,238,o),
(319,238,cs),
(197,238,l),
(197,374,l)
);
},
{
closed = 1;
nodes = (
(33,238,l),
(24,253,o),
(15,276,o),
(15,304,cs),
(15,353,o),
(38,374,o),
(75,374,cs),
(209,374,l),
(209,238,l)
);
},
{
pos = (34,0);
ref = D;
}
);
width = 700;
}
);
unicode = 272;
},
{
glyphname = dcroat;
kernLeft = o;
layers = (
{
layerId = UUID0;
shapes = (
{
closed = 1;
nodes = (
(535,527,o),
(545,536,o),
(545,559,cs),
(545,571,o),
(540,581,o),
(537,587,c),
(306,587,ls),
(289,587,o),
(279,578,o),
(279,557,cs),
(279,544,o),
(283,534,o),
(287,527,c),
(517,527,l)
);
},
{
closed = 1;
nodes = (
(366,64,o),
(338,53,o),
(292,53,cs),
(195,53,o),
(131,105,o),
(131,227,cs),
(131,361,o),
(202,409,o),
(284,409,cs),
(339,409,o),
(379,388,o),
(405,363,c),
(405,437,l),
(378,458,o),
(328,475,o),
(276,475,cs),
(151,475,o),
(49,402,o),
(49,229,cs),
(49,59,o),
(148,-13,o),
(293,-13,cs),
(357,-13,o),
(408,6,o),
(435,23,cs),
(459,38,o),
(470,50,o),
(470,76,cs),
(470,416,l),
(390,415,l),
(390,79,l)
);
},
{
closed = 1;
nodes = (
(470,620,ls),
(470,645,o),
(456,656,o),
(427,656,cs),
(412,656,o),
(397,652,o),
(390,649,c),
(390,395,l),
(470,396,l)
);
}
);
width = 550;
},
{
layerId = UUID1;
shapes = (
{
closed = 1;
nodes = (
(578,530,o),
(594,545,o),
(594,578,cs),
(594,597,o),
(586,614,o),
(581,623,c),
(320,623,ls),
(294,623,o),
(278,609,o),
(278,576,cs),
(278,558,o),
(285,540,o),
(291,530,c),
(552,530,l)
);
},
{
closed = 1;
nodes = (
(352,125,o),
(331,118,o),
(307,118,cs),
(241,118,o),
(203,157,o),
(203,241,cs),
(203,326,o),
(243,368,o),
(312,368,cs),
(347,368,o),
(375,353,o),
(392,340,c),
(392,478,l),
(369,490,o),
(334,501,o),
(288,501,cs),
(144,501,o),
(31,417,o),
(31,241,cs),
(31,72,o),
(134,-16,o),
(308,-16,cs),
(387,-16,o),
(449,7,o),
(488,32,cs),
(518,51,o),
(532,74,o),
(532,107,cs),
(532,421,l),
(363,421,l),
(363,131,l)
);
},
{
closed = 1;
nodes = (
(532,611,ls),
(532,673,o),
(504,691,o),
(438,691,cs),
(406,691,o),
(377,686,o),
(362,682,c),
(362,389,l),
(532,389,l)
);
}
);
width = 592;
}
);
unicode = 273;
},
{
glyphname = Hbar;
layers = (
{
layerId = UUID0;
shapes = (
{
closed = 1;
nodes = (
(620,435,o),
(630,443,o),
(630,467,cs),
(630,480,o),
(625,491,o),
(622,497,c),
(53,497,ls),
(35,497,o),
(24,488,o),
(24,465,cs),
(24,452,o),
(29,441,o),
(33,435,c),
(601,435,l)
);
},
{
pos = (4,0);
ref = H;
}
);
width = 654;
},
{
layerId = UUID1;
shapes = (
{
closed = 1;
nodes = (
(665,432,o),
(681,447,o),
(681,480,cs),
(681,499,o),
(673,516,o),
(668,525,c),
(62,525,ls),
(36,525,o),
(20,511,o),
(20,478,cs),
(20,460,o),
(27,442,o),
(33,432,c),
(639,432,l)
);
},
{
pos = (15,0);
ref = H;
}
);
width = 701;
}
);
unicode = 294;
},
{
glyphname = hbar;
layers = (
{
layerId = UUID0;
shapes = (
{
closed = 1;
nodes = (
(15,587,o),
(5,578,o),
(5,556,cs),
(5,543,o),
(10,533,o),
(13,527,c),
(243,527,ls),
(260,527,o),
(271,536,o),
(271,558,cs),
(271,571,o),
(267,580,o),
(262,587,c),
(32,587,l)
);
},
{
closed = 1;
nodes = (
(476,293,ls),
(476,416,o),
(398,475,o),
(287,475,cs),
(217,475,o),
(164,446,o),
(132,423,c),
(147,358,l),
(177,386,o),
(224,409,o),
(276,409,cs),
(347,409,o),
(396,371,o),
(396,291,cs),
(396,199,l),
(476,199,l)
);
},
{
closed = 1;
nodes = (
(77,31,ls),
(77,6,o),
(92,-5,o),
(120,-5,cs),
(136,-5,o),
(150,-1,o),
(157,2,c),
(157,264,l),
(77,264,l)
);
},
{
closed = 1;
nodes = (
(396,31,ls),
(396,6,o),
(410,-5,o),
(439,-5,cs),
(454,-5,o),
(469,-1,o),
(476,2,c),
(476,262,l),
(396,263,l)
);
},
{
closed = 1;
nodes = (
(157,620,ls),
(157,645,o),
(143,656,o),
(115,656,cs),
(99,656,o),
(84,652,o),
(77,649,c),
(77,225,l),
(157,225,l)
);
}
);
width = 558;
},
{
layerId = UUID1;
shapes = (
{
closed = 1;
nodes = (
(16,623,o),
(0,608,o),
(0,575,cs),
(0,556,o),
(8,539,o),
(13,530,c),
(274,530,ls),
(300,530,o),
(316,544,o),
(316,577,cs),
(316,595,o),
(309,613,o),
(303,623,c),
(42,623,l)
);
},
{
closed = 1;
nodes = (
(532,304,ls),
(532,434,o),
(454,501,o),
(323,501,cs),
(272,501,o),
(228,486,o),
(198,470,c),
(198,333,l),
(221,350,o),
(251,368,o),
(291,368,cs),
(331,368,o),
(362,348,o),
(362,294,cs),
(362,205,l),
(532,205,l)
);
},
{
closed = 1;
nodes = (
(54,72,ls),
(54,10,o),
(82,-8,o),
(148,-8,cs),
(180,-8,o),
(209,-3,o),
(224,1,c),
(224,264,l),
(54,264,l)
);
},
{
closed = 1;
nodes = (
(362,72,ls),
(362,10,o),
(390,-8,o),
(456,-8,cs),
(488,-8,o),
(517,-3,o),
(532,1,c),
(532,264,l),
(362,264,l)
);
},
{
closed = 1;
nodes = (
(224,611,ls),
(224,673,o),
(196,691,o),
(130,691,cs),
(98,691,o),
(69,686,o),
(54,682,c),
(54,175,l),
(224,175,l)
);
}
);
width = 591;
}
);
unicode = 295;
},
{
glyphname = Iogonek;
layers = (
{
layerId = UUID0;
shapes = (
{
closed = 1;
nodes = (
(81,-13,o),
(63,-44,o),
(63,-84,cs),
(63,-145,o),
(108,-191,o),
(176,-191,cs),
(216,-191,o),
(230,-175,o),
(230,-153,cs),
(230,-145,o),
(228,-135,o),
(224,-128,c),
(200,-128,ls),
(161,-128,o),
(136,-106,o),
(136,-66,cs),
(136,-40,o),
(148,-16,o),
(171,2,c),
(114,9,l)
);
},
{
ref = I;
}
);
width = 262;
},
{
layerId = UUID1;
shapes = (
{
closed = 1;
nodes = (
(99,2,o),
(63,-31,o),
(63,-90,cs),
(63,-158,o),
(115,-208,o),
(191,-208,cs),
(245,-208,o),
(284,-180,o),
(284,-129,cs),
(284,-116,o),
(282,-103,o),
(277,-88,c),
(261,-88,ls),
(237,-88,o),
(218,-72,o),
(218,-46,cs),
(218,-28,o),
(226,-13,o),
(240,1,c),
(145,20,l)
);
},
{
ref = I;
}
);
width = 305;
}
);
unicode = 302;
},
{
glyphname = iogonek;
kernLeft = i;
kernRight = i;
layers = (
{
layerId = UUID0;
shapes = (
{
closed = 1;
nodes = (
(83,2,o),
(40,-30,o),
(40,-89,cs),
(40,-149,o),
(89,-185,o),
(147,-185,cs),
(183,-185,o),
(196,-170,o),
(196,-149,cs),
(196,-142,o),
(194,-134,o),
(190,-126,c),
(175,-126,ls),
(136,-126,o),
(112,-109,o),
(112,-73,cs),
(112,-38,o),
(134,-16,o),
(160,2,c),
(112,17,l)
);
},
{
ref = i;
}
);
width = 241;
},
{
layerId = UUID1;
shapes = (
{
closed = 1;
nodes = (
(82,-6,o),
(49,-44,o),
(49,-96,cs),
(49,-163,o),
(102,-202,o),
(175,-202,cs),
(247,-202,o),
(270,-166,o),
(270,-128,cs),
(270,-111,o),
(267,-98,o),
(263,-86,c),
(258,-86,ls),
(223,-86,o),
(204,-69,o),
(204,-42,cs),
(204,-19,o),
(216,-6,o),
(226,1,c),
(107,6,l)
);
},
{
ref = i;
}
);
width = 282;
}
);
unicode = 303;
},
{
glyphname = jcircumflex;
kernLeft = j;
kernRight = j;
layers = (
{
layerId = UUID0;
shapes = (
{
closed = 1;
nodes = (
(13,-176,o),
(33,-191,o),
(62,-191,cs),
(85,-191,o),
(110,-182,o),
(131,-156,cs),
(151,-133,o),
(160,-101,o),
(160,-53,cs),
(160,317,l),
(79,317,l),
(79,-44,ls),
(79,-94,o),
(68,-115,o),
(33,-132,cs),
(13,-141,l)
);
},
{
closed = 1;
nodes = (
(160,428,ls),
(160,452,o),
(144,465,o),
(115,465,cs),
(100,465,o),
(86,461,o),
(79,459,c),
(79,292,l),
(160,292,l)
);
},
{
pos = (-50,0);
ref = circumflexcomb;
}
);
width = 238;
},
{
layerId = UUID1;
shapes = (
{
closed = 1;
nodes = (
(-6,-137,o),
(30,-177,o),
(88,-177,cs),
(141,-177,o),
(182,-151,o),
(206,-106,cs),
(223,-75,o),
(231,-36,o),
(231,9,cs),
(231,246,l),
(61,246,l),
(61,25,ls),
(61,-15,o),
(49,-50,o),
(19,-68,cs),
(-7,-84,l)
);
},
{
closed = 1;
nodes = (
(231,408,ls),
(231,470,o),
(203,488,o),
(137,488,cs),
(105,488,o),
(76,483,o),
(61,479,c),
(61,211,l),
(231,211,l)
);
},
{
pos = (-79,0);
ref = circumflexcomb;
}
);
width = 287;
}
);
unicode = 309;
},
{
glyphname = kgreenlandic;
kernRight = k;
layers = (
{
layerId = UUID0;
shapes = (
{
closed = 1;
nodes = (
(157,430,ls),
(157,454,o),
(142,467,o),
(113,467,cs),
(98,467,o),
(83,463,o),
(77,461,c),
(77,280,l),
(157,280,l)
);
},
{
closed = 1;
nodes = (
(402,383,ls),
(422,400,o),
(437,414,o),
(437,431,cs),
(437,453,o),
(418,470,o),
(385,471,c),
(148,249,l),
(195,206,l)
);
},
{
closed = 1;
nodes = (
(359,23,ls),
(376,5,o),
(392,-6,o),
(412,-6,cs),
(437,-6,o),
(453,13,o),
(456,42,c),
(197,272,l),
(146,235,l)
);
},
{
closed = 1;
nodes = (
(77,31,ls),
(77,6,o),
(92,-5,o),
(120,-5,cs),
(136,-5,o),
(150,-1,o),
(157,2,c),
(157,306,l),
(77,306,l)
);
}
);
width = 487;
},
{
layerId = UUID1;
shapes = (
{
closed = 1;
nodes = (
(224,413,ls),
(224,475,o),
(196,493,o),
(130,493,cs),
(98,493,o),
(69,488,o),
(54,484,c),
(54,205,l),
(224,205,l)
);
},
{
closed = 1;
nodes = (
(427,298,ls),
(487,349,o),
(513,372,o),
(513,412,cs),
(513,458,o),
(467,493,o),
(398,493,c),
(171,263,l),
(295,186,l)
);
},
{
closed = 1;
nodes = (
(323,59,ls),
(362,10,o),
(392,-9,o),
(434,-9,cs),
(491,-9,o),
(521,26,o),
(527,88,c),
(316,298,l),
(179,239,l)
);
},
{
closed = 1;
nodes = (
(54,72,ls),
(54,10,o),
(82,-8,o),
(148,-8,cs),
(180,-8,o),
(209,-3,o),
(224,1,c),
(224,264,l),
(54,264,l)
);
}
);
width = 555;
}
);
unicode = 312;
},
{
glyphname = Lslash;
layers = (
{
layerId = UUID0;
shapes = (
{
closed = 1;
nodes = (
(369,356,o),
(377,366,o),
(377,380,cs),
(377,399,o),
(362,415,o),
(350,423,c),
(31,296,ls),
(17,290,o),
(10,280,o),
(10,267,cs),
(10,247,o),
(25,232,o),
(37,223,c),
(356,351,l)
);
},
{
pos = (30,0);
ref = L;
}
);
width = 521;
},
{
layerId = UUID1;
shapes = (
{
closed = 1;
nodes = (
(406,355,o),
(420,371,o),
(420,394,cs),
(420,430,o),
(390,465,o),
(372,480,c),
(45,340,ls),
(23,331,o),
(10,315,o),
(10,291,cs),
(10,254,o),
(39,221,o),
(57,206,c),
(384,346,l)
);
},
{
pos = (40,0);
ref = L;
}
);
width = 553;
}
);
unicode = 321;
},
{
glyphname = lslash;
layers = (
{
layerId = UUID0;
shapes = (
{
closed = 1;
nodes = (
(308,349,o),
(315,359,o),
(315,372,cs),
(315,392,o),
(301,408,o),
(289,416,c),
(31,311,ls),
(17,306,o),
(10,296,o),
(10,283,cs),
(10,263,o),
(25,247,o),
(37,239,c),
(295,344,l)
);
},
{
pos = (39,0);
ref = l;
}
);
width = 325;
},
{
layerId = UUID1;
shapes = (
{
closed = 1;
nodes = (
(366,345,o),
(380,361,o),
(380,384,cs),
(380,420,o),
(350,455,o),
(332,470,c),
(45,350,ls),
(23,341,o),
(10,325,o),
(10,301,cs),
(10,264,o),
(39,231,o),
(57,216,c),
(344,336,l)
);
},
{
pos = (54,0);
ref = l;
}
);
width = 390;
}
);
unicode = 322;
},
{
glyphname = OE;
kernRight = E;
layers = (
{
layerId = UUID0;
shapes = (
{
closed = 1;
nodes = (
(511,87,l),
(512,44,ls),
(512,18,o),
(528,0,o),
(556,0,cs),
(570,0,o),
(586,6,o),
(593,8,c),
(593,366,l),
(511,366,l)
);
},
{
closed = 1;
nodes = (
(593,600,l),
(586,602,o),
(570,608,o),
(556,608,cs),
(528,608,o),
(512,590,o),
(512,564,cs),
(511,524,l),
(511,249,l),
(593,248,l)
);
},
{
closed = 1;
nodes = (
(835,278,ls),
(854,278,o),
(866,292,o),
(866,314,cs),
(866,327,o),
(860,340,o),
(856,346,c),
(555,346,l),
(555,278,l)
);
},
{
closed = 1;
nodes = (
(870,0,ls),
(890,0,o),
(901,14,o),
(901,36,cs),
(901,50,o),
(896,62,o),
(892,68,c),
(556,68,l),
(556,0,l)
);
},
{
closed = 1;
nodes = (
(865,539,ls),
(885,539,o),
(896,554,o),
(896,576,cs),
(896,589,o),
(891,602,o),
(887,608,c),
(556,608,l),
(556,539,l)
);
},
{
closed = 1;
nodes = (
(583,549,o),
(465,621,o),
(333,621,cs),
(178,621,o),
(53,511,o),
(53,304,cs),
(53,94,o),
(174,-13,o),
(332,-13,cs),
(477,-13,o),
(583,77,o),
(583,304,cs),
(583,304,l)
);
},
{
closed = 1;
nodes = (
(540,145,o),
(465,56,o),
(334,56,cs),
(216,56,o),
(137,145,o),
(137,304,cs),
(137,463,o),
(218,552,o),
(334,552,cs),
(454,552,o),
(540,469,o),
(540,304,cs),
(540,304,l)
);
}
);
width = 953;
},
{
layerId = UUID1;
shapes = (
{
closed = 1;
nodes = (
(468,138,l),
(478,90,ls),
(478,33,o),
(514,-3,o),
(571,-3,cs),
(603,-3,o),
(623,2,o),
(638,6,c),
(638,442,l),
(468,442,l)
);
},
{
closed = 1;
nodes = (
(638,597,l),
(623,601,o),
(603,606,o),
(571,606,cs),
(514,606,o),
(478,570,o),
(478,513,cs),
(468,469,l),
(468,161,l),
(638,161,l)
);
},
{
closed = 1;
nodes = (
(821,240,ls),
(858,240,o),
(881,261,o),
(881,310,cs),
(881,338,o),
(872,361,o),
(863,376,c),
(561,376,l),
(561,240,l)
);
},
{
closed = 1;
nodes = (
(853,-3,ls),
(890,-3,o),
(913,18,o),
(913,67,cs),
(913,95,o),
(904,120,o),
(895,135,c),
(571,135,l),
(571,-3,l)
);
},
{
closed = 1;
nodes = (
(849,469,ls),
(886,469,o),
(909,491,o),
(909,540,cs),
(909,568,o),
(900,591,o),
(891,606,c),
(571,606,l),
(571,469,l)
);
},
{
closed = 1;
nodes = (
(608,482,o),
(529,625,o),
(351,625,cs),
(173,625,o),
(35,512,o),
(35,304,cs),
(35,96,o),
(169,-18,o),
(351,-18,cs),
(533,-18,o),
(608,125,o),
(608,304,cs),
(608,304,l)
);
},
{
closed = 1;
nodes = (
(497,183,o),
(443,123,o),
(352,123,cs),
(269,123,o),
(215,183,o),
(215,304,cs),
(215,424,o),
(270,484,o),
(351,484,cs),
(444,484,o),
(497,423,o),
(497,304,cs),
(497,304,l)
);
}
);
width = 951;
}
);
unicode = 338;
},
{
glyphname = oe;
kernRight = e;
layers = (
{
layerId = UUID0;
shapes = (
{
closed = 1;
nodes = (
(493,387,o),
(405,475,o),
(274,475,cs),
(138,475,o),
(49,380,o),
(49,231,cs),
(49,82,o),
(136,-13,o),
(274,-13,cs),
(407,-13,o),
(493,79,o),
(493,231,cs),
(493,231,l)
);
},
{
closed = 1;
nodes = (
(367,409,o),
(422,342,o),
(422,231,cs),
(422,120,o),
(368,53,o),
(277,53,cs),
(185,53,o),
(131,119,o),
(131,231,cs),
(131,342,o),
(187,409,o),
(277,409,cs),
(277,409,l)
);
},
{
closed = 1;
nodes = (
(808,227,ls),
(832,230,o),
(847,241,o),
(847,270,cs),
(847,390,o),
(760,475,o),
(640,475,cs),
(516,475,o),
(428,388,o),
(428,234,cs),
(428,65,o),
(523,-13,o),
(668,-13,cs),
(755,-13,o),
(827,21,o),
(827,59,cs),
(827,75,o),
(817,88,o),
(802,97,c),
(775,76,o),
(728,53,o),
(672,53,cs),
(566,53,o),
(504,109,o),
(496,216,c),
(495,238,l),
(495,348,o),
(555,410,o),
(639,410,cs),
(719,410,o),
(764,357,o),
(771,284,c),
(468,243,l),
(472,180,l)
);
}
);
width = 887;
},
{
layerId = UUID1;
shapes = (
{
closed = 1;
nodes = (
(525,378,o),
(444,501,o),
(287,501,cs),
(130,501,o),
(31,401,o),
(31,243,cs),
(31,81,o),
(128,-16,o),
(287,-16,cs),
(446,-16,o),
(525,98,o),
(525,243,cs),
(525,243,l)
);
},
{
closed = 1;
nodes = (
(348,368,o),
(381,322,o),
(381,243,cs),
(381,161,o),
(349,117,o),
(293,117,cs),
(237,117,o),
(205,160,o),
(205,243,cs),
(205,323,o),
(238,368,o),
(293,368,cs),
(293,368,l)
);
},
{
closed = 1;
nodes = (
(793,214,ls),
(838,221,o),
(865,244,o),
(865,289,cs),
(865,412,o),
(769,501,o),
(628,501,cs),
(503,501,o),
(399,427,o),
(399,250,cs),
(399,76,o),
(496,-16,o),
(653,-16,cs),
(764,-16,o),
(844,14,o),
(844,80,cs),
(844,107,o),
(827,133,o),
(806,146,c),
(775,128,o),
(721,111,o),
(665,111,cs),
(606,111,o),
(553,132,o),
(540,193,c),
(534,277,l),
(536,341,o),
(575,377,o),
(629,377,cs),
(680,377,o),
(702,344,o),
(705,317,c),
(474,279,l),
(480,167,l)
);
}
);
width = 895;
}
);
unicode = 339;
},
{
glyphname = uogonek;
kernLeft = u;
kernRight = u;
layers = (
{
layerId = UUID0;
shapes = (
{
closed = 1;
nodes = (
(353,1,o),
(312,-30,o),
(312,-89,cs),
(312,-149,o),
(361,-185,o),
(420,-185,cs),
(455,-185,o),
(469,-170,o),
(469,-149,cs),
(469,-142,o),
(467,-134,o),
(463,-126,c),
(448,-126,ls),
(409,-126,o),
(384,-109,o),
(384,-73,cs),
(384,-24,o),
(416,2,o),
(461,38,c),
(385,16,l)
);
},
{
closed = 1;
nodes = (
(75,45,o),
(149,-13,o),
(282,-13,cs),
(324,-13,o),
(363,-1,o),
(387,7,cs),
(410,15,o),
(429,16,o),
(443,24,cs),
(471,40,o),
(475,54,o),
(475,82,cs),
(475,260,l),
(395,260,l),
(395,79,l),
(374,67,o),
(336,53,o),
(283,53,cs),
(203,53,o),
(155,87,o),
(155,173,cs),
(155,260,l),
(75,260,l),
(75,169,l)
);
},
{
closed = 1;
nodes = (
(475,430,ls),
(475,456,o),
(461,467,o),
(432,467,cs),
(417,467,o),
(402,463,o),
(395,460,c),
(395,208,l),
(475,208,l)
);
},
{
closed = 1;
nodes = (
(155,430,ls),
(155,456,o),
(141,467,o),
(113,467,cs),
(97,467,o),
(82,463,o),
(75,460,c),
(75,208,l),
(155,208,l)
);
}
);
width = 550;
},
{
layerId = UUID1;
shapes = (
{
closed = 1;
nodes = (
(328,-10,o),
(292,-44,o),
(292,-96,cs),
(292,-163,o),
(345,-202,o),
(418,-202,cs),
(490,-202,o),
(513,-166,o),
(513,-128,cs),
(513,-111,o),
(510,-98,o),
(506,-86,c),
(501,-86,ls),
(466,-86,o),
(447,-69,o),
(447,-42,cs),
(447,-8,o),
(466,11,o),
(493,33,c),
(353,2,l)
);
},
{
closed = 1;
nodes = (
(52,45,o),
(154,-16,o),
(299,-16,cs),
(341,-16,o),
(380,-11,o),
(414,-2,cs),
(442,6,o),
(467,16,o),
(488,29,cs),
(516,46,o),
(530,71,o),
(530,104,cs),
(530,259,l),
(360,259,l),
(360,129,l),
(350,124,o),
(330,117,o),
(300,117,cs),
(250,117,o),
(222,139,o),
(222,193,cs),
(222,259,l),
(52,259,l),
(52,193,l)
);
},
{
closed = 1;
nodes = (
(530,413,ls),
(530,475,o),
(502,493,o),
(436,493,cs),
(404,493,o),
(375,488,o),
(360,484,c),
(360,216,l),
(530,216,l)
);
},
{
closed = 1;
nodes = (
(222,413,ls),
(222,475,o),
(194,493,o),
(128,493,cs),
(96,493,o),
(67,488,o),
(52,484,c),
(52,216,l),
(222,216,l)
);
}
);
width = 582;
}
);
unicode = 371;
},
{
glyphname = florin;
layers = (
{
layerId = UUID0;
shapes = (
{
closed = 1;
nodes = (
(422,356,ls),
(441,356,o),
(453,367,o),
(453,389,cs),
(453,403,o),
(448,415,o),
(443,421,c),
(236,421,l),
(236,356,l)
);
},
{
closed = 1;
nodes = (
(280,486,ls),
(288,558,o),
(321,592,o),
(386,592,cs),
(426,592,o),
(456,582,o),
(481,572,c),
(490,579,o),
(496,591,o),
(496,606,cs),
(496,636,o),
(452,659,o),
(382,659,cs),
(283,659,o),
(213,606,o),
(201,493,cs),
(158,87,ls),
(151,26,o),
(131,2,o),
(84,2,cs),
(54,2,o),
(34,10,o),
(12,19,c),
(3,12,o),
(-3,0,o),
(-3,-15,cs),
(-3,-46,o),
(34,-65,o),
(90,-65,cs),
(176,-65,o),
(226,-26,o),
(237,80,cs),
(268,378,l),
(268,386,l)
);
}
);
width = 506;
},
{
layerId = UUID1;
shapes = (
{
closed = 1;
nodes = (
(444,303,ls),
(478,303,o),
(501,322,o),
(501,369,cs),
(501,395,o),
(492,419,o),
(484,433,c),
(295,433,l),
(295,303,l)
);
},
{
closed = 1;
nodes = (
(341,480,ls),
(347,525,o),
(372,545,o),
(426,545,cs),
(462,545,o),
(485,540,o),
(510,533,c),
(523,544,o),
(536,567,o),
(536,594,cs),
(536,657,o),
(493,679,o),
(396,679,cs),
(274,679,o),
(188,620,o),
(174,486,cs),
(134,85,ls),
(129,37,o),
(111,19,o),
(72,19,cs),
(40,19,o),
(27,25,o),
(11,31,c),
(-2,20,o),
(-15,-3,o),
(-15,-30,cs),
(-15,-88,o),
(29,-115,o),
(113,-115,cs),
(219,-115,o),
(290,-55,o),
(304,79,cs),
(331,344,l),
(325,345,l)
);
}
);
width = 536;
}
);
unicode = 402;
},
{
glyphname = gravecomb;
layers = (
{
anchors = (
{
name = _top;
pos = (174,460);
},
{
name = top;
pos = (121,683);
}
);
layerId = UUID0;
shapes = (
{
closed = 1;
nodes = (
(146,524,o),
(155,518,o),
(170,518,cs),
(188,518,o),
(202,532,o),
(203,553,c),
(113,666,ls),
(104,677,o),
(93,683,o),
(78,683,cs),
(56,683,o),
(40,668,o),
(40,647,cs),
(40,644,o),
(41,639,o),
(42,634,c),
(136,534,l)
);
}
);
width = 243;
},
{
anchors = (
{
name = _top;
pos = (211,479);
},
{
name = top;
pos = (168,747);
}
);
layerId = UUID1;
shapes = (
{
closed = 1;
nodes = (
(170,538,o),
(187,530,o),
(215,530,cs),
(247,530,o),
(280,552,o),
(286,599,c),
(197,710,ls),
(174,738,o),
(149,747,o),
(123,747,cs),
(82,747,o),
(50,718,o),
(50,669,cs),
(50,664,o),
(51,651,o),
(52,646,c),
(150,556,l)
);
}
);
width = 336;
}
);
unicode = 768;
},
{
glyphname = acutecomb;
layers = (
{
anchors = (
{
name = _top;
pos = (87,460);
},
{
name = top;
pos = (120,687);
}
);
layerId = UUID0;
shapes = (
{
closed = 1;
nodes = (
(48,570,o),
(40,562,o),
(40,550,cs),
(40,533,o),
(58,516,o),
(84,516,c),
(175,605,l),
(193,622,o),
(201,631,o),
(201,649,cs),
(201,668,o),
(181,686,o),
(152,687,c),
(55,578,l)
);
}
);
width = 241;
},
{
anchors = (
{
name = _top;
pos = (126,479);
},
{
name = top;
pos = (164,752);
}
);
layerId = UUID1;
shapes = (
{
closed = 1;
nodes = (
(54,623,o),
(50,610,o),
(50,594,cs),
(50,562,o),
(80,528,o),
(139,528,c),
(234,606,l),
(266,633,o),
(278,649,o),
(278,680,cs),
(278,717,o),
(243,752,o),
(174,752,c),
(73,643,l)
);
}
);
width = 328;
}
);
unicode = 769;
},
{
glyphname = tildecomb;
layers = (
{
anchors = (
{
name = _top;
pos = (188,460);
},
{
name = top;
pos = (188,655);
}
);
layerId = UUID0;
shapes = (
{
closed = 1;
nodes = (
(76,651,o),
(40,628,o),
(40,589,cs),
(40,562,o),
(62,551,o),
(86,551,cs),
(92,551,l),
(97,574,o),
(106,590,o),
(130,590,cs),
(162,590,o),
(206,555,o),
(262,555,cs),
(306,555,o),
(335,579,o),
(335,617,cs),
(335,645,o),
(313,655,o),
(289,655,cs),
(283,655,l),
(278,633,o),
(268,617,o),
(244,617,cs),
(209,617,o),
(171,651,o),
(115,651,cs),
(115,651,l)
);
}
);
width = 375;
},
{
anchors = (
{
name = _top;
pos = (236,479);
},
{
name = top;
pos = (236,721);
}
);
layerId = UUID1;
shapes = (
{
closed = 1;
nodes = (
(101,715,o),
(50,688,o),
(50,628,cs),
(50,580,o),
(86,548,o),
(129,548,cs),
(132,548,l),
(140,561,o),
(154,583,o),
(183,583,cs),
(216,583,o),
(260,554,o),
(324,554,cs),
(380,554,o),
(422,582,o),
(422,641,cs),
(422,687,o),
(386,721,o),
(344,721,cs),
(340,721,l),
(333,709,o),
(318,686,o),
(289,686,cs),
(258,686,o),
(203,715,o),
(148,715,cs),
(148,715,l)
);
}
);
width = 472;
}
);
unicode = 771;
},
{
glyphname = hookabovecomb;
layers = (
{
anchors = (
{
name = _top;
pos = (113,460);
},
{
name = top;
pos = (125,696);
}
);
layerId = UUID0;
shapes = (
{
closed = 1;
nodes = (
(81,691,o),
(40,677,o),
(40,651,cs),
(40,635,o),
(52,626,o),
(61,622,c),
(75,630,o),
(93,637,o),
(110,637,cs),
(137,637,o),
(147,624,o),
(147,609,cs),
(147,590,o),
(133,582,o),
(110,582,c),
(103,582,l),
(84,582,o),
(76,574,o),
(76,555,c),
(76,528,l),
(76,517,o),
(87,511,o),
(107,511,cs),
(121,511,o),
(132,514,o),
(137,517,c),
(137,537,l),
(175,541,o),
(210,563,o),
(210,610,cs),
(210,664,o),
(166,691,o),
(116,691,cs),
(116,691,l)
);
}
);
width = 250;
},
{
anchors = (
{
name = _top;
pos = (162,479);
},
{
name = top;
pos = (178,772);
}
);
layerId = UUID1;
shapes = (
{
closed = 1;
nodes = (
(94,772,o),
(40,752,o),
(40,710,cs),
(40,691,o),
(49,674,o),
(64,664,c),
(80,671,o),
(108,681,o),
(139,681,cs),
(176,681,o),
(193,668,o),
(193,650,cs),
(193,633,o),
(181,622,o),
(156,622,c),
(139,622,l),
(116,622,o),
(97,614,o),
(97,579,c),
(97,541,l),
(97,525,o),
(110,515,o),
(156,515,cs),
(181,515,o),
(202,521,o),
(209,525,c),
(209,552,l),
(265,555,o),
(317,585,o),
(317,654,cs),
(317,735,o),
(236,772,o),
(158,772,cs),
(158,772,l)
);
}
);
width = 357;
}
);
unicode = 777;
},
{
glyphname = dieresiscomb;
layers = (
{
anchors = (
{
name = _top;
pos = (176,460);
},
{
name = top;
pos = (176,654);
}
);
layerId = UUID0;
shapes = (
{
closed = 1;
nodes = (
(138,632,o),
(117,654,o),
(88,654,cs),
(60,654,o),
(40,632,o),
(40,606,cs),
(40,580,o),
(60,558,o),
(88,558,cs),
(117,558,o),
(138,580,o),
(138,606,cs),
(138,606,l)
);
},
{
closed = 1;
nodes = (
(311,632,o),
(289,654,o),
(261,654,cs),
(234,654,o),
(212,632,o),
(212,606,cs),
(212,580,o),
(234,558,o),
(261,558,cs),
(289,558,o),
(311,580,o),
(311,606,cs),
(311,606,l)
);
}
);
width = 351;
},
{
anchors = (
{
name = _top;
pos = (242,479);
},
{
name = top;
pos = (242,713);
}
);
layerId = UUID1;
shapes = (
{
closed = 1;
nodes = (
(219,677,o),
(184,713,o),
(134,713,cs),
(84,713,o),
(50,677,o),
(50,630,cs),
(50,583,o),
(84,548,o),
(134,548,cs),
(184,548,o),
(219,583,o),
(219,630,cs),
(219,630,l)
);
},
{
closed = 1;
nodes = (
(434,677,o),
(400,713,o),
(350,713,cs),
(300,713,o),
(265,677,o),
(265,630,cs),
(265,583,o),
(300,548,o),
(350,548,cs),
(400,548,o),
(434,583,o),
(434,630,cs),
(434,630,l)
);
}
);
width = 484;
}
);
unicode = 776;
},
{
glyphname = dotaccentcomb;
layers = (
{
anchors = (
{
name = _top;
pos = (91,460);
},
{
name = top;
pos = (91,657);
}
);
layerId = UUID0;
shapes = (
{
closed = 1;
nodes = (
(141,637,o),
(121,657,o),
(90,657,cs),
(60,657,o),
(40,637,o),
(40,607,cs),
(40,578,o),
(60,558,o),
(90,558,cs),
(121,558,o),
(141,578,o),
(141,607,cs),
(141,607,l)
);
}
);
width = 181;
},
{
anchors = (
{
name = _top;
pos = (140,479);
},
{
name = top;
pos = (140,719);
}
);
layerId = UUID1;
shapes = (
{
closed = 1;
nodes = (
(230,681,o),
(194,719,o),
(140,719,cs),
(86,719,o),
(50,681,o),
(50,632,cs),
(50,583,o),
(86,545,o),
(140,545,cs),
(194,545,o),
(230,583,o),
(230,632,cs),
(230,632,l)
);
}
);
width = 280;
}
);
unicode = 775;
},
{
glyphname = hungarumlautcomb;
layers = (
{
anchors = (
{
name = _top;
pos = (164,460);
},
{
name = top;
pos = (214,687);
}
);
layerId = UUID0;
shapes = (
{
closed = 1;
nodes = (
(46,569,o),
(40,560,o),
(40,548,cs),
(40,531,o),
(58,516,o),
(84,516,c),
(155,605,l),
(171,624,o),
(180,634,o),
(180,652,cs),
(180,671,o),
(161,686,o),
(132,687,c),
(53,578,l)
);
},
{
closed = 1;
nodes = (
(214,569,o),
(209,560,o),
(209,548,cs),
(209,531,o),
(226,516,o),
(252,516,c),
(323,605,l),
(339,624,o),
(348,634,o),
(348,652,cs),
(348,671,o),
(329,686,o),
(300,687,c),
(221,578,l)
);
}
);
width = 388;
},
{
anchors = (
{
name = _top;
pos = (238,479);
},
{
name = top;
pos = (278,752);
}
);
layerId = UUID1;
shapes = (
{
closed = 1;
nodes = (
(53,621,o),
(50,610,o),
(50,594,cs),
(50,562,o),
(80,528,o),
(139,528,c),
(214,606,l),
(243,636,o),
(258,651,o),
(258,680,cs),
(258,717,o),
(223,752,o),
(154,752,c),
(70,643,l)
);
},
{
closed = 1;
nodes = (
(280,621,o),
(277,610,o),
(277,594,cs),
(277,562,o),
(307,528,o),
(366,528,c),
(441,606,l),
(470,636,o),
(485,651,o),
(485,680,cs),
(485,717,o),
(450,752,o),
(381,752,c),
(297,643,l)
);
}
);
width = 535;
}
);
unicode = 779;
},
{
glyphname = caroncomb;
layers = (
{
anchors = (
{
name = _top;
pos = (173,460);
},
{
name = top;
pos = (173,680);
}
);
layerId = UUID0;
shapes = (
{
closed = 1;
nodes = (
(99,671,o),
(90,678,o),
(73,678,cs),
(53,678,o),
(40,660,o),
(40,640,c),
(125,547,ls),
(141,530,o),
(155,521,o),
(174,521,cs),
(193,521,o),
(205,528,o),
(218,541,cs),
(281,605,ls),
(296,621,o),
(306,631,o),
(306,646,cs),
(306,664,o),
(290,678,o),
(263,680,c),
(175,583,l),
(114,654,l)
);
}
);
width = 350;
},
{
anchors = (
{
name = _top;
pos = (227,479);
},
{
name = top;
pos = (227,740);
}
);
layerId = UUID1;
shapes = (
{
closed = 1;
nodes = (
(157,731,o),
(140,738,o),
(114,738,cs),
(62,738,o),
(44,688,o),
(52,650,c),
(126,586,ls),
(177,542,o),
(196,535,o),
(232,535,cs),
(258,535,o),
(285,544,o),
(311,566,cs),
(356,603,ls),
(389,630,o),
(404,645,o),
(404,674,cs),
(404,712,o),
(371,740,o),
(319,740,c),
(229,656,l),
(195,691,l)
);
}
);
width = 454;
}
);
unicode = 780;
},
{
glyphname = caroncomb.alt;
layers = (
{
layerId = UUID0;
shapes = (
{
closed = 1;
nodes = (
(111,539,o),
(136,592,o),
(136,625,cs),
(136,645,o),
(120,655,o),
(99,655,cs),
(86,655,o),
(75,653,o),
(63,648,c),
(59,610,o),
(41,557,o),
(22,511,c),
(28,503,o),
(40,498,o),
(53,498,cs),
(68,498,o),
(80,503,o),
(91,516,cs),
(91,516,l)
);
}
);
width = 182;
},
{
layerId = UUID1;
shapes = (
{
closed = 1;
nodes = (
(169,521,o),
(200,579,o),
(200,612,cs),
(200,649,o),
(170,664,o),
(128,664,cs),
(99,664,o),
(68,654,o),
(47,643,c),
(40,591,o),
(28,539,o),
(0,483,c),
(17,468,o),
(38,460,o),
(64,460,cs),
(94,460,o),
(121,469,o),
(143,493,cs),
(143,493,l)
);
}
);
width = 225;
}
);
},
{
glyphname = circumflexcomb;
layers = (
{
anchors = (
{
name = _top;
pos = (171,460);
},
{
name = top;
pos = (171,666);
}
);
layerId = UUID0;
shapes = (
{
closed = 1;
nodes = (
(245,530,o),
(254,522,o),
(270,522,cs),
(291,522,o),
(301,538,o),
(301,556,c),
(217,656,ls),
(203,672,o),
(191,680,o),
(170,680,cs),
(152,680,o),
(140,672,o),
(123,657,c),
(62,591,l),
(50,577,o),
(40,567,o),
(40,553,cs),
(40,535,o),
(58,522,o),
(82,520,c),
(109,551,o),
(139,581,o),
(170,618,c),
(235,541,l)
);
}
);
width = 341;
},
{
anchors = (
{
name = _top;
pos = (220,479);
},
{
name = top;
pos = (220,742);
}
);
layerId = UUID1;
shapes = (
{
closed = 1;
nodes = (
(277,551,o),
(296,536,o),
(322,536,cs),
(367,536,o),
(389,566,o),
(389,603,c),
(318,690,ls),
(280,737,o),
(253,745,o),
(219,745,cs),
(180,745,o),
(153,728,o),
(128,703,c),
(94,669,l),
(65,640,o),
(50,625,o),
(50,598,cs),
(50,560,o),
(83,534,o),
(135,534,c),
(164,568,o),
(181,587,o),
(216,626,c),
(256,577,l)
);
}
);
width = 439;
}
);
unicode = 770;
},
{
glyphname = brevecomb;
layers = (
{
anchors = (
{
name = _top;
pos = (168,460);
},
{
name = top;
pos = (168,667);
}
);
layerId = UUID0;
shapes = (
{
closed = 1;
nodes = (
(126,599,o),
(99,622,o),
(92,665,c),
(88,666,o),
(82,667,o),
(75,667,cs),
(53,667,o),
(40,655,o),
(40,629,cs),
(40,588,o),
(80,541,o),
(168,541,cs),
(253,541,o),
(296,587,o),
(296,629,cs),
(296,655,o),
(282,667,o),
(261,667,cs),
(254,667,o),
(249,666,o),
(244,665,c),
(237,622,o),
(210,599,o),
(168,599,cs),
(168,599,l)
);
}
);
width = 336;
},
{
anchors = (
{
name = _top;
pos = (224,479);
},
{
name = top;
pos = (224,731);
}
);
layerId = UUID1;
shapes = (
{
closed = 1;
nodes = (
(183,678,o),
(155,701,o),
(148,730,c),
(141,731,o),
(136,731,o),
(130,731,cs),
(76,731,o),
(50,694,o),
(50,659,cs),
(50,599,o),
(113,553,o),
(224,553,cs),
(335,553,o),
(398,599,o),
(398,659,cs),
(398,694,o),
(372,731,o),
(318,731,cs),
(312,731,o),
(307,731,o),
(300,730,c),
(292,701,o),
(265,678,o),
(224,678,cs),
(224,678,l)
);
}
);
width = 448;
}
);
unicode = 774;
},
{
glyphname = ringcomb;
layers = (
{
anchors = (
{
name = _top;
pos = (144,460);
},
{
name = top;
pos = (144,705);
}
);
layerId = UUID0;
shapes = (
{
closed = 1;
nodes = (
(40,560,o),
(78,519,o),
(144,519,cs),
(210,519,o),
(248,560,o),
(248,612,cs),
(248,664,o),
(210,705,o),
(144,705,cs),
(78,705,o),
(40,664,o),
(40,612,cs),
(40,612,l)
);
},
{
closed = 1;
nodes = (
(98,641,o),
(117,658,o),
(144,658,cs),
(171,658,o),
(191,641,o),
(191,612,cs),
(191,583,o),
(171,566,o),
(144,566,cs),
(117,566,o),
(98,583,o),
(98,612,cs),
(98,612,l)
);
}
);
width = 288;
},
{
anchors = (
{
name = _top;
pos = (185,479);
},
{
name = top;
pos = (185,753);
}
);
layerId = UUID1;
shapes = (
{
closed = 1;
nodes = (
(50,579,o),
(101,530,o),
(182,530,cs),
(268,530,o),
(319,579,o),
(319,641,cs),
(319,703,o),
(268,753,o),
(182,753,cs),
(101,753,o),
(50,703,o),
(50,641,cs),
(50,641,l)
);
},
{
closed = 1;
nodes = (
(151,662,o),
(166,675,o),
(183,675,cs),
(203,675,o),
(217,662,o),
(217,641,cs),
(217,620,o),
(203,607,o),
(183,607,cs),
(166,607,o),
(151,620,o),
(151,641,cs),
(151,641,l)
);
}
);
width = 369;
}
);
unicode = 778;
},
{
glyphname = macroncomb;
layers = (
{
anchors = (
{
name = _top;
pos = (175,460);
},
{
name = top;
pos = (175,655);
}
);
layerId = UUID0;
shapes = (
{
closed = 1;
nodes = (
(298,570,o),
(310,580,o),
(310,603,cs),
(310,615,o),
(305,627,o),
(300,635,c),
(72,635,ls),
(53,635,o),
(40,625,o),
(40,602,cs),
(40,589,o),
(46,578,o),
(51,570,c),
(278,570,l)
);
}
);
width = 350;
},
{
anchors = (
{
name = _top;
pos = (218,479);
},
{
name = top;
pos = (218,692);
}
);
layerId = UUID1;
shapes = (
{
closed = 1;
nodes = (
(365,564,o),
(386,581,o),
(386,630,cs),
(386,654,o),
(381,678,o),
(370,692,c),
(105,692,ls),
(72,692,o),
(50,675,o),
(50,626,cs),
(50,602,o),
(60,578,o),
(66,564,c),
(332,564,l)
);
}
);
width = 436;
}
);
unicode = 772;
},
{
glyphname = dblgravecomb;
layers = (
{
anchors = (
{
name = _top;
pos = (239,460);
},
{
name = top;
pos = (160,681);
}
);
layerId = UUID0;
shapes = (
{
closed = 1;
nodes = (
(132,524,o),
(143,515,o),
(158,515,cs),
(175,515,o),
(186,526,o),
(190,547,c),
(110,660,ls),
(101,673,o),
(90,681,o),
(76,681,cs),
(56,681,o),
(40,669,o),
(40,644,cs),
(40,638,l),
(123,535,l)
);
},
{
closed = 1;
nodes = (
(301,523,o),
(311,515,o),
(326,515,cs),
(343,515,o),
(354,526,o),
(358,547,c),
(278,660,l),
(269,673,o),
(257,681,o),
(243,681,cs),
(223,681,o),
(208,669,o),
(208,644,cs),
(208,638,l),
(291,535,l)
);
}
);
width = 398;
},
{
anchors = (
{
name = _top;
pos = (331,479);
},
{
name = top;
pos = (250,743);
}
);
layerId = UUID1;
shapes = (
{
closed = 1;
nodes = (
(159,539,o),
(181,523,o),
(208,523,cs),
(240,523,o),
(265,537,o),
(277,583,c),
(199,695,ls),
(178,725,o),
(156,743,o),
(123,743,cs),
(84,743,o),
(50,715,o),
(50,664,cs),
(50,658,l),
(141,559,l)
);
},
{
closed = 1;
nodes = (
(391,539,o),
(413,523,o),
(439,523,cs),
(472,523,o),
(497,537,o),
(509,583,c),
(431,695,l),
(410,725,o),
(388,743,o),
(354,743,cs),
(315,743,o),
(282,715,o),
(282,663,cs),
(282,658,l),
(373,559,l)
);
}
);
width = 559;
}
);
unicode = 783;
},
{
glyphname = commaturnedabovecomb;
layers = (
{
anchors = (
{
name = _top;
pos = (83,460);
},
{
name = top;
pos = (97,684);
}
);
layerId = UUID0;
shapes = (
{
closed = 1;
nodes = (
(63,641,o),
(40,587,o),
(40,552,cs),
(40,536,o),
(56,527,o),
(78,527,cs),
(90,527,o),
(102,530,o),
(112,534,c),
(117,576,o),
(133,626,o),
(154,671,c),
(147,678,o),
(133,684,o),
(121,684,cs),
(106,684,o),
(94,678,o),
(83,664,cs),
(83,664,l)
);
}
);
width = 194;
},
{
anchors = (
{
name = _top;
pos = (130,479);
},
{
name = top;
pos = (150,746);
}
);
layerId = UUID1;
shapes = (
{
closed = 1;
nodes = (
(79,689,o),
(50,625,o),
(50,588,cs),
(50,556,o),
(79,541,o),
(125,541,cs),
(154,541,o),
(181,551,o),
(202,563,c),
(208,615,o),
(222,667,o),
(250,723,c),
(231,736,o),
(205,746,o),
(179,746,cs),
(153,746,o),
(131,740,o),
(108,717,cs),
(108,717,l)
);
}
);
width = 300;
}
);
unicode = 786;
},
{
glyphname = horncomb;
layers = (
{
anchors = (
{
name = _topright;
pos = (-23,460);
},
{
name = topright;
pos = (169,522);
}
);
layerId = UUID0;
shapes = (
{
closed = 1;
nodes = (
(84,341,o),
(149,378,o),
(149,473,cs),
(149,485,ls),
(149,511,o),
(133,522,o),
(113,522,cs),
(99,522,o),
(89,519,o),
(78,513,c),
(78,479,ls),
(78,412,o),
(40,395,o),
(-3,395,c),
(-3,378,o),
(-1,349,o),
(4,341,c),
(21,341,l)
);
}
);
width = 218;
},
{
anchors = (
{
name = _topright;
pos = (-49,479);
},
{
name = topright;
pos = (216,551);
}
);
layerId = UUID1;
shapes = (
{
closed = 1;
nodes = (
(112,295,o),
(196,364,o),
(196,479,cs),
(196,485,ls),
(196,533,o),
(160,551,o),
(118,551,cs),
(91,551,o),
(75,545,o),
(57,536,c),
(57,502,ls),
(57,430,o),
(21,399,o),
(-29,399,c),
(-29,358,o),
(-20,311,o),
(-10,296,c),
(11,295,l)
);
}
);
width = 206;
}
);
unicode = 795;
},
{
glyphname = commaaccentcomb;
layers = (
{
anchors = (
{
name = _bottom;
pos = (105,0);
},
{
name = bottom;
pos = (97,-219);
}
);
layerId = UUID0;
shapes = (
{
closed = 1;
nodes = (
(129,-178,o),
(154,-125,o),
(154,-92,cs),
(154,-72,o),
(138,-62,o),
(117,-62,cs),
(104,-62,o),
(93,-64,o),
(81,-69,c),
(77,-107,o),
(59,-160,o),
(40,-206,c),
(46,-214,o),
(58,-219,o),
(71,-219,cs),
(86,-219,o),
(98,-214,o),
(109,-201,cs),
(109,-201,l)
);
}
);
width = 194;
},
{
anchors = (
{
name = _bottom;
pos = (163,0);
},
{
name = bottom;
pos = (150,-256);
}
);
layerId = UUID1;
shapes = (
{
closed = 1;
nodes = (
(219,-195,o),
(250,-137,o),
(250,-104,cs),
(250,-67,o),
(220,-52,o),
(178,-52,cs),
(149,-52,o),
(118,-62,o),
(97,-73,c),
(90,-125,o),
(78,-177,o),
(50,-233,c),
(67,-248,o),
(88,-256,o),
(114,-256,cs),
(144,-256,o),
(171,-247,o),
(193,-223,cs),
(193,-223,l)
);
}
);
width = 300;
}
);
unicode = 806;
},
{
glyphname = cedillacomb;
layers = (
{
anchors = (
{
name = _bottom;
pos = (130,0);
},
{
name = bottom;
pos = (130,-189);
}
);
layerId = UUID0;
shapes = (
{
closed = 1;
nodes = (
(121,-21,o),
(130,-50,o),
(130,-72,cs),
(130,-107,o),
(109,-129,o),
(61,-129,cs),
(46,-129,l),
(42,-136,o),
(40,-146,o),
(40,-153,cs),
(40,-176,o),
(59,-189,o),
(92,-189,cs),
(156,-189,o),
(200,-149,o),
(200,-85,cs),
(200,-44,o),
(185,-9,o),
(148,17,c),
(98,2,l)
);
}
);
width = 240;
},
{
anchors = (
{
name = _bottom;
pos = (157,0);
},
{
name = bottom;
pos = (157,-202);
}
);
layerId = UUID1;
shapes = (
{
closed = 1;
nodes = (
(117,-8,o),
(122,-28,o),
(122,-41,cs),
(122,-70,o),
(105,-93,o),
(64,-93,cs),
(54,-93,l),
(51,-103,o),
(50,-113,o),
(50,-123,cs),
(50,-174,o),
(87,-202,o),
(143,-202,cs),
(219,-202,o),
(264,-152,o),
(264,-84,cs),
(264,-35,o),
(246,10,o),
(196,38,c),
(105,5,l)
);
}
);
width = 314;
}
);
unicode = 807;
},
{
glyphname = ogonekcomb;
layers = (
{
anchors = (
{
name = _ogonek;
pos = (196,17);
}
);
layerId = UUID0;
shapes = (
{
closed = 1;
nodes = (
(83,2,o),
(40,-30,o),
(40,-89,cs),
(40,-149,o),
(89,-185,o),
(147,-185,cs),
(183,-185,o),
(196,-170,o),
(196,-149,cs),
(196,-142,o),
(194,-134,o),
(190,-126,c),
(175,-126,ls),
(136,-126,o),
(112,-109,o),
(112,-73,cs),
(112,-36,o),
(136,-14,o),
(164,5,c),
(112,17,l)
);
}
);
width = 236;
},
{
anchors = (
{
name = _ogonek;
pos = (271,11);
}
);
layerId = UUID1;
shapes = (
{
closed = 1;
nodes = (
(83,-6,o),
(50,-44,o),
(50,-96,cs),
(50,-163,o),
(103,-202,o),
(176,-202,cs),
(248,-202,o),
(271,-166,o),
(271,-128,cs),
(271,-111,o),
(268,-98,o),
(264,-86,c),
(259,-86,ls),
(224,-86,o),
(205,-69,o),
(205,-42,cs),
(205,-16,o),
(221,0,o),
(241,11,c),
(108,6,l)
);
}
);
width = 321;
}
);
unicode = 808;
},
